<?xml version="1.0" encoding="utf-8"?>
<!-- Generator: Adobe Illustrator 18.0.0, SVG Export Plug-In . SVG Version: 6.00 Build 0)  -->
<!DOCTYPE svg PUBLIC "-//W3C//DTD SVG 1.1//EN" "http://www.w3.org/Graphics/SVG/1.1/DTD/svg11.dtd">
<svg version="1.1" id="Warstwa_1" xmlns="http://www.w3.org/2000/svg" xmlns:xlink="http://www.w3.org/1999/xlink" x="0px" y="0px"
	 width="128px" height="128px" viewBox="0 0 128 128" enable-background="new 0 0 128 128" xml:space="preserve">
<g>
	<path fill="#36464E" d="M100.097,0H27.902C12.492,0,0,12.492,0,27.903v72.195C0,115.508,12.492,128,27.902,128h36.289h7.236h28.67
		c15.41,0,27.903-12.492,27.903-27.903V72.978v-6.985v-38.09C128,12.492,115.508,0,100.097,0z"/>
	<g>
		<path fill="#36464E" d="M100.097,0H27.902C12.492,0,0,12.492,0,27.903v72.195C0,115.508,12.492,128,27.902,128h36.289
			L33.663,95.67v-0.486c-0.547-0.656-0.889-1.489-0.889-2.41l27.622-56.755H35.063c-1.264,0-2.289-1.025-2.289-2.289
			c0-1.264,1.025-2.289,2.289-2.289h57.272c1.007,0,1.891,0.516,2.409,1.296L128,65.993v-38.09C128,12.492,115.508,0,100.097,0z"/>
		<path fill="#2D3A3F" d="M95.226,34.331c0,0.741-0.285,1.454-0.795,1.991L69.793,62.256c0,0,20.594,24.419,24.718,29.308
			c0.462,0.548,0.714,1.238,0.714,1.966v0.045c0,1.648-1.336,2.985-2.984,2.985L36.56,96.559c-1.169,0-2.202-0.542-2.896-1.375
			v0.486L64.191,128h7.236h28.67c15.41,0,27.903-12.492,27.903-27.903V72.978v-6.985L94.744,32.737
			C95.047,33.194,95.226,33.741,95.226,34.331z"/>
		<path fill="#2D3A3F" d="M88.83,92.11L65.112,63.741c-0.74-0.885-0.711-2.182,0.068-3.033l22.603-24.689h-22.59L38.511,92.09h41.69
			L88.83,92.11z"/>
		<path fill="#FFFFFF" d="M92.241,96.561c1.648,0,2.984-1.336,2.984-2.985v-0.045c0-0.729-0.252-1.418-0.714-1.966
			c-4.124-4.89-24.718-29.308-24.718-29.308l24.638-25.935c0.51-0.537,0.795-1.25,0.795-1.991c0-0.59-0.179-1.137-0.482-1.594
			c-0.518-0.78-1.402-1.296-2.409-1.296H35.063c-1.264,0-2.289,1.025-2.289,2.289c0,1.264,1.025,2.289,2.289,2.289h25.333
			L32.774,92.774c0,0.921,0.342,1.754,0.889,2.41c0.694,0.833,1.727,1.375,2.896,1.375L92.241,96.561z M65.194,36.019h22.59
			L65.18,60.708c-0.779,0.851-0.808,2.148-0.068,3.033L88.83,92.11l-8.629-0.02h-41.69L65.194,36.019z"/>
	</g>
</g>
</svg>
