<?xml version="1.0" encoding="utf-8"?>
<!-- Generator: Adobe Illustrator 18.0.0, SVG Export Plug-In . SVG Version: 6.00 Build 0)  -->
<!DOCTYPE svg PUBLIC "-//W3C//DTD SVG 1.1//EN" "http://www.w3.org/Graphics/SVG/1.1/DTD/svg11.dtd">
<svg version="1.1" id="Warstwa_1" xmlns="http://www.w3.org/2000/svg" xmlns:xlink="http://www.w3.org/1999/xlink" x="0px" y="0px"
	 width="512px" height="512px" viewBox="0 0 512 512" enable-background="new 0 0 512 512" xml:space="preserve">
<g>
	<path fill="#36464E" d="M400.39,0H111.61C49.969,0,0,49.969,0,111.61V400.39C0,462.031,49.969,512,111.61,512h145.156h28.943
		H400.39C462.031,512,512,462.031,512,400.39V291.913v-27.941V111.61C512,49.969,462.031,0,400.39,0z"/>
	<g>
		<path fill="#36464E" d="M400.39,0H111.61C49.969,0,0,49.969,0,111.61V400.39C0,462.031,49.969,512,111.61,512h145.156
			L134.653,382.681v-1.944c-2.188-2.626-3.556-5.957-3.556-9.642l110.488-227.02H140.253c-5.057,0-9.156-4.1-9.156-9.156
			c0-5.057,4.1-9.156,9.156-9.156h229.088c4.026,0,7.564,2.063,9.634,5.184L512,263.972V111.61C512,49.969,462.031,0,400.39,0z"/>
		<path fill="#2D3A3F" d="M380.903,137.324c0,2.963-1.138,5.814-3.179,7.963l-98.55,103.739c0,0,82.376,97.674,98.873,117.234
			c1.849,2.192,2.856,4.952,2.856,7.866v0.179c0,6.593-5.345,11.939-11.938,11.938l-222.726-0.006c-4.678,0-8.808-2.167-11.585-5.5
			v1.944L256.766,512h28.943H400.39C462.031,512,512,462.031,512,400.39V291.913v-27.941L378.976,130.948
			C380.188,132.776,380.903,134.965,380.903,137.324z"/>
		<path fill="#2D3A3F" d="M355.322,368.44l-94.872-113.476c-2.961-3.542-2.845-8.728,0.273-12.133l90.412-98.755h-90.358
			L154.044,368.359h166.761L355.322,368.44z"/>
		<path fill="#FFFFFF" d="M368.965,386.243c6.593,0,11.938-5.345,11.938-11.938v-0.179c0-2.914-1.006-5.674-2.856-7.866
			c-16.497-19.559-98.873-117.234-98.873-117.234l98.55-103.739c2.041-2.149,3.179-4.999,3.179-7.963
			c0-2.359-0.714-4.548-1.927-6.377c-2.07-3.122-5.608-5.184-9.634-5.184H140.253c-5.057,0-9.156,4.099-9.156,9.156
			c0,5.057,4.1,9.156,9.156,9.156h101.332l-110.488,227.02c0,3.684,1.368,7.016,3.556,9.642c2.777,3.333,6.907,5.5,11.585,5.5
			L368.965,386.243z M260.775,144.076h90.358l-90.412,98.755c-3.117,3.405-3.234,8.591-0.273,12.133l94.872,113.476l-34.517-0.081
			H154.044L260.775,144.076z"/>
	</g>
</g>
</svg>
