<?xml version="1.0" encoding="utf-8"?>
<!-- Generator: Adobe Illustrator 18.0.0, SVG Export Plug-In . SVG Version: 6.00 Build 0)  -->
<!DOCTYPE svg PUBLIC "-//W3C//DTD SVG 1.1//EN" "http://www.w3.org/Graphics/SVG/1.1/DTD/svg11.dtd">
<svg version="1.1" id="Warstwa_1" xmlns="http://www.w3.org/2000/svg" xmlns:xlink="http://www.w3.org/1999/xlink" x="0px" y="0px"
	 width="512px" height="512px" viewBox="0 0 512 512" enable-background="new 0 0 512 512" xml:space="preserve">
<g>
	<circle fill="#36464E" cx="256" cy="259.65" r="256"/>
	<g>
		<circle fill="#36464E" cx="256" cy="259.65" r="256"/>
		<polygon fill="#F4AA41" points="203.847,91.712 213.807,100.985 227.196,103.418 217.924,113.378 215.49,126.767 205.53,117.495 
			192.141,115.061 201.414,105.101 		"/>
		<polygon fill="#F4AA41" points="191.423,372.839 196.316,381.784 205.261,386.676 196.316,391.569 191.423,400.514 
			186.531,391.569 177.586,386.676 186.531,381.784 		"/>
		<polygon fill="#FFFFFF" points="128.833,109.24 133.725,118.185 142.67,123.077 133.725,127.969 128.833,136.914 123.941,127.969 
			114.996,123.077 123.941,118.185 		"/>
		<polygon fill="#FFFFFF" points="394.77,359.002 399.662,367.947 408.607,372.839 399.662,377.731 394.77,386.676 389.878,377.731 
			380.933,372.839 389.878,367.947 		"/>
		<polygon fill="#FFFFFF" points="320.544,409.634 325.436,418.579 334.381,423.472 325.436,428.364 320.544,437.309 
			315.652,428.364 306.707,423.472 315.652,418.579 		"/>
		<g>
			<g>
				<path fill="#FFFFFF" d="M369.279,224.749c-3.455,3.068-4.955,7.284-6.701,11.096c-4.545,9.839-8.172,20.161-11.855,30.425
					c-3.345,9.284-4.854,19.019-4.763,20.568c0.236,3.728,2.664,6.374,6.336,6.374c2.836-0.792,6.955-1.673,12.346-15.109
					c3.627-9.052,8.646-22.971,9.819-26.826c1.173-3.855,4.473-14.216,4.727-15.187
					C383.879,218.365,370.787,223.408,369.279,224.749z"/>
				<path fill="#FFFFFF" d="M399.289,191.638c-26.656-11.496-49.439,1.231-55.972,7.109l0.027-0.028l-0.85,0.71
					c-1.801,1.468-4.055,3.339-6.682,6.386c-1.345-3.129-3.273-5.532-5.591-7.707l-0.463-0.44
					c-3.237-3.242-21.315-18.845-58.04-5.901c-5.592,1.968-10.256,4.714-14.284,7.98c-6.054-11.73-19.296-13.537-29.681-13.676
					c-25.856-0.311-39.134,9.923-45.723,18.565c-0.795,1.043-1.566,2.118-2.325,3.209c-0.107-3.939-1.159-7.594-3.193-10.697
					c-2.244-3.418-6.657-7.689-14.845-8.818c-4.268-0.704-10.944-0.704-17.31,1.418c-5.908,1.968-10.174,6.133-12.869,9.091
					c-2.462,2.698-5.388,7.153-9.193,14.007c-7.672,13.822-11.862,23.45-18.44,39.953C95.968,272.6,92.17,288.07,92.17,300.651
					c0,2.736,0.177,5.332,0.534,7.808l0.057,0.402l0.087,0.398c0.048,0.22,0.114,0.432,0.167,0.65l3.554,8.423
					c1.37,2.159,3.024,4.135,4.971,5.856c11.859,10.478,33.159,8.178,42.766,5.5c5.139-1.451,11.097-4.719,15.835-9.409
					c14.942,16.515,43.828,13.75,59.558,5.058c2.658-1.473,5.535-3.54,8.133-6.326c1.805,2.225,3.859,4.277,6.216,6.115l0.268,0.208
					c12.769,11.005,35.615,8.241,44.662,5.164c13.315-4.528,23.843-15.606,25.002-16.854c1.232-1.334,2.432-2.762,3.6-4.258
					c3.354,8.758,9.832,15.558,18.837,19.29c13.324,5.518,22.996,4.218,27.643,3.589c28.456-3.89,38.18-21.881,45.281-35.02
					l0.681-1.264c0.159-0.294,15.055-28.159,19.292-61.601c1.169-9.235,0.256-16.596-1.727-22.441l-2.065-4.894
					C410.566,197.38,402.682,193.096,399.289,191.638z M136.289,286.14c0.691,1.381,7.364-0.837,9.894-0.378
					c2.528,0.459,19.227-0.387,9.744,20.278c-2.534,5.519-8.943,10.138-14.626,11.737c-9.744,2.719-25.161,2.972-31.932-3.01
					c-2.659-2.352-4.3-5.317-5.023-8.668c-1.233-8.591-0.37-22.55,10.442-49.693c6.373-15.99,10.336-25.159,17.58-38.214
					c0.241-0.402,4.811-8.896,7.848-12.22c2.216-2.435,4.908-4.876,7.944-5.887c4.365-1.455,9.164-1.455,11.914-0.973
					c7.715,0.993,9.27,6.86,7.51,12.94c-5.703,19.448-11.332,30.874-29.508,69.743C136.85,284.417,135.597,284.758,136.289,286.14z
					 M227.42,262.025c-2.387,3.989-6.696,7.01-11.21,7.827c-16.302,2.912-18.974-1.419-19.779-0.205
					c-2.313,3.352-5.473,16.411-5.032,17.656c0.519,1.454,7.751-2.347,20.883-2.347c4.755,0,12.945,2.046,12.022,13.783
					c-0.304,3.741-1.594,10.982-10.114,15.709c-12.546,6.939-36.092,8.993-46.131-3.554c-9.154-11.445-5.089-24.737-3.965-31.093
					c1.179-6.871,9.635-45.632,27.315-68.815c10.345-13.569,28.955-14.071,36.315-13.983c16.11,0.211,20.428,4.835,21.347,14.267
					c0.955,9.876-10.182,15.213-8.391,14.176c-9.624,5.564-25.606,2.219-27.57,3.205c-1.964,0.984-5.391,8.771-6.438,14.29
					c0.837,0.413,1.686,0.337,2.682,0.337c1.833-0.232,7.787-1.175,11.164-0.641C224.665,243.292,237.206,245.616,227.42,262.025z
					 M296.092,223.869c-1.773-3.807-10.6-0.984-12.783,1.2c-10.064,10.052-21.483,49.557-21.892,50.863
					c-0.855,2.698-2.018,8.98-1.028,11.881c3.637,10.671,21.402,2.046,23.421-13.038c0.281-2.168-0.818-1.539-2.892-2.052
					c-2.145-0.551-4.736-1.278-5.909-3.29c-1.173-2.01-3.192-16.678,12.764-20.838c4.964-1.281,20.411-2.471,24.238,6.934
					c1.355,3.321,1.337,10.363,0.864,14.048c-1.481,11.343-8.937,26.399-17.311,35.449c-2.245,2.423-10.827,10.56-20.21,13.751
					c-6.682,2.272-24.938,4.264-33.421-3.046c-2.127-1.844-14.787-9.332-10.151-36.43c1.837-11.314,9.588-33.586,12.724-40.064
					c7.873-16.252,14.665-31.376,31.202-37.2c28.229-9.949,42.466-0.33,45.949,3.162c2.518,2.514,5.781,4.091,4.364,16.962
					c-1.409,12.619-9.664,17.585-7.964,16.024c-4.4,3.996-15.001,5.524-20.256,1.786
					C290.264,234.609,298.255,228.524,296.092,223.869z M407.889,232.211c-3.49,27.572-15.019,52.047-17.974,57.515
					c-7.091,13.079-13.946,27.116-37.284,30.307c-4.192,0.564-11.41,1.426-21.637-2.81c-8.72-3.619-13.592-11.184-14.201-20.829
					c-0.437-7.018,2.69-24.762,3.236-26.668c15.792-53.87,26.774-59.085,31.193-63.034c3.827-3.441,22.102-14.339,43.593-5.071
					C402.099,204.755,410.3,213.187,407.889,232.211z"/>
			</g>
		</g>
	</g>
</g>
</svg>
