<?xml version="1.0" encoding="utf-8"?>
<!-- Generator: Adobe Illustrator 18.0.0, SVG Export Plug-In . SVG Version: 6.00 Build 0)  -->
<!DOCTYPE svg PUBLIC "-//W3C//DTD SVG 1.1//EN" "http://www.w3.org/Graphics/SVG/1.1/DTD/svg11.dtd">
<svg version="1.1" id="Warstwa_1" xmlns="http://www.w3.org/2000/svg" xmlns:xlink="http://www.w3.org/1999/xlink" x="0px" y="0px"
	 width="512px" height="512px" viewBox="0 0 512 512" enable-background="new 0 0 512 512" xml:space="preserve">
<path fill="#35464E" d="M256,0C114.839,0,0,114.842,0,256s114.839,256,256,256s256-114.842,256-256S397.161,0,256,0z"/>
<g>
	<polygon fill="#F4AA41" points="442.904,179.299 449.307,167.591 461.015,161.188 449.307,154.784 442.904,143.076 436.5,154.784 
		424.792,161.188 436.5,167.591 	"/>
	
		<rect x="466.704" y="182.282" transform="matrix(-0.7071 -0.7071 0.7071 -0.7071 644.038 714.5467)" fill="#FFFFFF" width="6.606" height="83.213"/>
	<path fill="#35464E" d="M512,256C512,114.842,397.161,0,256,0c-4.241,0-8.456,0.116-12.647,0.321L0.321,243.353
		C0.116,247.544,0,251.759,0,256c0,6.906,0.36,13.867,0.915,20.79H0.774l0.555,5.458c0,0.004,0.001,0.009,0.002,0.013l0.45,4.438
		h0.108C17.245,415.449,125.667,512,256,512c116.196,0,217.263-77.76,247.204-189.552h0.079l0.948-3.745l1.548-6.165h-0.196
		C509.767,294.019,512,275.048,512,256z M436.5,154.784l6.404-11.708l6.403,11.708l11.708,6.404l-11.708,6.403l-6.403,11.708
		l-6.404-11.708l-11.708-6.403L436.5,154.784z M421.123,116.168L258.794,278.5h-0.916l-4.213-4.213l162.787-162.79L421.123,116.168z
		 M408.622,200.604l-8.772,4.798l-4.798,8.772l-4.798-8.772l-8.772-4.798l8.772-4.798l4.798-8.772l4.798,8.772L408.622,200.604z
		 M378.146,116.362l3.337-6.102l3.338,6.102l6.102,3.338l-6.102,3.337l-3.338,6.103l-3.337-6.103l-6.103-3.337L378.146,116.362z
		 M239.637,118.484l11.837-0.826c31.931-34.133,58.357-25.325,58.357-25.325c8.809,25.325-28.628,55.604-28.628,55.604v12.112
		l-26.15,27.252V165.83l-8.809,1.652l-13.213-14.589l1.101-7.157l-20.095-1.652L239.637,118.484z M233.135,168.061l-82.985,82.984
		h-9.342l87.656-87.655L233.135,168.061z M180.492,109.48l4.352-7.958l4.353,7.958l7.958,4.352l-7.958,4.352l-4.353,7.958
		l-4.352-7.958l-7.958-4.352L180.492,109.48z M148.019,140.848l6.403-11.708l6.403,11.708l11.708,6.403l-11.708,6.403l-6.403,11.708
		l-6.403-11.708l-11.708-6.403L148.019,140.848z M133.642,186.895l4.402-5.386l2.16,6.612l5.386,4.401l-6.612,2.16l-4.402,5.386
		l-2.16-6.612l-5.386-4.401L133.642,186.895z M95.167,193.658l1.569-2.87l1.569,2.87l2.869,1.569l-2.869,1.569l-1.569,2.869
		l-1.569-2.869l-2.87-1.569L95.167,193.658z M107.832,284.02v9.342l-25.119,25.119h-9.342L107.832,284.02z M256,502.09
		c-124.897,0-228.923-92.216-244.194-215.39h49.781v41.69h6.294h4.923h44.939v-44.938v-9.342v-13.156h13.156h9.342h24.844v76.194
		h40.742v-92.987h25.323v78.287h29.806V288.41h53.877v34.039h40.742v-48.513h36.335v36.284h42.942V286.7h14.31v35.748h43.826
		C463.355,428.539,366.813,502.09,256,502.09z M442.923,255.645l-4.671-4.671l58.839-58.842l4.671,4.671L442.923,255.645z"/>
	<path fill="#35464E" d="M1.065,233.268L233.268,1.065C110.219,11.95,11.95,110.221,1.065,233.268z"/>
	<polygon fill="#FFFFFF" points="96.736,199.666 98.306,196.797 101.175,195.227 98.306,193.658 96.736,190.788 95.167,193.658 
		92.297,195.227 95.167,196.797 	"/>
	<polygon fill="#F4AA41" points="154.422,165.363 160.825,153.654 172.533,147.251 160.825,140.848 154.422,129.14 148.019,140.848 
		136.31,147.251 148.019,153.654 	"/>
	<polygon fill="#F4AA41" points="184.844,126.143 189.197,118.185 197.155,113.832 189.197,109.48 184.844,101.521 180.492,109.48 
		172.533,113.832 180.492,118.185 	"/>
	<polygon fill="#FFFFFF" points="390.255,195.806 381.483,200.604 390.255,205.402 395.052,214.173 399.85,205.402 408.622,200.604 
		399.85,195.806 395.052,187.035 	"/>
	<polygon fill="#FFFFFF" points="381.483,129.14 384.821,123.037 390.923,119.7 384.821,116.362 381.483,110.259 378.146,116.362 
		372.043,119.7 378.146,123.037 	"/>
	<polygon fill="#FFFFFF" points="134.577,200.069 138.979,194.682 145.59,192.522 140.204,188.121 138.044,181.508 133.642,186.895 
		127.031,189.055 132.417,193.456 	"/>
	<polygon fill="#FFFFFF" points="140.808,251.045 150.15,251.045 233.135,168.061 228.465,163.39 	"/>
	<polygon fill="#FFFFFF" points="107.832,293.362 107.832,284.02 73.371,318.481 82.713,318.481 	"/>
	<polygon fill="#FFFFFF" points="257.877,278.5 258.794,278.5 421.123,116.168 416.452,111.497 253.665,274.287 	"/>
	<path fill="#EBEFF0" d="M233.031,152.893l13.213,14.589l8.809-1.652v21.471l26.15-27.252v-12.112c0,0,37.437-30.279,28.628-55.604
		c0,0-26.426-8.808-58.357,25.325l-11.837,0.826l-25.6,25.6l20.095,1.652L233.031,152.893z"/>
	<path fill="#EBEFF0" d="M449.161,286.7h-14.31v23.519H391.91v-36.284h-36.335v48.513h-40.742V288.41h-53.877v34.039h-29.806
		v-78.287h-25.323v92.987h-40.742v-76.194H140.24h-9.342h-13.156v13.156v9.342v44.938H72.803h-4.923h-6.294V286.7H11.806
		C27.077,409.874,131.103,502.09,256,502.09c110.813,0,207.355-73.552,236.987-179.642h-43.826V286.7z"/>
	<path fill="#FFFFFF" d="M233.268,1.065L1.065,233.268c-0.296,3.348-0.578,6.701-0.744,10.085L243.353,0.321
		C239.969,0.487,236.617,0.768,233.268,1.065z"/>
</g>
</svg>
