<?xml version="1.0" encoding="utf-8"?>
<!-- Generator: Adobe Illustrator 18.0.0, SVG Export Plug-In . SVG Version: 6.00 Build 0)  -->
<!DOCTYPE svg PUBLIC "-//W3C//DTD SVG 1.1//EN" "http://www.w3.org/Graphics/SVG/1.1/DTD/svg11.dtd">
<svg version="1.1" id="Warstwa_1" xmlns="http://www.w3.org/2000/svg" xmlns:xlink="http://www.w3.org/1999/xlink" x="0px" y="0px"
	 width="512px" height="512px" viewBox="0 0 512 512" enable-background="new 0 0 512 512" xml:space="preserve">
<g>
	<path fill="#36464E" d="M412.444,0H289.439h-70.422H99.556C44.8,0,0,44.8,0,99.556v312.889C0,467.2,44.8,512,99.556,512h216.33
		h21.26h75.299C467.2,512,512,467.2,512,412.444V222.561v-1.61V99.556C512,44.8,467.2,0,412.444,0z"/>
	<g>
		<path fill="#36464E" d="M412.444,0H289.439h-70.423H99.556C44.8,0,0,44.8,0,99.556v312.889C0,467.2,44.8,512,99.556,512h216.33
			l-117.94-117.94c-2.08-1.646-3.962-3.383-5.955-5.07c-0.815-0.684-1.621-1.372-2.422-2.062c-2.293-1.995-4.575-3.992-6.75-6.038
			c-3.31-3.08-6.518-6.203-9.54-9.398c-0.069-0.073-0.138-0.147-0.207-0.22c-2.518-2.678-4.931-5.391-7.229-8.147
			c-0.312-0.372-0.608-0.749-0.915-1.123c-1.421-1.734-2.917-3.443-4.246-5.207c-3.046-4.043-5.766-8.185-8.286-12.384
			c-0.038-0.063-0.078-0.126-0.116-0.189c-1.639-2.742-3.167-5.513-4.571-8.319c-0.187-0.371-0.394-0.737-0.577-1.109
			c-1.47-3.016-2.84-6.059-4.026-9.146c-0.088-0.229-0.16-0.46-0.247-0.689c-1.047-2.781-1.962-5.591-2.762-8.428
			c-0.196-0.691-0.379-1.384-0.56-2.078c-0.647-2.502-1.19-5.026-1.636-7.57c-0.129-0.73-0.284-1.454-0.396-2.187
			c-0.477-3.15-0.844-6.324-0.999-9.537L121.652,99.373c0,0,0.001,0,0.001,0l-0.001-0.014
			c54.642-12.479,87.697-18.214,134.244-18.214c0.018,0,0.035,0,0.052,0c0.018,0,0.035,0,0.053,0c46.005,0,78.88,5.61,132.363,17.78
			c0.671,0.153,1.307,0.294,1.984,0.449l-0.108,1.428L512,222.561v-1.61V99.556C512,44.8,467.2,0,412.444,0z"/>
		<polygon fill="#2D3A3F" points="274.649,207.091 273.384,211.88 275.915,211.88 		"/>
		<path fill="#2D3A3F" d="M286.502,208.052c0-1.197-0.438-1.551-1.872-1.551h-1.973v3.136h1.973
			C286.047,209.637,286.502,209.249,286.502,208.052z"/>
		<path fill="#2D3A3F" d="M306.49,278.125c0,10.978-6.342,26.58-19.522,36.717l-0.759,1.569c-1.44,3.152-1.539,4.787-1.069,10.074
			c1.349-0.809,4.048-1.754,5.801-2.428c0.405-3.103,8.719-17.767,20.069-18.147c1.079,0,0.81,0.809,0,1.349
			c-0.81,0.539-9.832,5.945-11.063,13.897c1.349-0.405,9.545-1.754,10.22-1.889c0.54-2.023,5.228-9.848,12.784-10.523
			c0.944,0-0.303,1.447,0.135,1.079c-3.019,2.538-5.043,5.068-5.802,8.534c1.35-0.135,5.97,0.202,6.915,0.473
			c0.944-1.214,5.818-4.275,12.648-3.373c0.945,0,0.697,0.904,0,1.214c-0.928,0.414-5.902,0.944-6.577,3.778
			c10.203,5.574,11.535,12.075,12.21,16.393c0.135,1.079-0.539,1.079-1.349,0.404c-0.81-0.675-8.418-11.175-18.889-11.738
			c-9.259-0.498-30.171,5.068-43.916,12.345c-0.135,4.182-1.183,4.732-3.238,4.732c-1.111,0-2.11-0.488-2.791-1.26
			c-0.627,0.482-1.179,0.384-2.032,0.384c-2.055,0-3.384-1.666-3.384-3.72c0-1.541,0.592-2.638,1.928-3.203
			c-0.091-0.323-0.14-0.561-0.14-0.913c0-2.055,1.667-3.72,3.721-3.72c0.696,0,1.348,0.191,1.904,0.523
			c0.457,0.229,3.02,0.027,3.29-2.065c0.091-1.001,0.003-2.955,1.586-7.598l0.143-1.351c-5.906,2.982-12.803,4.926-20.718,5.288
			l-0.001,97.876c47.221-24.959,102.538-66.447,110.632-119.739l2.402-31.698l-65.138,0.201V278.125z M305.702,383.91
			c-0.443-0.369-4.384-3.067-10.114-3.375c-5.067-0.272-14.986,2.489-22.642,7.168c-0.074,2.288-1.153,2.758-2.277,2.758
			c-0.609,0-1.155-0.267-1.528-0.69c-0.343,0.264-0.646,0.21-1.112,0.21c-1.124,0-1.851-0.911-1.851-2.036
			c0-0.843,0.324-1.443,1.054-1.753c-0.049-0.176-0.076-0.307-0.076-0.499c0-1.124,0.911-2.036,2.035-2.036
			c0.381,0,0.738,0.104,1.043,0.287c0.25,0.125,1.653,0.014,1.8-1.13c0.111-1.218,0.726-10.585,6.381-11.587
			c0.664-0.147,0.443,0.369,0.148,0.664c0.502-0.502-3.357,3.964-2.393,9.507c0.738-0.442,2.148-0.937,3.108-1.307
			c0.222-1.698,2.312-9.545,8.522-9.752c0.591,0,0.443,0.443,0,0.739c-0.442,0.295-3.058,3.053-3.732,7.404
			c0.836-0.434,2.945-0.771,3.773-1.033c0.295-1.107,4.784-7.151,9.316-7.054c0.517,0-0.166,0.792,0.073,0.59
			c-1.651,1.389-3.876,3.625-4.292,5.522c0.738-0.073,2.508-0.143,3.025,0.005c0.517-0.665,2.402-2.992,6.14-2.498
			c0.517,0,0.382,0.495,0,0.665c-0.507,0.225-1.871,1.146-2.241,2.697c4.353,2.106,6.21,3.949,6.579,6.312
			C306.514,384.279,306.145,384.279,305.702,383.91z M325.635,362.287c-0.648-0.539-6.903-6.579-15.28-7.03
			c-7.407-0.398-23.462,3.548-34.458,9.37c-0.108,3.346-0.947,3.786-2.59,3.786c-0.89,0-1.689-0.39-2.234-1.008
			c-0.502,0.385-0.943,0.307-1.626,0.307c-1.644,0-2.706-1.333-2.706-2.976c0-1.233,0.473-2.11,1.542-2.562
			c-0.073-0.258-0.112-0.449-0.112-0.73c0-1.644,1.333-2.976,2.977-2.976c0.557,0,1.078,0.153,1.524,0.419
			c0.365,0.183,2.416,0.02,2.632-1.652c0.162-1.781,3.852-15.152,13.026-16.447c0.971-0.216,0.648,0.539,0.216,0.971
			c0.734-0.733-7.877,6.127-7.198,13.776c1.08-0.647,4.25-1.741,5.653-2.28c0.324-2.483,7.819-13.708,16.899-14.012
			c0.863,0,0.647,0.648,0,1.08c-0.648,0.432-8.541,4.587-9.526,10.948c1.08-0.324,6.456-1.403,6.996-1.511
			c0.431-1.619,6.131-8.729,12.756-8.588c0.755,0-0.243,1.159,0.108,0.864c-2.415,2.03-6.901,4.561-7.509,7.333
			c1.08-0.108,4.776,0.162,5.532,0.378c0.756-0.971,4.993-3.757,10.457-3.035c0.756,0,0.558,0.722,0,0.972
			c-0.742,0.33-4.216,1.43-4.756,3.697c5.902,3.481,8.217,7.131,8.756,10.584C326.822,362.827,326.283,362.827,325.635,362.287z"/>
		<path fill="#2D3A3F" d="M121.653,99.373c0,0-0.001,0-0.001,0l14.852,195.783c0.155,3.214,0.522,6.387,0.999,9.537
			c-0.49-3.204-0.853-6.434-1.01-9.704L121.653,99.373z"/>
		<path fill="#2D3A3F" d="M301.093,274.752v-76.903h-45.197h-45.198v76.903c0,20.912,17.539,44.86,45.198,44.86
			C283.554,319.612,301.093,295.665,301.093,274.752z M289.804,204.274h8.112v2.226h-2.985v10.068h-2.074V206.5h-3.053V204.274z
			 M280.582,204.274h4.435c1.433,0,1.973,0.152,2.58,0.708c0.675,0.641,1.045,1.619,1.045,2.833c0,1.417-0.354,2.142-1.433,2.85
			c0.978,0.523,1.096,0.86,1.181,3.238c0.067,1.99,0.118,2.294,0.438,2.664h-2.294c-0.202-0.675-0.236-0.843-0.253-1.939
			c-0.051-1.805,0.202-2.918-1.72-2.918h-1.906v4.857h-2.074V204.274z M273.519,204.274h2.344l3.559,12.295h-2.26l-0.691-2.58h-3.66
			l-0.708,2.58h-2.176L273.519,204.274z M264.414,204.038c2.428,0,4.047,1.535,4.351,4.149h-2.125
			c-0.404-1.332-1.079-1.922-2.209-1.922c-1.737,0-2.817,1.602-2.817,4.166c0,2.513,1.113,4.149,2.817,4.149
			c1.298,0,2.158-0.911,2.429-2.563h-2.277v-2.109h4.183v6.662h-1.434l-0.202-1.552c-0.792,1.232-1.754,1.788-3.018,1.788
			c-2.716,0-4.639-2.597-4.639-6.274C259.471,206.618,261.429,204.038,264.414,204.038z M251.647,204.274h4.249h3.863v2.226h-2.985
			v10.068h-0.878H254.7V206.5h-3.053V204.274z M242.54,204.274h8.112v2.226h-2.985v10.068h-2.074V206.5h-3.053V204.274z
			 M233.318,204.274h2.075v7.539c0,1.99,0.556,2.766,1.956,2.766c1.484,0,2.024-0.742,2.024-2.766v-7.539h2.074v7.589
			c0,2.8-0.827,4.942-4.065,4.942c-3.221,0-4.065-2.108-4.065-4.942V204.274z M223.773,204.274h8.113v2.226h-2.985v10.068h-2.075
			V206.5h-3.053V204.274z M220.167,212.251l-3.087-1.434c-1.349-0.624-1.956-1.551-1.956-3.053c0-2.243,1.467-3.727,3.693-3.727
			c2.445,0,3.845,1.4,3.946,3.964h-2.024c-0.202-1.35-0.759-1.906-1.889-1.906c-1.012,0-1.738,0.59-1.738,1.417
			c0,0.388,0.253,0.709,0.709,0.928l3.17,1.467c1.434,0.658,2.057,1.434,2.057,3.087c0,1.164-0.438,2.192-1.265,2.935
			c-0.691,0.624-1.467,0.876-2.682,0.876c-1.687,0-2.884-0.59-3.575-1.771c-0.388-0.623-0.523-1.181-0.59-2.31h1.99
			c0.253,1.434,0.911,2.024,2.243,2.024c1.114,0,1.889-0.59,1.889-1.434C221.061,212.859,220.808,212.555,220.167,212.251z
			 M284.481,267.922c0.506,1.265,1.012,2.951,0.169,6.577c-0.843,3.626-3.626,5.059-4.132,7.42
			c-0.506,2.362,2.109,5.987,2.867,7.336c0.759,1.349,1.096,2.698-0.506,3.626c-1.602,0.928-3.626,4.048-4.3,5.65
			c-0.675,1.602-3.794,4.132-5.566,4.891c-1.771,0.758-1.181,1.349-1.265,2.613c-0.084,1.265-2.024,2.193-2.867,2.193
			c-0.843,0-1.349,0.927-1.517-0.928c-0.169-1.855,0.422-3.289,1.349-4.638c0.927-1.349,2.614-2.277,4.553-3.794
			c1.939-1.518,2.445-3.204,2.867-4.217c0.422-1.011,1.602-1.939,2.193-2.951c-0.337-0.506-0.422-0.928-0.759-1.686
			c-2.024-2.783-6.325-3.71-7.674-4.048c-0.928,1.012-0.843,2.951-0.675,3.711c0.169,0.759,0,2.276-1.517,2.529
			c-1.518,0.253-5.397,1.518-7.336,3.879c-1.367,1.665-3.184,2.233-4.469,2.516c-0.537,0.118-0.991,0.192-1.265,0.267
			c-0.928,0.253-0.759,1.686-0.928,2.361c-0.169,0.675-0.843,1.855-3.289,1.855c-2.446,0-0.928-2.53-0.253-3.963
			c0.675-1.434,1.35-1.434,2.446-2.53c0.906-0.906,1.71-1.352,3.289-1.86c0.332-0.107,0.686-0.216,1.096-0.333
			c2.36-0.675,5.228-3.626,6.324-4.468c1.855-1.687,1.434-4.891,0.337-5.903c-1.349-1.096-3.457-4.975-4.469-6.746
			c-0.992,0.105-2.112,0.075-3.288-0.046c-5.424-0.556-12.091-3.115-13.408-4.085c-2.361,2.613-10.119,0.506-11.805-0.084
			c-2.108-0.422-3.036,0.337-3.373,1.602c-0.337,1.265-0.084,2.699,0.59,3.964c0.675,1.265,1.096,2.53,0.928,4.048
			c-0.169,1.517,1.433,2.867,2.023,2.951c1.687,0.169,1.181,1.855,1.012,3.541c-0.168,1.686-2.193,0.844-3.035,0.084l-2.108-2.951
			c-2.362-2.109-2.277-4.807-2.024-6.071s0.084-2.952-0.59-6.914c-0.674-3.964,0.59-4.216,2.193-4.553
			c1.602-0.337,4.638-1.434,5.902-2.109c-3.204-1.349-4.806-5.818-5.734-7.842c-0.928-2.024-2.699-1.265-3.205-0.759
			c-0.506,0.506-1.939,1.939-2.446,2.698c-0.506,0.759-0.253,1.35-0.422,2.109c-0.169,0.759-1.518,2.277-1.94,3.541
			c-0.084,0.928-0.168,3.542-0.506,4.385c-0.337,0.843-1.939,1.602-3.288,1.012c-1.35-0.59,0-3.71,0.084-4.216
			c0.506-1.856,1.434-2.362,1.434-3.542c0-3.373,1.18-2.699,1.939-4.469c0.759-1.771,3.795-5.902,4.385-6.577
			c1.181-1.687,3.035-0.843,3.879-0.169c1.265,1.012,3.542,1.94,5.565,2.698c0.421-0.506,0.928-0.928,1.349-2.951
			c0.421-2.024,1.265-4.216,2.361-5.143c1.096-0.928,3.458-4.048,4.47-5.06c0.505-0.928,1.602-1.771,0.421-3.204
			c-1.181-1.434-2.276-0.084-3.794,1.181c-1.518,1.264-2.53,0.337-2.446-0.085c0.084-0.422,0.084-0.59-0.422-1.349
			c-0.506-0.759-1.265,0.169-2.192-1.181c-0.321-0.466-0.253-1.433,0.506-2.277c0.759-0.928,1.181-1.518,1.771-2.108
			c0.59-0.59,3.036-1.94,4.469-3.373c0.506-0.337,1.434-0.337,1.603-0.675c0.168-0.337-0.253-1.265-0.169-2.108
			c0.084-0.843,2.867-1.518,3.963-1.602c-0.506-1.518,0.422-2.53,1.434-3.12c1.012-0.59,1.686,0,1.518,0.59
			c-0.169,0.59-0.169,1.518,0.421,1.855c0.591,0.337,1.096,1.18,1.096,1.433s-0.252,0.675,0.422,1.265
			c0.675,0.59,1.433-0.337,0.843-0.928c-0.59-0.59-0.59-1.603,0.506-2.277c1.096-0.674,2.446-0.169,3.289,0.759
			c0.427,0.47,1.483,0.376,2.53,0.17c1.018-0.201,2.029-0.508,2.445-0.508c0.844,0,0.759,0.843,0.422,1.096
			c-0.337,0.253-0.506,0.759,0.085,1.349c0.59,0.59,2.53-0.253,4.216-0.337c1.687-0.084,1.434,1.181,0.506,1.434
			c-2.192,0.843-2.108,1.602-1.687,2.951c0.422,1.349,1.603,1.096,3.71,1.012c2.109-0.084,1.686,1.349,0.759,1.687
			c-0.928,0.337-1.855,1.518-1.855,2.192c0,0.675,2.109,1.181,3.541,1.602c1.434,0.422,1.518,1.434,0.675,1.856
			c-0.843,0.422-0.928,0.843-0.843,1.518c0.084,0.675,0,1.518-1.264,1.602c-1.265,0.084-2.193,1.181-2.277,1.686
			c-0.084,0.506,0.675,1.012,2.024,1.518c1.349,0.506,0.843,2.109,0.084,2.277c-0.759,0.169-1.434-0.422-2.108,1.181
			c-0.675,1.602-1.433,1.771-2.193,1.771c-0.759,0-1.433,0.169-1.856,1.012c-0.421,0.843-0.928,1.18-1.686,1.517
			c-1.073,0.536-2.361,1.434-0.253,3.204c2.109,1.771,10.962,3.964,13.66,3.794c2.699-0.168,6.83,1.097,8.095,1.94
			c1.265,0.843,2.783,2.614,4.469,0.928c1.686-1.687-0.59-3.88-2.108-5.566c-3.12-2.699-2.446-5.228-2.277-6.408
			c0.169-1.181-0.675-2.867-0.506-3.795c0.169-0.928,0.843-2.023,2.024-2.699c1.181-0.675,1.434-1.433,1.94-2.108
			c1.602-2.698,3.457-2.277,5.903-2.698c2.445-0.422,2.192-0.422,3.119-2.699c0.928-2.277,2.277-2.362,2.615-1.856
			c0.337,0.506,0,1.856-0.337,2.53c0.253,0.59,0.506,1.349-0.169,2.867c-0.675,1.518-5.06,2.951-5.902,3.204
			c-0.844,0.253-0.169,1.181,0.422,0.759c3.795-2.782,4.553,0.253,4.637,1.181c2.446-0.084,2.361,1.686,2.108,3.12
			c0.759,2.277-0.928,4.048-1.771,4.806c-0.843,0.759,0.422,1.771,1.603,1.94c-0.337,1.349,0,2.699,0.675,3.71
			c0.675,1.012-0.169,3.204-1.349,4.216c0.337,0.506,0.506,2.867,0,4.048c-0.506,1.18-4.722,1.349-6.577,0.506
			C286.758,267.838,285.915,267.5,284.481,267.922z"/>
		<polygon fill="#2D3A3F" points="258.594,191.248 306.49,191.248 306.49,192.884 377.484,192.887 380.417,154.178 258.594,153.486 
					"/>
		<path fill="#2D3A3F" d="M160.68,356.794c1.329,1.764,2.825,3.473,4.246,5.207c-4.687-5.703-8.886-11.569-12.533-17.591
			C154.914,348.609,157.634,352.752,160.68,356.794z"/>
		<path fill="#2D3A3F" d="M152.278,344.221c-1.652-2.738-3.156-5.516-4.571-8.319C149.111,338.708,150.639,341.479,152.278,344.221z
			"/>
		<path fill="#2D3A3F" d="M147.13,334.793c-1.482-3.013-2.836-6.06-4.026-9.146C144.29,328.734,145.66,331.776,147.13,334.793z"/>
		<polygon fill="#2D3A3F" points="306.373,266.166 371.826,266.367 374.746,228.832 306.49,229.023 		"/>
		<path fill="#2D3A3F" d="M191.472,101.72l-14.925,2.53c-3.12,0.59-3.036,2.277-3.036,4.047l0.169,6.324
			c0.168,2.614,1.517,2.53,3.541,2.192l14.756-2.361c2.446-0.422,2.952-2.192,2.952-3.289l-0.169-6.914
			C194.761,102.648,193.075,101.467,191.472,101.72z"/>
		<path fill="#2D3A3F" d="M227.727,98.227l-17.49,0.92l0.075,3.699l17.268-0.965c1.197-0.093,2.175-0.667,2.118-1.9
			C229.64,98.748,229.081,98.264,227.727,98.227z"/>
		<path fill="#2D3A3F" d="M253.196,324.948c-18.476-0.845-31.408-10.313-39.137-21.466l-71.421,0.079
			c2.064,13.115,6.985,25.506,13.935,37.106l96.623-0.013V324.948z"/>
		<path fill="#2D3A3F" d="M205.296,243.621c-1.833-1.444-4.659-3.776-13.086-3.77c-4.985,0.004-19.12,4.714-27.346,14.79
			c-0.114,3.529-2.137,4.846-3.871,4.846c-0.938,0-1.78-0.411-2.355-1.063c-0.53,0.406-1.137,0.608-1.856,0.608
			c-1.734,0-3.139-1.406-3.139-3.139c0-1.3,0.926-2.51,2.052-2.987c-0.077-0.272-0.117-0.473-0.117-0.77
			c0-1.734,1.405-3.139,3.139-3.139c0.587,0,1.137,0.161,1.607,0.442c0.385,0.193,1.642,1.045,1.87-0.72
			c0.171-1.878-0.066-19.502,9.358-22.17c1.025-0.228,0.683,0.569,0.227,1.024c-0.455,0.455-4.621,7.652-4.065,16.734
			c1.139-0.683,3.606-2.534,5.086-3.103c0.455-1.935,3.718-16.603,11.509-16.755c0.911,0,0.683,0.683,0,1.138
			c-0.683,0.455-4.077,4.469-4.76,11.641c1.139-0.341,3.98-0.827,4.549-0.94c0.455-1.708,3.816-11.536,10.19-12.105
			c0.798,0,0.456,0.822,0.114,1.164c-0.342,0.342-3.719,5.03-4.39,9.608c1.139-0.113,3.778-0.029,4.575,0.199
			c0.684-0.88,6.088-6.81,10.712-8.75l0.015-19.982c-0.887-0.805-2.273-1.663-6.523-1.675c-6.646-0.02-17.758,2.732-33.088,12.749
			c-0.152,4.705-2.849,6.463-5.161,6.463c-1.251,0-2.373-0.549-3.141-1.418c-0.705,0.542-1.516,0.811-2.475,0.811
			c-2.312,0-4.186-1.874-4.186-4.185c0-1.734,1.235-3.347,2.738-3.983c-0.102-0.362-0.158-0.631-0.158-1.027
			c0-2.312,1.874-4.186,4.186-4.186c0.783,0,1.516,0.215,2.143,0.589c0.513,0.258,2.638,1.169,2.942-1.184
			c0.228-2.504,4.073-23.467,16.974-25.289c1.366-0.303,0.911,0.759,0.304,1.366c-0.607,0.607-10.659,8.854-9.916,20.963
			c1.518-0.911,6.155-3.154,8.128-3.913c0.607-2.581,6.308-18.315,16.696-18.517c1.214,0,0.911,0.911,0,1.518
			c-0.911,0.607-7.235,5.059-8.146,14.621c1.518-0.455,6.206-1.551,6.965-1.703c0.607-2.277,4.638-11.333,13.138-12.092
			c1.063,0,0.607,1.096,0.152,1.551c-0.456,0.455-4.958,3.558-5.853,9.663c0.864-0.086,2.704,0.242,4.293,0.564l-0.027-5.657h47.897
			v-66.411c-26.734,0.385-63.085,1.846-122.827,17.495l9.389,122.844l65.542-0.014L205.296,243.621z M147.189,182.334
			c0-1.927,1.372-3.719,3.042-4.424c-0.114-0.403-0.174-0.702-0.174-1.141c0-2.569,2.082-4.651,4.65-4.651
			c0.87,0,1.684,0.239,2.381,0.655c0.57,0.286,2.932,1.298,3.269-1.316c0.253-2.783,3.963-27.574,18.299-29.598
			c1.518-0.337,1.012,0.843,0.337,1.518c-0.675,0.675-11.806,9.613-10.457,24.791c1.687-1.012,7.589-3.879,9.782-4.721
			c0.506-3.88,6.071-21.925,18.551-22.262c1.349,0,1.012,1.012,0,1.686c-1.012,0.675-8.601,6.746-9.613,17.371
			c1.687-0.506,7.083-1.349,7.926-1.518c0.675-2.53,5.903-14.841,15.347-15.684c1.181,0,0.675,0.843,0.169,1.349
			c-0.506,0.506-7.252,6.24-7.252,12.986c1.686-0.169,6.408-0.169,7.589,0.168c1.18-1.517,6.24-7.083,13.492-7.588
			c1.181,0,0.675,0.843,0,1.518s-5.059,4.553-5.903,8.095c2.53,1.349,9.782,6.24,10.625,11.637c0.169,1.349-0.675,1.349-1.686,0.506
			c-1.012-0.843-8.77-7.083-18.552-7.083c-9.781,0-28.164,4.722-45.197,15.853c-0.169,5.228-3.165,7.18-5.734,7.18
			c-1.39,0-2.637-0.609-3.489-1.576c-0.784,0.603-1.685,0.902-2.75,0.902C149.271,186.984,147.189,184.902,147.189,182.334z"/>
		<path fill="#2D3A3F" d="M189.568,386.928c-2.307-1.988-4.559-4-6.75-6.038C184.993,382.936,187.275,384.932,189.568,386.928z"/>
		<path fill="#2D3A3F" d="M390.348,99.373c-0.677-0.155-1.313-0.296-1.984-0.449c-53.484-12.17-86.358-17.78-132.363-17.78
			c-0.018,0-0.035,0-0.053,0c46.518,0.005,79.57,5.739,134.19,18.214L375.298,294.99c-2.698,55.991-55.317,102.537-119.402,135.592
			c-23.485-12.113-45.394-26.054-63.906-41.592c1.992,1.687,3.875,3.424,5.955,5.07L315.885,512h21.26h75.299
			C467.2,512,512,467.2,512,412.444V222.561l-121.76-121.76L390.348,99.373z"/>
		<path fill="#2D3A3F" d="M188.769,378.747c19.66,17.799,42.886,32.607,64.429,43.993l-0.001-44.14L188.769,378.747z"/>
		<path fill="#2D3A3F" d="M381.918,137.542l2.487-33.46c-23.273-5.734-73.193-17.539-128.509-17.539
			c-55.317,0-105.237,11.805-128.509,17.539l2.487,33.46c59.575-14.909,94.991-17.27,126.022-17.27
			C286.927,120.272,322.342,122.633,381.918,137.542z M351.097,101.13l26.815,5.65l-0.337,4.806l-21.165-4.469l-0.169,4.384
			l20.997,4.47l-0.337,4.806l-20.997-4.469l-0.253,4.807l20.913,4.469l-0.422,4.806l-26.394-5.65L351.097,101.13z M315.259,95.059
			l5.565,0.843l-0.505,8.77l19.563,3.711l0.591-9.276l5.481,1.012l-1.434,23.864l-5.566-1.012l0.675-9.781l-19.563-3.711
			l-0.675,10.288l-5.565-0.759L315.259,95.059z M279,99.275c0.338-6.915,4.385-6.746,6.494-6.577l24.706,1.939l-0.253,5.228
			l-21.081-1.686c-3.205-0.253-3.879,1.602-3.963,3.626l-0.169,5.059c-0.169,3.542,1.94,4.132,3.879,4.216l20.575,1.518
			l-0.253,5.228l-24.623-1.855c-4.469-0.338-5.902-4.301-5.818-6.661C278.494,109.31,278.663,106.19,279,99.275z M159.345,116.73
			l-20.153,4.553l0.758,9.276l-5.818,1.349l-1.686-23.442l24.032-5.397c3.036-0.674,7.336-0.253,7.505,5.144
			C164.152,113.61,163.139,115.886,159.345,116.73z M194.508,119.429l-18.046,2.866c-3.204,0.59-8.432,0.085-8.601-5.987
			l-0.253-10.625c0-2.193-0.084-5.397,5.902-6.324l19.479-3.204c2.361-0.422,7.674,1.181,7.674,5.565l0.253,11.3
			C201.001,115.381,200.833,118.501,194.508,119.429z M237.442,115.439l-5.828,0.281l0.004-3.423
			c-0.008-3.409-1.877-5.542-5.046-5.322l-16.101,1.048l0.159,9.311l-5.8,0.274l-0.637-23.281l24.172-1.611
			c4.425-0.356,8.314,0.547,8.305,6.614c-0.003,1.733-0.623,3.495-1.558,5.067c1.219,0.949,2.358,3.477,2.337,7.146L237.442,115.439
			z M265.678,106.355l-9.782,0.002l-8.854,0.002c-1.012,0-5.818-0.127-5.86-6.999c-0.042-6.872,4.511-7.168,5.86-7.168h8.854h17.707
			v5.056h-17.707h-6.072c-1.12,0-2.027,0.908-2.027,2.028c0,1.119,0.908,2.027,2.027,2.027l6.072-0.001l12.479-0.002
			c1.139,0,6.113-0.337,6.113,6.957c0,7.294-4.427,7.04-6.113,7.04h-12.479h-13.998v-5.055h13.998h9.782
			c1.119,0,2.027-0.739,2.027-1.858C267.704,107.263,266.797,106.355,265.678,106.355z"/>
		<path fill="#2D3A3F" d="M154.876,108.803c-1.687,0.337-16.191,3.626-16.191,3.626l0.169,3.457l16.781-3.71
			c1.433-0.337,1.686-1.518,1.602-2.277C157.172,109.313,156.563,108.466,154.876,108.803z"/>
		<path fill="#FFFFFF" d="M375.298,294.99l14.841-195.631c-54.621-12.475-87.672-18.209-134.19-18.214c-0.018,0-0.035,0-0.052,0
			c-46.547,0-79.602,5.735-134.244,18.214l0.001,0.014l14.84,195.617c0.158,3.269,0.52,6.5,1.01,9.704
			c0.112,0.733,0.267,1.457,0.396,2.187c0.446,2.545,0.988,5.068,1.636,7.57c0.181,0.694,0.364,1.388,0.56,2.078
			c0.8,2.837,1.715,5.647,2.762,8.428c0.086,0.229,0.158,0.461,0.247,0.689c1.19,3.086,2.545,6.132,4.026,9.146
			c0.183,0.372,0.39,0.738,0.577,1.109c1.414,2.802,2.919,5.581,4.571,8.319c0.038,0.063,0.078,0.126,0.116,0.189
			c3.647,6.022,7.845,11.889,12.533,17.591c0.307,0.374,0.604,0.751,0.915,1.123c2.298,2.756,4.711,5.469,7.229,8.147
			c0.069,0.073,0.138,0.147,0.207,0.22c3.022,3.195,6.23,6.318,9.54,9.398c2.191,2.038,4.443,4.051,6.75,6.038
			c0.801,0.69,1.607,1.378,2.422,2.062c18.511,15.538,40.421,29.479,63.906,41.592C319.981,397.527,372.6,350.981,375.298,294.99z
			 M210.698,274.752v-76.903h45.198h45.197v76.903c0,20.912-17.539,44.86-45.197,44.86
			C228.237,319.612,210.698,295.665,210.698,274.752z M369.226,303.085c-8.095,53.293-63.411,94.78-110.632,119.739l0.001-97.876
			c7.914-0.361,14.811-2.306,20.718-5.288l-0.143,1.351c-1.584,4.643-1.496,6.596-1.586,7.598c-0.27,2.092-2.834,2.294-3.29,2.065
			c-0.557-0.332-1.208-0.523-1.904-0.523c-2.055,0-3.721,1.665-3.721,3.72c0,0.352,0.049,0.59,0.14,0.913
			c-1.335,0.564-1.928,1.661-1.928,3.203c0,2.055,1.329,3.72,3.384,3.72c0.852,0,1.404,0.098,2.032-0.384
			c0.682,0.773,1.68,1.26,2.791,1.26c2.055,0,3.103-0.55,3.238-4.732c13.745-7.277,34.657-12.843,43.916-12.345
			c10.47,0.563,18.079,11.063,18.889,11.738c0.81,0.675,1.484,0.675,1.349-0.404c-0.675-4.318-2.007-10.819-12.21-16.393
			c0.675-2.833,5.649-3.364,6.577-3.778c0.697-0.311,0.945-1.214,0-1.214c-6.83-0.902-11.704,2.159-12.648,3.373
			c-0.945-0.27-5.565-0.607-6.915-0.473c0.759-3.465,2.783-5.995,5.802-8.534c-0.438,0.369,0.809-1.079-0.135-1.079
			c-7.555,0.675-12.244,8.5-12.784,10.523c-0.675,0.135-8.871,1.484-10.22,1.889c1.231-7.952,10.253-13.357,11.063-13.897
			c0.81-0.54,1.079-1.349,0-1.349c-11.35,0.38-19.664,15.044-20.069,18.147c-1.753,0.675-4.452,1.619-5.801,2.428
			c-0.47-5.287-0.371-6.922,1.069-10.074l0.759-1.569c13.18-10.138,19.522-25.74,19.522-36.717v-6.538l65.138-0.201L369.226,303.085
			z M371.826,266.367l-65.453-0.201l0.116-37.143l68.256-0.192L371.826,266.367z M377.484,192.887l-70.995-0.003v-1.636h-47.895
			v-37.763l121.823,0.692L377.484,192.887z M127.387,104.082c23.273-5.734,73.193-17.539,128.509-17.539
			c55.316,0,105.236,11.805,128.509,17.539l-2.487,33.46c-59.575-14.909-94.991-17.27-126.022-17.27
			c-31.032,0-66.447,2.361-126.022,17.27L127.387,104.082z M139.759,266.381l-9.389-122.844
			c59.743-15.65,96.094-17.111,122.827-17.495v66.411h-47.897l0.027,5.657c-1.589-0.322-3.429-0.65-4.293-0.564
			c0.894-6.105,5.397-9.208,5.853-9.663c0.455-0.455,0.911-1.551-0.152-1.551c-8.5,0.759-12.531,9.815-13.138,12.092
			c-0.759,0.152-5.447,1.248-6.965,1.703c0.911-9.562,7.235-14.014,8.146-14.621c0.911-0.607,1.214-1.518,0-1.518
			c-10.389,0.202-16.089,15.937-16.696,18.517c-1.973,0.759-6.611,3.002-8.128,3.913c-0.743-12.109,9.309-20.356,9.916-20.963
			c0.607-0.607,1.063-1.669-0.304-1.366c-12.901,1.821-16.746,22.784-16.974,25.289c-0.304,2.353-2.428,1.442-2.942,1.184
			c-0.627-0.374-1.36-0.589-2.143-0.589c-2.311,0-4.186,1.874-4.186,4.186c0,0.395,0.055,0.664,0.158,1.027
			c-1.503,0.635-2.738,2.248-2.738,3.983c0,2.312,1.874,4.185,4.186,4.185c0.959,0,1.77-0.269,2.475-0.811
			c0.768,0.869,1.89,1.418,3.141,1.418c2.312,0,5.009-1.757,5.161-6.463c15.33-10.017,26.442-12.769,33.088-12.749
			c4.25,0.013,5.636,0.871,6.523,1.675l-0.015,19.982c-4.624,1.94-10.028,7.87-10.712,8.75c-0.797-0.228-3.436-0.312-4.575-0.199
			c0.671-4.578,4.048-9.267,4.39-9.608c0.341-0.341,0.684-1.164-0.114-1.164c-6.374,0.569-9.735,10.397-10.19,12.105
			c-0.569,0.114-3.41,0.599-4.549,0.94c0.683-7.172,4.077-11.186,4.76-11.641c0.683-0.455,0.911-1.138,0-1.138
			c-7.791,0.151-11.055,14.82-11.509,16.755c-1.48,0.569-3.947,2.42-5.086,3.103c-0.556-9.082,3.609-16.279,4.065-16.734
			c0.455-0.455,0.797-1.252-0.227-1.024c-9.423,2.668-9.187,20.292-9.358,22.17c-0.227,1.764-1.484,0.913-1.87,0.72
			c-0.469-0.281-1.019-0.442-1.607-0.442c-1.734,0-3.139,1.406-3.139,3.139c0,0.297,0.041,0.498,0.117,0.77
			c-1.126,0.476-2.052,1.686-2.052,2.987c0,1.733,1.405,3.139,3.139,3.139c0.72,0,1.327-0.202,1.856-0.608
			c0.575,0.652,1.417,1.063,2.355,1.063c1.734,0,3.757-1.318,3.871-4.846c8.225-10.077,22.361-14.787,27.346-14.79
			c8.427-0.006,11.253,2.326,13.086,3.77l0.005,22.746L139.759,266.381z M156.573,340.667c-6.95-11.601-11.871-23.992-13.935-37.106
			l71.421-0.079c7.729,11.153,20.661,20.622,39.137,21.466v15.706L156.573,340.667z M188.769,378.747l64.428-0.147l0.001,44.14
			C231.655,411.354,208.429,396.546,188.769,378.747z"/>
		<path fill="#FFFFFF" d="M317.958,351.379c0.54-2.266,4.014-3.366,4.756-3.697c0.558-0.249,0.756-0.972,0-0.972
			c-5.464-0.722-9.701,2.064-10.457,3.035c-0.755-0.215-4.452-0.486-5.532-0.378c0.607-2.772,5.094-5.303,7.509-7.333
			c-0.351,0.295,0.648-0.864-0.108-0.864c-6.625-0.141-12.325,6.969-12.756,8.588c-0.54,0.108-5.916,1.187-6.996,1.511
			c0.985-6.361,8.878-10.517,9.526-10.948c0.647-0.431,0.863-1.08,0-1.08c-9.08,0.304-16.575,11.529-16.899,14.012
			c-1.403,0.539-4.573,1.633-5.653,2.28c-0.68-7.649,7.932-14.509,7.198-13.776c0.433-0.431,0.755-1.186-0.216-0.971
			c-9.174,1.295-12.864,14.666-13.026,16.447c-0.216,1.672-2.267,1.835-2.632,1.652c-0.446-0.266-0.967-0.419-1.524-0.419
			c-1.644,0-2.977,1.333-2.977,2.976c0,0.281,0.039,0.472,0.112,0.73c-1.069,0.452-1.542,1.329-1.542,2.562
			c0,1.644,1.062,2.976,2.706,2.976c0.683,0,1.124,0.079,1.626-0.307c0.545,0.618,1.344,1.008,2.234,1.008
			c1.643,0,2.482-0.44,2.59-3.786c10.996-5.822,27.051-9.768,34.458-9.37c8.377,0.45,14.632,6.49,15.28,7.03
			c0.648,0.539,1.187,0.539,1.079-0.324C326.175,358.509,323.86,354.86,317.958,351.379z"/>
		<path fill="#FFFFFF" d="M299.86,377.376c0.37-1.551,1.734-2.472,2.241-2.697c0.382-0.171,0.517-0.665,0-0.665
			c-3.737-0.493-5.623,1.834-6.14,2.498c-0.517-0.148-2.286-0.079-3.025-0.005c0.416-1.896,2.641-4.133,4.292-5.522
			c-0.239,0.202,0.444-0.59-0.073-0.59c-4.532-0.097-9.021,5.947-9.316,7.054c-0.829,0.262-2.937,0.599-3.773,1.033
			c0.674-4.351,3.29-7.109,3.732-7.404c0.443-0.295,0.591-0.739,0-0.739c-6.21,0.207-8.301,8.054-8.522,9.752
			c-0.96,0.369-2.37,0.864-3.108,1.307c-0.963-5.543,2.895-10.009,2.393-9.507c0.295-0.295,0.517-0.812-0.148-0.664
			c-5.655,1.002-6.269,10.369-6.381,11.587c-0.147,1.144-1.55,1.255-1.8,1.13c-0.304-0.182-0.662-0.287-1.043-0.287
			c-1.124,0-2.035,0.911-2.035,2.036c0,0.193,0.027,0.323,0.076,0.499c-0.73,0.309-1.054,0.909-1.054,1.753
			c0,1.125,0.727,2.036,1.851,2.036c0.466,0,0.768,0.054,1.112-0.21c0.373,0.423,0.919,0.69,1.528,0.69
			c1.124,0,2.204-0.47,2.277-2.758c7.656-4.679,17.575-7.441,22.642-7.168c5.729,0.308,9.671,3.006,10.114,3.375
			c0.443,0.369,0.812,0.369,0.738-0.221C306.071,381.326,304.213,379.482,299.86,377.376z"/>
		<path fill="#FFFFFF" d="M295.19,268.175c0.506-1.181,0.337-3.541,0-4.048c1.181-1.012,2.024-3.204,1.349-4.216
			c-0.675-1.012-1.012-2.361-0.675-3.71c-1.18-0.169-2.446-1.18-1.603-1.94c0.844-0.759,2.53-2.53,1.771-4.806
			c0.253-1.434,0.337-3.204-2.108-3.12c-0.084-0.928-0.843-3.963-4.637-1.181c-0.59,0.422-1.265-0.506-0.422-0.759
			c0.843-0.253,5.228-1.686,5.902-3.204c0.674-1.518,0.422-2.277,0.169-2.867c0.337-0.675,0.674-2.024,0.337-2.53
			c-0.337-0.506-1.687-0.422-2.615,1.856c-0.928,2.277-0.674,2.277-3.119,2.699c-2.446,0.421-4.301,0-5.903,2.698
			c-0.506,0.675-0.759,1.433-1.94,2.108c-1.181,0.675-1.855,1.771-2.024,2.699c-0.169,0.928,0.675,2.614,0.506,3.795
			c-0.169,1.181-0.843,3.71,2.277,6.408c1.518,1.686,3.794,3.879,2.108,5.566c-1.687,1.686-3.204-0.085-4.469-0.928
			c-1.265-0.843-5.396-2.108-8.095-1.94c-2.699,0.169-11.552-2.023-13.66-3.794c-2.108-1.771-0.819-2.668,0.253-3.204
			c0.758-0.337,1.265-0.675,1.686-1.517c0.422-0.843,1.097-1.012,1.856-1.012c0.759,0,1.518-0.169,2.193-1.771
			c0.675-1.602,1.35-1.012,2.108-1.181c0.759-0.168,1.265-1.77-0.084-2.277c-1.349-0.506-2.109-1.012-2.024-1.518
			c0.084-0.506,1.012-1.602,2.277-1.686c1.264-0.084,1.349-0.928,1.264-1.602c-0.084-0.675,0-1.096,0.843-1.518
			c0.843-0.422,0.759-1.434-0.675-1.856c-1.432-0.421-3.541-0.928-3.541-1.602c0-0.675,0.928-1.855,1.855-2.192
			c0.927-0.337,1.349-1.771-0.759-1.687c-2.108,0.084-3.288,0.337-3.71-1.012c-0.422-1.349-0.506-2.108,1.687-2.951
			c0.928-0.253,1.181-1.518-0.506-1.434c-1.686,0.084-3.626,0.928-4.216,0.337c-0.59-0.59-0.422-1.096-0.085-1.349
			c0.337-0.253,0.422-1.096-0.422-1.096c-0.416,0-1.426,0.307-2.445,0.508c-1.047,0.206-2.102,0.3-2.53-0.17
			c-0.843-0.928-2.193-1.433-3.289-0.759c-1.096,0.675-1.096,1.687-0.506,2.277c0.59,0.59-0.169,1.518-0.843,0.928
			c-0.674-0.59-0.422-1.012-0.422-1.265s-0.505-1.096-1.096-1.433c-0.59-0.337-0.59-1.265-0.421-1.855
			c0.168-0.59-0.506-1.181-1.518-0.59c-1.012,0.59-1.939,1.602-1.434,3.12c-1.096,0.084-3.879,0.759-3.963,1.602
			c-0.084,0.843,0.337,1.771,0.169,2.108c-0.169,0.337-1.097,0.337-1.603,0.675c-1.433,1.433-3.879,2.782-4.469,3.373
			c-0.59,0.59-1.012,1.181-1.771,2.108c-0.759,0.843-0.826,1.811-0.506,2.277c0.928,1.349,1.686,0.422,2.192,1.181
			c0.506,0.759,0.506,0.928,0.422,1.349c-0.084,0.422,0.928,1.349,2.446,0.085c1.518-1.265,2.614-2.615,3.794-1.181
			c1.181,1.434,0.084,2.277-0.421,3.204c-1.012,1.012-3.373,4.132-4.47,5.06c-1.096,0.928-1.94,3.12-2.361,5.143
			c-0.422,2.024-0.928,2.446-1.349,2.951c-2.024-0.759-4.301-1.687-5.565-2.698c-0.844-0.675-2.698-1.518-3.879,0.169
			c-0.59,0.675-3.627,4.806-4.385,6.577c-0.759,1.77-1.939,1.096-1.939,4.469c0,1.18-0.928,1.686-1.434,3.542
			c-0.084,0.506-1.434,3.625-0.084,4.216c1.349,0.59,2.951-0.169,3.288-1.012c0.338-0.843,0.422-3.458,0.506-4.385
			c0.422-1.265,1.771-2.782,1.94-3.541c0.169-0.759-0.084-1.349,0.422-2.109c0.506-0.759,1.94-2.192,2.446-2.698
			c0.505-0.506,2.276-1.265,3.205,0.759c0.928,2.024,2.529,6.493,5.734,7.842c-1.265,0.675-4.3,1.771-5.902,2.109
			c-1.602,0.337-2.867,0.59-2.193,4.553c0.675,3.963,0.843,5.65,0.59,6.914s-0.337,3.963,2.024,6.071l2.108,2.951
			c0.843,0.759,2.867,1.602,3.035-0.084c0.169-1.686,0.675-3.372-1.012-3.541c-0.59-0.084-2.192-1.434-2.023-2.951
			c0.169-1.518-0.253-2.783-0.928-4.048c-0.675-1.265-0.928-2.698-0.59-3.964c0.337-1.265,1.265-2.023,3.373-1.602
			c1.686,0.59,9.445,2.698,11.805,0.084c1.316,0.97,7.983,3.53,13.408,4.085c1.176,0.121,2.297,0.151,3.288,0.046
			c1.012,1.771,3.12,5.65,4.469,6.746c1.096,1.012,1.518,4.216-0.337,5.903c-1.096,0.843-3.964,3.794-6.324,4.468
			c-0.41,0.117-0.764,0.226-1.096,0.333c-1.579,0.508-2.383,0.954-3.289,1.86c-1.096,1.096-1.771,1.096-2.446,2.53
			c-0.674,1.433-2.192,3.963,0.253,3.963c2.445,0,3.12-1.18,3.289-1.855c0.169-0.675,0-2.108,0.928-2.361
			c0.273-0.075,0.727-0.148,1.265-0.267c1.285-0.283,3.102-0.851,4.469-2.516c1.94-2.361,5.818-3.626,7.336-3.879
			c1.517-0.253,1.686-1.771,1.517-2.529c-0.169-0.759-0.253-2.699,0.675-3.711c1.349,0.337,5.649,1.265,7.674,4.048
			c0.337,0.759,0.421,1.181,0.759,1.686c-0.59,1.012-1.771,1.94-2.193,2.951c-0.422,1.012-0.928,2.699-2.867,4.217
			c-1.94,1.518-3.626,2.445-4.553,3.794c-0.928,1.349-1.518,2.783-1.349,4.638c0.168,1.855,0.674,0.928,1.517,0.928
			c0.844,0,2.783-0.928,2.867-2.193c0.084-1.264-0.506-1.855,1.265-2.613c1.771-0.759,4.891-3.289,5.566-4.891
			c0.674-1.602,2.698-4.722,4.3-5.65c1.602-0.928,1.265-2.277,0.506-3.626c-0.759-1.349-3.373-4.975-2.867-7.336
			c0.506-2.361,3.289-3.794,4.132-7.42c0.844-3.626,0.337-5.312-0.169-6.577c1.434-0.422,2.277-0.084,4.132,0.759
			C290.468,269.524,294.685,269.355,295.19,268.175z"/>
		<path fill="#FFFFFF" d="M154.59,186.083c0.852,0.967,2.1,1.576,3.489,1.576c2.569,0,5.566-1.952,5.734-7.18
			c17.033-11.131,35.416-15.853,45.197-15.853c9.782,0,17.54,6.24,18.552,7.083c1.012,0.843,1.855,0.843,1.686-0.506
			c-0.843-5.397-8.095-10.288-10.625-11.637c0.843-3.541,5.228-7.42,5.903-8.095s1.181-1.518,0-1.518
			c-7.252,0.506-12.311,6.071-13.492,7.588c-1.181-0.337-5.903-0.337-7.589-0.168c0-6.746,6.746-12.48,7.252-12.986
			c0.506-0.506,1.012-1.349-0.169-1.349c-9.444,0.843-14.672,13.154-15.347,15.684c-0.843,0.169-6.239,1.012-7.926,1.518
			c1.012-10.624,8.601-16.696,9.613-17.371c1.012-0.675,1.349-1.686,0-1.686c-12.48,0.337-18.045,18.382-18.551,22.262
			c-2.193,0.843-8.095,3.71-9.782,4.721c-1.349-15.178,9.782-24.116,10.457-24.791c0.674-0.675,1.181-1.856-0.337-1.518
			c-14.335,2.024-18.046,26.815-18.299,29.598c-0.337,2.614-2.698,1.602-3.269,1.316c-0.697-0.416-1.511-0.655-2.381-0.655
			c-2.569,0-4.65,2.082-4.65,4.651c0,0.439,0.061,0.737,0.174,1.141c-1.669,0.706-3.042,2.498-3.042,4.424
			c0,2.569,2.082,4.651,4.651,4.651C152.905,186.984,153.806,186.686,154.59,186.083z"/>
		<path fill="#FFFFFF" d="M236.67,99.331c0.009-6.067-3.88-6.97-8.305-6.614l-24.172,1.611l0.637,23.281l5.8-0.274l-0.159-9.311
			l16.101-1.048c3.17-0.22,5.039,1.913,5.046,5.322l-0.004,3.423l5.828-0.281l0.007-3.896c0.021-3.669-1.118-6.197-2.337-7.146
			C236.047,102.825,236.668,101.064,236.67,99.331z M227.58,101.881l-17.268,0.965l-0.075-3.699l17.49-0.92
			c1.354,0.036,1.914,0.52,1.971,1.753C229.755,101.214,228.777,101.788,227.58,101.881z"/>
		<path fill="#FFFFFF" d="M156.478,103.07l-24.032,5.397l1.686,23.442l5.818-1.349l-0.758-9.276l20.153-4.553
			c3.794-0.843,4.807-3.12,4.638-8.517C163.814,102.817,159.514,102.395,156.478,103.07z M155.635,112.176l-16.781,3.71
			l-0.169-3.457c0,0,14.504-3.288,16.191-3.626c1.687-0.337,2.296,0.51,2.361,1.096
			C157.321,110.659,157.068,111.839,155.635,112.176z"/>
		<path fill="#FFFFFF" d="M200.664,101.72c0-4.384-5.313-5.987-7.674-5.565l-19.479,3.204c-5.986,0.928-5.902,4.132-5.902,6.324
			l0.253,10.625c0.169,6.071,5.396,6.577,8.601,5.987l18.046-2.866c6.325-0.928,6.493-4.048,6.409-6.409L200.664,101.72z
			 M191.978,114.453l-14.756,2.361c-2.024,0.337-3.373,0.422-3.541-2.192l-0.169-6.324c0-1.77-0.084-3.457,3.036-4.047l14.925-2.53
			c1.602-0.253,3.288,0.928,3.288,2.53l0.169,6.914C194.929,112.261,194.423,114.031,191.978,114.453z"/>
		<path fill="#FFFFFF" d="M265.678,110.241h-9.782h-13.998v5.055h13.998h12.479c1.687,0,6.113,0.253,6.113-7.04
			c0-7.294-4.975-6.957-6.113-6.957l-12.479,0.002l-6.072,0.001c-1.12,0-2.027-0.908-2.027-2.027c0-1.12,0.908-2.028,2.027-2.028
			h6.072h17.707v-5.056h-17.707h-8.854c-1.349,0-5.902,0.295-5.86,7.168c0.042,6.872,4.848,6.999,5.86,6.999l8.854-0.002
			l9.782-0.002c1.119,0,2.027,0.908,2.027,2.028C267.704,109.501,266.797,110.241,265.678,110.241z"/>
		<polygon fill="#FFFFFF" points="320.066,109.478 339.629,113.189 338.954,122.97 344.52,123.982 345.953,100.118 340.472,99.106 
			339.881,108.382 320.319,104.672 320.824,95.902 315.259,95.059 313.826,119.007 319.391,119.766 		"/>
		<polygon fill="#FFFFFF" points="376.563,125.584 355.65,121.115 355.903,116.308 376.9,120.778 377.237,115.971 356.24,111.502 
			356.409,107.117 377.575,111.587 377.912,106.78 351.097,101.13 349.747,124.741 376.141,130.39 		"/>
		<path fill="#FFFFFF" d="M284.312,115.971l24.623,1.855l0.253-5.228l-20.575-1.518c-1.939-0.084-4.048-0.674-3.879-4.216
			l0.169-5.059c0.084-2.024,0.759-3.879,3.963-3.626l21.081,1.686l0.253-5.228l-24.706-1.939c-2.109-0.169-6.156-0.337-6.494,6.577
			c-0.337,6.914-0.505,10.035-0.505,10.035C278.41,111.671,279.844,115.633,284.312,115.971z"/>
		<path fill="#FFFFFF" d="M219.171,214.748c-1.332,0-1.99-0.59-2.243-2.024h-1.99c0.067,1.13,0.202,1.687,0.59,2.31
			c0.691,1.181,1.889,1.771,3.575,1.771c1.214,0,1.99-0.253,2.682-0.876c0.827-0.743,1.265-1.771,1.265-2.935
			c0-1.653-0.624-2.429-2.057-3.087l-3.17-1.467c-0.455-0.219-0.709-0.54-0.709-0.928c0-0.826,0.726-1.417,1.738-1.417
			c1.13,0,1.686,0.556,1.889,1.906h2.024c-0.101-2.564-1.501-3.964-3.946-3.964c-2.226,0-3.693,1.484-3.693,3.727
			c0,1.501,0.607,2.429,1.956,3.053l3.087,1.434c0.641,0.304,0.894,0.607,0.894,1.063
			C221.061,214.158,220.285,214.748,219.171,214.748z"/>
		<polygon fill="#FFFFFF" points="226.826,216.569 228.901,216.569 228.901,206.5 231.886,206.5 231.886,204.274 223.773,204.274 
			223.773,206.5 226.826,206.5 		"/>
		<path fill="#FFFFFF" d="M237.383,216.805c3.238,0,4.065-2.142,4.065-4.942v-7.589h-2.074v7.539c0,2.024-0.539,2.766-2.024,2.766
			c-1.4,0-1.956-0.776-1.956-2.766v-7.539h-2.075v7.589C233.318,214.697,234.162,216.805,237.383,216.805z"/>
		<polygon fill="#FFFFFF" points="245.593,216.569 247.667,216.569 247.667,206.5 250.652,206.5 250.652,204.274 242.54,204.274 
			242.54,206.5 245.593,206.5 		"/>
		<path fill="#FFFFFF" d="M264.11,216.805c1.264,0,2.226-0.556,3.018-1.788l0.202,1.552h1.434v-6.662h-4.183v2.109h2.277
			c-0.27,1.652-1.131,2.563-2.429,2.563c-1.703,0-2.817-1.636-2.817-4.149c0-2.563,1.08-4.166,2.817-4.166
			c1.13,0,1.804,0.59,2.209,1.922h2.125c-0.304-2.614-1.923-4.149-4.351-4.149c-2.985,0-4.942,2.58-4.942,6.493
			C259.471,214.208,261.394,216.805,264.11,216.805z"/>
		<path fill="#FFFFFF" d="M272.81,213.989h3.66l0.691,2.58h2.26l-3.559-12.295h-2.344l-3.592,12.295h2.176L272.81,213.989z
			 M274.649,207.091l1.265,4.789h-2.53L274.649,207.091z"/>
		<path fill="#FFFFFF" d="M282.656,211.712h1.906c1.923,0,1.669,1.113,1.72,2.918c0.017,1.096,0.051,1.265,0.253,1.939h2.294
			c-0.321-0.37-0.371-0.675-0.438-2.664c-0.085-2.378-0.203-2.716-1.181-3.238c1.08-0.708,1.433-1.434,1.433-2.85
			c0-1.214-0.371-2.193-1.045-2.833c-0.607-0.556-1.147-0.708-2.58-0.708h-4.435v12.295h2.074V211.712z M282.656,206.5h1.973
			c1.434,0,1.872,0.354,1.872,1.551s-0.455,1.585-1.872,1.585h-1.973V206.5z"/>
		<polygon fill="#FFFFFF" points="292.856,216.569 294.931,216.569 294.931,206.5 297.916,206.5 297.916,204.274 289.804,204.274 
			289.804,206.5 292.856,206.5 		"/>
		<polygon fill="#FFFFFF" points="254.7,216.569 255.896,216.569 256.774,216.569 256.774,206.5 259.759,206.5 259.759,204.274 
			255.896,204.274 251.647,204.274 251.647,206.5 254.7,206.5 		"/>
	</g>
</g>
</svg>
