<?xml version="1.0" encoding="utf-8"?>
<!-- Generator: Adobe Illustrator 18.0.0, SVG Export Plug-In . SVG Version: 6.00 Build 0)  -->
<!DOCTYPE svg PUBLIC "-//W3C//DTD SVG 1.1//EN" "http://www.w3.org/Graphics/SVG/1.1/DTD/svg11.dtd">
<svg version="1.1" id="Warstwa_1" xmlns="http://www.w3.org/2000/svg" xmlns:xlink="http://www.w3.org/1999/xlink" x="0px" y="0px"
	 width="512px" height="512px" viewBox="0 0 512 512" enable-background="new 0 0 512 512" xml:space="preserve">
<g>
	<path fill="#FDE9B0" d="M406.081,44.913c4.254-10.36,4.173-18.292-0.395-23.681c-6.887-8.121-14.528-12.24-22.72-12.24
		c-11.239,0-19.559,7.868-22.461,11.029c-5.196-2.179-10.48-4.191-15.85-6.034c-14.472-7.459-30.974-11.72-48.498-11.72
		c-0.399,0-0.785,0.053-1.182,0.058C283.726,0.834,272.263,0,260.597,0C121.97,0,9.19,108.775,9.19,242.477
		c0,32.44,6.688,63.39,18.725,91.698c-18.133,14.433-26.671,34.748-27.209,36.07c-1.546,3.819-0.488,8.693,2.515,11.58
		l11.062,10.672c1.495,1.442,3.336,2.206,5.319,2.206c3.38,0,5.677-2.267,5.93-2.548c6.266-6.031,12.893-9.09,19.704-9.09
		c4.977,0,9.555,1.64,13.482,3.745c1.468,1.905,3.006,3.756,4.53,5.618c-0.279,0.906-0.464,1.54-0.535,1.792
		c-0.862,2.429-1.201,7.614,2.997,11.662l0.963,0.929c-7.015,1.267-13.475,4.501-18.63,9.475
		c-28.508,27.49-36.634,76.972-36.963,79.065l-1.042,6.557l6.757-1.237c2.262-0.412,55.685-10.431,81.804-35.623
		c5.157-4.971,8.508-11.202,9.823-17.967l2.431,2.345c0.314,0.296,0.63,0.568,0.954,0.822c2.113,1.653,4.669,2.527,7.394,2.527
		c1.939,0,3.361-0.449,3.361-0.468c0.68-0.18,3.542-0.965,7.963-2.4c4.161,2.436,8.423,4.721,12.737,6.927
		c1.618,3.146,2.864,6.65,3.063,10.439c0.361,6.966-2.8,13.734-9.219,19.946c-0.64,0.559-2.737,2.622-2.819,5.707
		c-0.051,1.956,0.76,3.841,2.287,5.313l11.062,10.669c2.015,1.937,5.062,3.092,8.154,3.092c1.375,0,2.674-0.226,3.858-0.675
		c1.31-0.494,27.685-10.749,42.468-33.064c18.779,4.333,38.344,6.693,58.48,6.693C399.223,484.954,512,376.178,512,242.477
		C512,161.04,470.117,88.907,406.081,44.913z"/>
	<g>
		<path fill="#FDE9B0" d="M202.625,101.864c0,20.146,6.966,38.707,18.582,53.738c9.653,2.644,22.511-0.278,37.957-8.643
			c-18.072-13.918-29.681-35.311-29.681-59.35c0-38.783,30.156-70.715,69.075-75.325c-1.331-0.204-2.672-0.371-4.01-0.553
			C243.721,12.573,202.625,52.646,202.625,101.864z"/>
		<path fill="#FDE9B0" d="M401.843,53.517c-2.396,4.263-5.393,8.86-8.965,13.778c4.16,10.788,6.546,22.402,6.546,34.57
			c0,54.921-46.324,99.6-103.267,99.6c-14.411,0-28.131-2.882-40.604-8.048c-11.183,6.358-21.4,10.461-29.119,10.461
			c-0.006,0,0,0-0.006,0c-4.543,0-8.395-1.219-11.436-3.624c-8.598-6.786-12.824-14.266-12.557-22.237
			c0.281-8.436,5.638-15.028,9.495-18.73c-11.943-16.248-19.036-36.034-19.036-57.423c0-41.856,26.944-77.697,64.953-92.411
			C125.854,10.887,18.922,114.841,18.922,242.477c0,30.404,6.131,59.436,17.158,86.091c8.764-5.167,19.212-8.731,31.593-8.731
			c9.007,0,18.402,1.97,28.051,5.778c20.447-30.668,51.728-63.654,97.464-80.613l-0.066-0.358l3.878-1.335
			c14.788-5.084,42.766-13.615,64.023-13.615c11.284,0,19.565,2.469,24.608,7.336c16.087,15.512,2.832,60.219-6.507,85.487
			l-1.381,3.743l-0.202-0.035c-15.833,39.801-45.184,68.24-74.131,87.939c9.165,18.229,10.942,35.435,5.267,51.251
			c-0.53,1.476-1.165,2.877-1.799,4.276c17.29,3.802,35.254,5.877,53.721,5.877c133.26,0,241.672-104.565,241.672-233.091
			C502.268,164.784,462.615,95.894,401.843,53.517z M100.023,235.987l-6.289,11.09l-6.288-11.09l-11.498-6.065l11.498-6.065
			l6.288-11.09l6.289,11.09l11.498,6.065L100.023,235.987z M140.685,134.658l-3.278,5.78l-3.278-5.78l-5.993-3.162l5.993-3.161
			l3.278-5.78l3.278,5.78l5.993,3.161L140.685,134.658z M307.313,413.514l-6.289,11.09l-6.288-11.09l-11.498-6.065l11.498-6.065
			l6.288-11.089l6.289,11.089l11.498,6.065L307.313,413.514z M341.793,325.31l-1.541,2.718l-1.541-2.718l-2.818-1.486l2.818-1.486
			l1.541-2.718l1.541,2.718l2.818,1.486L341.793,325.31z M389.48,381.985l-4.711,8.309l-4.711-8.309l-8.614-4.544l8.614-4.544
			l4.711-8.309l4.711,8.309l8.614,4.544L389.48,381.985z M436.509,293.196l-6.288-11.09l-11.498-6.065l11.498-6.065l6.288-11.089
			l6.288,11.089l11.498,6.065l-11.498,6.065L436.509,293.196z"/>
		<path fill="#35464E" d="M406.081,44.913c4.254-10.36,4.173-18.292-0.395-23.681c-6.887-8.121-14.528-12.24-22.72-12.24
			c-11.238,0-19.559,7.868-22.461,11.029c-5.195-2.179-10.48-4.191-15.85-6.034c-14.472-7.459-30.974-11.72-48.498-11.72
			c-0.399,0-0.784,0.053-1.182,0.058C283.726,0.834,272.263,0,260.597,0C121.97,0,9.19,108.775,9.19,242.477
			c0,32.44,6.688,63.39,18.725,91.698c-18.133,14.433-26.671,34.748-27.209,36.07c-1.546,3.819-0.488,8.693,2.515,11.58
			l11.062,10.673c1.495,1.442,3.336,2.206,5.319,2.206c3.38,0,5.677-2.267,5.93-2.548c6.266-6.031,12.893-9.09,19.704-9.09
			c4.977,0,9.555,1.64,13.482,3.745c1.468,1.905,3.006,3.756,4.53,5.618c-0.279,0.906-0.464,1.54-0.535,1.792
			c-0.862,2.429-1.201,7.614,2.997,11.662l0.963,0.929c-7.014,1.267-13.475,4.501-18.63,9.475
			c-28.508,27.489-36.633,76.972-36.963,79.065l-1.042,6.557l6.757-1.237c2.262-0.412,55.685-10.431,81.804-35.623
			c5.157-4.971,8.508-11.202,9.822-17.967l2.431,2.345c0.314,0.296,0.63,0.568,0.954,0.822c2.113,1.653,4.669,2.527,7.394,2.527
			c1.939,0,3.361-0.449,3.361-0.467c0.68-0.18,3.542-0.965,7.962-2.4c4.161,2.436,8.423,4.721,12.737,6.927
			c1.618,3.146,2.863,6.65,3.063,10.439c0.361,6.966-2.8,13.734-9.219,19.946c-0.64,0.559-2.737,2.622-2.819,5.707
			c-0.051,1.955,0.76,3.841,2.287,5.313l11.062,10.669c2.015,1.937,5.062,3.092,8.154,3.092c1.375,0,2.674-0.226,3.858-0.675
			c1.31-0.494,27.685-10.749,42.468-33.064c18.779,4.333,38.344,6.692,58.48,6.692C399.223,484.954,512,376.178,512,242.477
			C512,161.04,470.117,88.907,406.081,44.913z M368.584,25.403c2.534-2.518,7.964-7.024,14.382-7.024
			c5.132,0,10.239,2.958,15.181,8.793c6.481,7.645-6.386,34.856-62.015,88.378c-21.903,21.959-84.304,78.946-109.697,78.942
			c-2.275,0-4.004-0.492-5.284-1.503c-6.108-4.824-9.136-9.747-8.99-14.629c0.177-6.01,4.98-11.033,7.622-13.352
			c12.12,2.832,27.06-0.538,44.502-10.034c0,0,1.109-0.608,2.921-1.674c6.399-3.679,13.077-8.112,19.799-13.144
			c13.654-9.951,33.884-26.573,52.961-49.546C362.995,64.093,372.607,42.18,368.584,25.403z M389.692,101.864
			c0,49.745-41.959,90.214-93.535,90.214c-10.612,0-20.778-1.795-30.294-4.951c10.841-7.048,22.126-15.598,32.654-24.198
			c21.529-17.587,39.855-35.366,44.509-40.847l0.038,0.04c17.92-17.232,32.135-32.433,42.789-45.661
			c0.178,0.584,0.308,1.187,0.475,1.777C388.455,85.782,389.692,93.678,389.692,101.864z M294.547,11.732
			c1.338,0.182,2.679,0.349,4.01,0.553c1.202-0.142,2.412-0.247,3.63-0.337c22.069,1.367,42.038,10.115,57.333,23.75
			c-1.074,12.87-10.223,29.556-27.385,49.344c-18.209,21.916-37.787,37.997-51.047,47.661c-6.456,4.834-12.805,9.05-18.9,12.558
			c-0.83,0.486-1.489,0.865-1.945,1.121l-0.76,0.416c-0.108,0.059-0.21,0.104-0.318,0.163c-15.446,8.365-28.304,11.286-37.957,8.643
			c-11.615-15.031-18.582-33.592-18.582-53.738C202.625,52.646,243.721,12.573,294.547,11.732z M45.238,373.679
			c-9.038,0-17.585,3.618-25.489,10.816l-9.643-9.304c-0.263-0.284-0.456-1.176-0.339-1.522
			c0.184-0.443,18.637-44.447,57.906-44.447c7.271,0,14.929,1.581,22.854,4.535c-11.512,18.696-18.979,35.837-23.246,47.087
			C61.533,377.096,53.961,373.679,45.238,373.679z M99.221,441.855c-0.305,6.25-2.884,12.103-7.501,16.556
			c-18.672,18.005-54.446,27.939-69.64,31.504c3.219-14.263,12.535-47.405,32.845-66.993c4.619-4.457,10.689-6.943,17.169-7.236
			c0.902-0.401,1.825-0.711,2.768-0.979l5.108,4.927L96.105,435.2l4.131,3.985C99.959,440.094,99.637,440.984,99.221,441.855z
			 M119.749,443.327c0,0-0.228,0.061-0.548,0.061c-0.64,0-1.03-0.247-1.489-0.626l-45.12-43.515
			c-0.862-0.834-0.725-1.76-0.583-2.264c0.314-1.094,31.584-107.709,123.196-142.736c0.139,0.484,0.339,1.043,0.498,1.554
			c0.175,0.558,0.339,1.092,0.539,1.68c0.408,1.202,0.893,2.481,1.42,3.808c0.161,0.405,0.285,0.771,0.458,1.187
			c0.737,1.775,1.591,3.651,2.567,5.621c0.214,0.432,0.48,0.898,0.707,1.339c0.802,1.562,1.671,3.164,2.64,4.833
			c0.411,0.708,0.865,1.434,1.308,2.16c0.919,1.507,1.906,3.045,2.971,4.627c0.542,0.805,1.09,1.608,1.672,2.433
			c1.174,1.664,2.458,3.37,3.803,5.106c0.594,0.768,1.147,1.514,1.776,2.295c2.035,2.524,4.207,5.098,6.63,7.752
			c2.698,2.285,5.321,4.337,7.895,6.259c0.837,0.625,1.638,1.171,2.461,1.76c1.726,1.235,3.426,2.421,5.085,3.504
			c0.895,0.585,1.766,1.132,2.641,1.675c1.553,0.963,3.065,1.862,4.549,2.7c0.815,0.46,1.626,0.925,2.419,1.349
			c1.58,0.846,3.097,1.602,4.585,2.314c0.585,0.28,1.193,0.597,1.763,0.857c2.004,0.915,3.922,1.725,5.732,2.419
			c0.379,0.146,0.709,0.247,1.079,0.383c1.439,0.531,2.821,1.014,4.119,1.421c0.564,0.177,1.073,0.319,1.61,0.475
			c0.6,0.175,1.249,0.386,1.814,0.535C231.674,412.727,121.118,442.957,119.749,443.327z M204.31,250.791
			c13.21-4.351,38.287-11.711,56.711-11.711c8.484,0,14.617,1.586,17.727,4.586c8.42,8.121,5.569,35.458-7.375,71.802
			c-9.136-2.27-24.247-8.188-42.31-23.45C212.863,274.232,206.673,259.605,204.31,250.791z M199.495,462.295
			c-9.725,27.211-43.064,40.166-43.387,40.289c0,0-0.101,0.031-0.317,0.031c-0.608,0-1.14-0.235-1.273-0.345l-9.643-9.304
			c7.92-8.072,11.677-16.89,11.164-26.237c-0.509-9.331-5.24-17.185-9.601-22.575c13.264-5.244,30.663-13.231,48.782-24.617
			C202.654,434.948,204.137,449.307,199.495,462.295z M260.597,475.567c-18.467,0-36.431-2.075-53.721-5.877
			c0.635-1.4,1.27-2.8,1.799-4.276c5.675-15.815,3.898-33.021-5.267-51.251c28.947-19.7,58.297-48.138,74.131-87.939l0.202,0.035
			l1.381-3.743c9.339-25.268,22.593-69.975,6.507-85.487c-5.043-4.867-13.324-7.336-24.608-7.336
			c-21.257,0-49.235,8.531-64.023,13.615l-3.878,1.335l0.066,0.358c-45.735,16.959-77.016,49.945-97.464,80.613
			c-9.649-3.809-19.044-5.778-28.051-5.778c-12.38,0-22.829,3.564-31.593,8.731c-11.027-26.655-17.158-55.687-17.158-86.091
			c0-127.636,106.932-231.59,238.924-233.023c-38.009,14.713-64.953,50.554-64.953,92.411c0,21.389,7.093,41.175,19.036,57.423
			c-3.857,3.702-9.214,10.294-9.495,18.73c-0.266,7.972,3.96,15.451,12.557,22.237c3.041,2.405,6.893,3.624,11.436,3.624
			c0.006,0,0,0,0.006,0c7.719,0,17.935-4.104,29.119-10.461c12.472,5.166,26.192,8.048,40.604,8.048
			c56.943,0,103.267-44.679,103.267-99.6c0-12.168-2.386-23.781-6.546-34.57c3.572-4.918,6.57-9.515,8.965-13.778
			c60.772,42.377,100.426,111.267,100.426,188.96C502.268,371.002,393.857,475.567,260.597,475.567z"/>
		<path fill="#FDE9B0" d="M308.235,163.566c-3.298,0-6.527-0.258-9.718-0.637c-10.527,8.6-21.812,17.15-32.654,24.198
			c9.516,3.155,19.682,4.951,30.294,4.951c51.576,0,93.535-40.469,93.535-90.214c0-8.186-1.237-16.082-3.365-23.627
			c0.394,3.078,0.661,6.192,0.661,9.372C386.987,129.559,351.728,163.566,308.235,163.566z"/>
		<path fill="#F4AA41" d="M229.482,87.61c0,24.039,11.61,45.432,29.681,59.35c0.108-0.058,0.21-0.104,0.318-0.163l0.76-0.416
			c0.456-0.257,1.115-0.636,1.945-1.121c6.095-3.508,12.443-7.724,18.9-12.558c13.261-9.664,32.838-25.745,51.047-47.661
			c17.162-19.788,26.311-36.473,27.385-49.344c-15.295-13.634-35.264-22.382-57.333-23.75c-1.218,0.09-2.428,0.195-3.63,0.337
			C259.638,16.895,229.482,48.827,229.482,87.61z"/>
		<path fill="#F4AA41" d="M343.063,122.121l-0.038-0.04c-4.654,5.482-22.979,23.26-44.509,40.847
			c3.191,0.38,6.421,0.637,9.718,0.637c43.494,0,78.753-34.007,78.753-75.957c0-3.18-0.267-6.295-0.661-9.372
			c-0.166-0.589-0.297-1.192-0.475-1.777C375.198,89.688,360.983,104.89,343.063,122.121z"/>
		<polygon fill="#F4AA41" points="301.024,390.294 294.736,401.383 283.238,407.449 294.736,413.514 301.024,424.603 
			307.313,413.514 318.811,407.449 307.313,401.383 		"/>
		<polygon fill="#F4AA41" points="442.797,269.977 436.509,258.887 430.221,269.977 418.723,276.042 430.221,282.107 
			436.509,293.196 442.797,282.107 454.295,276.042 		"/>
		<polygon fill="#F4AA41" points="93.735,212.768 87.446,223.857 75.949,229.922 87.446,235.987 93.735,247.077 100.023,235.987 
			111.521,229.922 100.023,223.857 		"/>
		<polygon fill="#FFFFFF" points="384.769,364.589 380.058,372.897 371.443,377.441 380.058,381.985 384.769,390.294 
			389.48,381.985 398.095,377.441 389.48,372.897 		"/>
		<polygon fill="#FFFFFF" points="137.407,122.555 134.129,128.336 128.136,131.497 134.129,134.658 137.407,140.439 
			140.685,134.658 146.678,131.497 140.685,128.336 		"/>
		<polygon fill="#FFFFFF" points="340.252,319.619 338.711,322.337 335.893,323.823 338.711,325.31 340.252,328.028 341.793,325.31 
			344.611,323.823 341.793,322.337 		"/>
		<path fill="#AEBAC2" d="M287.004,140.154c-6.722,5.032-13.4,9.466-19.799,13.144c-1.812,1.066-2.921,1.674-2.921,1.674
			c-17.442,9.496-32.382,12.866-44.502,10.034c-2.642,2.319-7.445,7.342-7.622,13.352c-0.146,4.883,2.883,9.805,8.99,14.629
			c1.28,1.011,3.009,1.503,5.284,1.503c25.394,0.003,87.795-56.983,109.697-78.942c55.628-53.521,68.496-80.733,62.015-88.378
			c-4.942-5.836-10.049-8.793-15.181-8.793c-6.418,0-11.848,4.507-14.382,7.024c4.023,16.777-5.588,38.691-28.619,65.205
			C320.888,113.582,300.658,130.203,287.004,140.154z"/>
		<path fill="#F4AA41" d="M90.526,333.758c-7.924-2.954-15.582-4.535-22.854-4.535c-39.269,0-57.722,44.004-57.906,44.447
			c-0.117,0.345,0.076,1.237,0.339,1.522l9.643,9.304c7.904-7.199,16.451-10.816,25.489-10.816c8.723,0,16.296,3.417,22.043,7.166
			C71.547,369.595,79.014,352.453,90.526,333.758z"/>
		<path fill="#F4AA41" d="M146.437,444.153c4.361,5.391,9.091,13.244,9.601,22.575c0.513,9.346-3.244,18.164-11.164,26.237
			l9.643,9.304c0.133,0.11,0.665,0.345,1.273,0.345c0.215,0,0.317-0.031,0.317-0.031c0.323-0.122,33.662-13.077,43.387-40.289
			c4.643-12.987,3.16-27.346-4.275-42.758C177.1,430.921,159.701,438.909,146.437,444.153z"/>
		<path fill="#F4AA41" d="M42.512,470.383c0,0,5.24-33.031,23.642-50.779c1.765-1.703,3.798-2.965,5.94-3.917
			c-6.48,0.293-12.55,2.778-17.169,7.236c-20.309,19.588-29.626,52.73-32.845,66.993c15.193-3.566,50.968-13.499,69.64-31.504
			c4.617-4.453,7.196-10.306,7.501-16.556c-0.987,2.065-2.295,4.025-4.059,5.727C78.32,463.825,42.512,470.383,42.512,470.383z"/>
		<path fill="#FDE9B0" d="M93.303,439.376c-10.256,9.892-32.061,13.885-32.061,13.885s3.19-20.115,14.396-30.923
			c1.272-1.227,2.754-2.116,4.331-2.703l-5.108-4.927c-0.942,0.268-1.865,0.578-2.768,0.979c-2.142,0.952-4.174,2.214-5.94,3.917
			c-18.402,17.748-23.642,50.779-23.642,50.779s35.808-6.558,52.649-22.801c1.765-1.702,3.072-3.661,4.059-5.727
			c0.416-0.871,0.738-1.761,1.016-2.671l-4.131-3.985C95.497,436.72,94.575,438.15,93.303,439.376z"/>
		<path fill="#F4AA41" d="M61.242,453.261c0,0,21.805-3.993,32.061-13.885c1.272-1.227,2.194-2.656,2.802-4.177l-16.136-15.564
			c-1.577,0.587-3.059,1.477-4.331,2.703C64.432,433.147,61.242,453.261,61.242,453.261z"/>
		<path fill="#EBEFF0" d="M267.946,324.294c-0.564-0.15-1.214-0.361-1.814-0.535c-0.537-0.156-1.046-0.298-1.61-0.475
			c-1.298-0.408-2.68-0.89-4.119-1.421c-0.37-0.136-0.701-0.238-1.079-0.383c-1.81-0.695-3.728-1.505-5.732-2.419
			c-0.57-0.26-1.178-0.577-1.763-0.857c-1.489-0.712-3.005-1.468-4.585-2.314c-0.793-0.424-1.604-0.889-2.419-1.349
			c-1.484-0.838-2.996-1.737-4.549-2.7c-0.875-0.543-1.745-1.09-2.641-1.675c-1.659-1.083-3.359-2.269-5.085-3.504
			c-0.822-0.589-1.624-1.135-2.461-1.76c-2.574-1.922-5.197-3.973-7.895-6.259c-2.424-2.654-4.595-5.228-6.63-7.752
			c-0.63-0.781-1.182-1.528-1.776-2.295c-1.345-1.736-2.63-3.443-3.803-5.106c-0.582-0.825-1.13-1.627-1.672-2.433
			c-1.064-1.582-2.052-3.12-2.971-4.627c-0.443-0.726-0.897-1.452-1.308-2.16c-0.969-1.669-1.837-3.271-2.64-4.833
			c-0.227-0.441-0.493-0.906-0.707-1.339c-0.977-1.97-1.83-3.846-2.567-5.621c-0.173-0.416-0.297-0.782-0.458-1.187
			c-0.527-1.327-1.012-2.607-1.42-3.808c-0.2-0.589-0.364-1.123-0.539-1.68c-0.16-0.511-0.359-1.07-0.498-1.554
			C103.593,289.273,72.323,395.889,72.009,396.982c-0.143,0.504-0.279,1.43,0.583,2.264l45.12,43.515
			c0.459,0.379,0.849,0.626,1.489,0.626c0.32,0,0.548-0.061,0.548-0.061C121.118,442.957,231.674,412.727,267.946,324.294z
			 M215.087,360.357c-7.698,7.425-17.93,11.513-28.815,11.513c-10.885,0-21.117-4.088-28.815-11.513
			c-7.698-7.422-11.937-17.291-11.937-27.789c0-10.501,4.239-20.37,11.937-27.792c7.698-7.425,17.93-11.513,28.815-11.513
			c10.885,0,21.117,4.088,28.815,11.513c7.698,7.422,11.937,17.291,11.937,27.792C227.023,343.067,222.785,352.936,215.087,360.357z
			"/>
		<path fill="#738792" d="M271.374,315.467c12.944-36.344,15.795-63.681,7.375-71.802c-3.111-3-9.244-4.586-17.727-4.586
			c-18.424,0-43.501,7.36-56.711,11.711c2.363,8.815,8.553,23.441,24.754,41.227C247.127,307.279,262.238,313.197,271.374,315.467z"
			/>
		<path fill="#738792" d="M186.272,296.392c-10.017,0-19.438,3.764-26.522,10.596s-10.986,15.916-10.986,25.58
			c0,9.661,3.903,18.745,10.986,25.577s16.505,10.596,26.522,10.596c10.017,0,19.438-3.764,26.522-10.596
			s10.986-15.916,10.986-25.577c0-9.664-3.903-18.748-10.986-25.58S196.289,296.392,186.272,296.392z M208.556,354.06
			c-12.287,11.852-32.282,11.853-44.57,0.001s-12.287-31.137,0-42.988c12.288-11.852,32.282-11.852,44.571,0
			C220.845,322.925,220.844,342.209,208.556,354.06z"/>
		<path fill="#35464E" d="M186.272,293.264c-10.885,0-21.117,4.088-28.815,11.513c-7.698,7.422-11.937,17.291-11.937,27.792
			c0,10.498,4.239,20.367,11.937,27.789c7.698,7.425,17.93,11.513,28.815,11.513c10.885,0,21.117-4.088,28.815-11.513
			c7.698-7.422,11.937-17.291,11.937-27.789c0-10.501-4.239-20.37-11.937-27.792C207.389,297.352,197.157,293.264,186.272,293.264z
			 M212.793,358.145c-7.083,6.832-16.505,10.596-26.522,10.596c-10.017,0-19.438-3.764-26.522-10.596s-10.986-15.916-10.986-25.577
			c0-9.664,3.903-18.748,10.986-25.58s16.505-10.596,26.522-10.596c10.017,0,19.438,3.764,26.522,10.596s10.986,15.916,10.986,25.58
			C223.78,342.23,219.877,351.313,212.793,358.145z"/>
		<path fill="#36464E" d="M163.986,311.073c-12.287,11.852-12.288,31.136,0,42.988s32.283,11.851,44.57-0.001
			c12.288-11.852,12.289-31.135,0.001-42.988C196.268,299.221,176.274,299.221,163.986,311.073z"/>
	</g>
</g>
</svg>
