<?xml version="1.0" encoding="utf-8"?>
<!-- Generator: Adobe Illustrator 18.0.0, SVG Export Plug-In . SVG Version: 6.00 Build 0)  -->
<!DOCTYPE svg PUBLIC "-//W3C//DTD SVG 1.1//EN" "http://www.w3.org/Graphics/SVG/1.1/DTD/svg11.dtd">
<svg version="1.1" id="Warstwa_1" xmlns="http://www.w3.org/2000/svg" xmlns:xlink="http://www.w3.org/1999/xlink" x="0px" y="0px"
	 width="512px" height="512px" viewBox="0 0 512 512" enable-background="new 0 0 512 512" xml:space="preserve">
<g>
	<path fill="#EBEFF0" d="M256,0C114.839,0,0,114.842,0,256s114.839,256,256,256s256-114.842,256-256S397.161,0,256,0z"/>
	<path fill="#EBEFF0" d="M321.061,293.855c-1.203,17.938-3.256,34.884-6.026,50.536c25.172,8.376,48.028,13.038,65.991,13.038
		c11.813,0,27.058-2.058,32.626-11.861c6.858-12.061-2.387-33.532-25.368-58.9c-7.228-7.981-15.659-16.065-24.894-24.125
		C350.621,273.191,336.4,283.725,321.061,293.855z"/>
	<path fill="#EBEFF0" d="M148.61,262.542c-9.235,8.061-17.667,16.145-24.894,24.125c-22.981,25.368-32.226,46.839-25.368,58.9
		c5.568,9.803,20.813,11.861,32.626,11.861c17.96,0,40.817-4.663,65.991-13.039c-2.77-15.652-4.823-32.599-6.026-50.537
		C175.6,283.724,161.379,273.191,148.61,262.542z"/>
	<path fill="#EBEFF0" d="M267.3,325.238c13.081,6.09,25.956,11.417,38.373,15.901c2.145-12.564,3.842-26.154,4.996-40.656
		c-7.137,4.487-14.402,8.914-21.914,13.181C281.621,317.717,274.455,321.576,267.3,325.238z"/>
	<path fill="#EBEFF0" d="M283.865,206.958c-9.277-5.271-18.595-10.179-27.865-14.765c-9.269,4.585-18.587,9.493-27.865,14.765
		c-9.541,5.421-18.741,11.063-27.637,16.821c-0.581,10.346-0.904,21.084-0.904,32.221c0,11.138,0.323,21.877,0.904,32.224
		c8.896,5.758,18.096,11.4,27.637,16.821c9.277,5.271,18.595,10.179,27.865,14.765c9.269-4.586,18.587-9.493,27.865-14.765
		c9.541-5.421,18.741-11.063,27.638-16.821c0.581-10.347,0.904-21.086,0.904-32.224c0-11.137-0.323-21.875-0.904-32.221
		C302.606,218.021,293.406,212.379,283.865,206.958z M256,285.744c-19.611,0-35.51-15.898-35.51-35.51
		c0-19.612,15.898-35.51,35.51-35.51s35.51,15.898,35.51,35.51C291.51,269.846,275.611,285.744,256,285.744z"/>
	<path fill="#EBEFF0" d="M303.865,161.033C293.214,107.18,274.183,74.681,256,74.681s-37.214,32.5-47.865,86.352
		c15.444,5.5,31.554,12.231,47.863,20.108C272.309,173.264,288.42,166.533,303.865,161.033z"/>
	<path fill="#EBEFF0" d="M288.755,198.342c7.512,4.267,14.777,8.693,21.914,13.18c-1.154-14.502-2.85-28.093-4.996-40.657
		c-12.418,4.484-25.294,9.812-38.376,15.901C274.454,190.429,281.621,194.288,288.755,198.342z"/>
	<path fill="#EBEFF0" d="M129.597,196.615c5.252,4.316,8.672,10.781,8.672,18.11c0,6.99-3.106,13.199-7.945,17.51
		c5.591,5.728,11.7,11.477,18.286,17.226c12.769-10.648,26.99-21.182,42.329-31.312c1.202-17.937,3.256-34.883,6.026-50.536
		c-25.175-8.377-48.033-13.039-65.997-13.039c-11.806,0-27.052,2.055-32.619,11.858c-3.894,6.85-2.583,16.737,3.471,28.643
		c3.71-2.443,8.139-3.886,12.913-3.886C120.403,191.189,125.534,193.276,129.597,196.615z"/>
	<path fill="#EBEFF0" d="M201.331,300.481c1.154,14.502,2.851,28.093,4.996,40.657c12.417-4.484,25.294-9.812,38.375-15.901
		c-7.156-3.663-14.323-7.522-21.457-11.576C215.733,309.394,208.468,304.968,201.331,300.481z"/>
	<path fill="#EBEFF0" d="M189.684,256c0-8.633,0.208-17.095,0.575-25.395c-12.177,8.294-23.662,16.795-34.063,25.396
		c10.4,8.601,21.886,17.103,34.063,25.397C189.893,273.098,189.684,264.634,189.684,256z"/>
	<path fill="#EBEFF0" d="M355.804,256.002c-10.4-8.601-21.886-17.103-34.063-25.396c0.367,8.3,0.575,16.762,0.575,25.395
		c0,8.634-0.209,17.098-0.575,25.398C333.918,273.104,345.404,264.603,355.804,256.002z"/>
	<path fill="#EBEFF0" d="M233.036,381.596c5.252,4.316,8.672,10.781,8.672,18.11c0,7.859-3.889,14.772-9.808,19.047
		c7.654,12.017,15.96,18.567,24.1,18.567c18.183,0,37.212-32.498,47.865-86.349c-15.444-5.5-31.553-12.231-47.862-20.108
		c-16.311,7.877-32.422,14.608-47.867,20.108c1.814,9.169,3.867,17.719,6.121,25.594c1.28-0.216,2.574-0.395,3.916-0.395
		C223.842,376.17,228.973,378.256,233.036,381.596z"/>
	<path fill="#EBEFF0" d="M256,9.91C120.303,9.91,9.91,120.306,9.91,256S120.303,502.09,256,502.09S502.09,391.694,502.09,256
		S391.697,9.91,256,9.91z M395.632,280.013c26.413,29.171,35.877,54.19,26.639,70.452c-6.271,11.039-20.535,16.874-41.245,16.874
		c-18.599,0-42.081-4.712-67.842-13.175c-11.431,56.128-32.531,93.065-57.184,93.065c-12.07,0-23.281-8.894-32.932-24.514
		c-1.581,0.335-3.215,0.525-4.895,0.525c-2.478,0-4.821-0.489-7.064-1.199c-9.523-3.015-16.472-11.817-16.472-22.337
		c0-8.192,4.195-15.392,10.544-19.607c-2.363-8.08-4.494-16.746-6.365-25.934c-25.761,8.463-49.243,13.175-67.842,13.175
		c-20.71,0-34.974-5.835-41.245-16.874c-9.239-16.261,0.226-41.281,26.639-70.452c7.202-7.951,15.546-15.994,24.665-24.012
		c-7.135-6.274-13.692-12.553-19.675-18.803c-2.115,0.624-4.308,1.062-6.624,1.062c-2.478,0-4.821-0.489-7.064-1.199
		c-9.523-3.015-16.472-11.817-16.472-22.337c0-4.473,1.317-8.609,3.483-12.17c-9.058-16.472-10.892-30.564-4.951-41.019
		c6.271-11.039,20.535-16.871,41.239-16.871c18.602,0,42.086,4.712,67.848,13.175c11.431-56.13,32.531-93.069,57.185-93.069
		s45.754,36.938,57.185,93.068c9.413-3.092,18.524-5.695,27.197-7.731c1.906-11.085,11.504-19.539,23.133-19.539
		c5.67,0,10.801,2.087,14.864,5.426c2.866,2.355,5.108,5.389,6.625,8.814c18.519,0.722,31.415,6.422,37.268,16.726
		c9.239,16.261-0.226,41.284-26.639,70.452c-7.202,7.952-15.546,15.996-24.665,24.014
		C380.087,264.019,388.43,272.062,395.632,280.013z"/>
	<path fill="#EBEFF0" d="M363.515,177.64c-2.478,0-4.821-0.488-7.064-1.198c-7.627-2.414-13.533-8.569-15.61-16.317
		c-8.225,1.987-16.877,4.518-25.805,7.488c2.77,15.652,4.823,32.6,6.026,50.537c15.339,10.129,29.56,20.663,42.329,31.31
		c9.235-8.061,17.666-16.144,24.894-24.125c22.981-25.368,32.226-46.839,25.368-58.903c-4.668-8.219-16.128-10.962-26.671-11.643
		C386.61,167.464,376.279,177.64,363.515,177.64z"/>
	<path fill="#EBEFF0" d="M244.7,186.765c-13.081-6.089-25.956-11.417-38.374-15.9c-2.145,12.564-3.842,26.154-4.996,40.655
		c7.137-4.488,14.402-8.914,21.915-13.181C230.379,194.286,237.544,190.427,244.7,186.765z"/>
	<path fill="#35464E" d="M256,0C114.839,0,0,114.842,0,256s114.839,256,256,256s256-114.842,256-256S397.161,0,256,0z M256,502.09
		C120.303,502.09,9.91,391.694,9.91,256S120.303,9.91,256,9.91S502.09,120.306,502.09,256S391.697,502.09,256,502.09z"/>
	<path fill="#36464E" d="M395.632,231.987c26.413-29.168,35.877-54.19,26.639-70.452c-5.854-10.304-18.749-16.004-37.268-16.726
		c1.263,2.853,2.047,5.966,2.047,9.296c0,0.234-0.062,0.452-0.069,0.684c10.543,0.681,22.003,3.424,26.671,11.643
		c6.858,12.065-2.387,33.535-25.368,58.903c-7.227,7.981-15.658,16.064-24.894,24.125c-12.769-10.648-26.99-21.181-42.329-31.31
		c-1.203-17.938-3.256-34.885-6.026-50.537c8.927-2.971,17.579-5.501,25.805-7.488c-0.517-1.927-0.861-3.925-0.861-6.02
		c0-1.369,0.179-2.692,0.403-3.996c-8.673,2.036-17.784,4.638-27.197,7.731c-11.431-56.13-32.531-93.068-57.185-93.068
		s-45.754,36.938-57.185,93.069c-25.762-8.463-49.246-13.175-67.848-13.175c-20.703,0-34.968,5.832-41.239,16.871
		c-5.94,10.456-4.106,24.547,4.951,41.019c1.817-2.987,4.225-5.56,7.14-7.48c-6.055-11.906-7.365-21.793-3.471-28.643
		c5.568-9.803,20.813-11.858,32.619-11.858c17.963,0,40.822,4.662,65.997,13.039c-2.77,15.652-4.823,32.599-6.026,50.536
		c-15.339,10.13-29.56,20.663-42.329,31.312c-6.586-5.749-12.695-11.498-18.286-17.226c-2.556,2.277-5.596,3.97-8.967,4.964
		c5.983,6.25,12.54,12.529,19.675,18.803c-9.119,8.018-17.462,16.06-24.665,24.012c-26.413,29.171-35.877,54.19-26.639,70.452
		c6.271,11.039,20.535,16.874,41.245,16.874c18.599,0,42.081-4.712,67.842-13.175c1.871,9.188,4.002,17.854,6.365,25.934
		c2.685-1.783,5.769-2.977,9.076-3.534c-2.255-7.875-4.308-16.425-6.121-25.594c15.445-5.5,31.556-12.231,47.867-20.108
		c16.309,7.877,32.419,14.608,47.862,20.108c-10.652,53.851-29.681,86.349-47.865,86.349c-8.14,0-16.446-6.55-24.1-18.567
		c-2.605,1.881-5.578,3.274-8.832,3.963c9.652,15.62,20.862,24.514,32.932,24.514c24.653,0,45.753-36.938,57.184-93.065
		c25.761,8.463,49.243,13.175,67.842,13.175c20.71,0,34.974-5.835,41.245-16.874c9.239-16.261-0.226-41.281-26.639-70.452
		c-7.202-7.951-15.546-15.994-24.665-24.012C380.087,247.983,388.43,239.94,395.632,231.987z M190.259,230.605
		c-0.367,8.3-0.575,16.762-0.575,25.395c0,8.634,0.209,17.098,0.575,25.398c-12.177-8.294-23.663-16.796-34.063-25.397
		C166.596,247.4,178.082,238.899,190.259,230.605z M130.974,357.429c-11.813,0-27.058-2.058-32.626-11.861
		c-6.858-12.061,2.387-33.532,25.368-58.9c7.228-7.981,15.659-16.065,24.894-24.125c12.768,10.649,26.99,21.182,42.328,31.311
		c1.203,17.938,3.256,34.884,6.026,50.537C171.791,352.767,148.934,357.429,130.974,357.429z M310.669,211.522
		c-7.137-4.487-14.402-8.913-21.914-13.18c-7.134-4.054-14.3-7.913-21.457-11.576c13.082-6.09,25.958-11.417,38.376-15.901
		C307.819,183.429,309.516,197.02,310.669,211.522z M256,74.681c18.183,0,37.214,32.5,47.865,86.352
		c-15.445,5.5-31.556,12.231-47.867,20.108c-16.309-7.877-32.419-14.608-47.863-20.108C218.786,107.181,237.817,74.681,256,74.681z
		 M206.326,170.865c12.417,4.484,25.293,9.811,38.374,15.9c-7.156,3.662-14.321,7.521-21.455,11.573
		c-7.512,4.268-14.778,8.694-21.915,13.181C202.484,197.019,204.181,183.429,206.326,170.865z M206.327,341.138
		c-2.145-12.564-3.842-26.156-4.996-40.657c7.137,4.487,14.402,8.913,21.914,13.18c7.134,4.054,14.3,7.913,21.457,11.576
		C231.62,331.327,218.744,336.654,206.327,341.138z M305.673,341.139c-12.417-4.484-25.292-9.811-38.373-15.901
		c7.156-3.662,14.322-7.521,21.455-11.574c7.512-4.268,14.777-8.694,21.914-13.181C309.515,314.985,307.818,328.575,305.673,341.139
		z M311.502,288.224c-8.896,5.758-18.096,11.4-27.638,16.821c-9.277,5.271-18.595,10.179-27.865,14.765
		c-9.269-4.586-18.587-9.493-27.865-14.765c-9.541-5.421-18.741-11.063-27.637-16.821c-0.581-10.347-0.904-21.086-0.904-32.224
		c0-11.137,0.323-21.875,0.904-32.221c8.896-5.758,18.096-11.4,27.637-16.821c9.277-5.271,18.595-10.179,27.865-14.765
		c9.269,4.585,18.587,9.493,27.865,14.765c9.541,5.421,18.741,11.063,27.638,16.821c0.581,10.346,0.904,21.084,0.904,32.221
		C312.406,267.138,312.083,277.877,311.502,288.224z M321.741,230.605c12.177,8.294,23.663,16.795,34.063,25.396
		c-10.4,8.601-21.886,17.103-34.063,25.397c0.367-8.301,0.575-16.764,0.575-25.398C322.316,247.367,322.108,238.905,321.741,230.605
		z M388.284,286.668c22.981,25.368,32.226,46.839,25.368,58.9c-5.568,9.803-20.813,11.861-32.626,11.861
		c-17.963,0-40.819-4.662-65.991-13.038c2.77-15.652,4.823-32.599,6.026-50.536c15.338-10.13,29.56-20.664,42.328-31.313
		C372.625,270.603,381.056,278.687,388.284,286.668z"/>
	<path fill="#F4AA41" d="M256,214.725c-19.611,0-35.51,15.898-35.51,35.51c0,19.611,15.898,35.51,35.51,35.51
		s35.51-15.898,35.51-35.51C291.51,230.623,275.611,214.725,256,214.725z M241.75,255.585c0.667,0,1.207,0.541,1.207,1.207
		c0,0.667-0.541,1.207-1.207,1.207c-0.667,0-1.207-0.54-1.207-1.207C240.543,256.125,241.083,255.585,241.75,255.585z
		 M237.903,244.608c1.458,0,2.64,1.181,2.64,2.639c0,1.458-1.182,2.639-2.64,2.639s-2.639-1.181-2.639-2.639
		C235.264,245.789,236.446,244.608,237.903,244.608z M232.625,262.105c-2.267,0-4.106-1.838-4.106-4.106
		c0-2.267,1.838-4.105,4.106-4.105s4.105,1.838,4.105,4.105C236.73,260.267,234.892,262.105,232.625,262.105z M243.279,277.549
		c-3.077,0-5.572-2.494-5.572-5.572c0-3.077,2.495-5.572,5.572-5.572c3.077,0,5.572,2.495,5.572,5.572
		C248.851,275.055,246.357,277.549,243.279,277.549z M251.854,264.004c-1.658,0-3.003-1.344-3.003-3.002
		c0-1.658,1.344-3.003,3.003-3.003c1.658,0,3.002,1.344,3.002,3.003C254.856,262.66,253.512,264.004,251.854,264.004z
		 M257.957,274.623c-0.667,0-1.207-0.541-1.207-1.207c0-0.667,0.541-1.207,1.207-1.207c0.667,0,1.207,0.54,1.207,1.207
		C259.164,274.083,258.624,274.623,257.957,274.623z M267.033,264.744c-1.458,0-2.639-1.181-2.639-2.639
		c0-1.458,1.181-2.639,2.639-2.639c1.458,0,2.64,1.181,2.64,2.639C269.672,263.563,268.49,264.744,267.033,264.744z"/>
	<path fill="#FFE39B" d="M129.597,196.615c-4.063-3.339-9.194-5.426-14.864-5.426c-4.775,0-9.203,1.443-12.913,3.886
		c-2.915,1.919-5.323,4.493-7.14,7.48c-2.166,3.56-3.483,7.697-3.483,12.17c0,10.52,6.949,19.322,16.472,22.337
		c2.243,0.71,4.585,1.199,7.064,1.199c2.317,0,4.51-0.438,6.624-1.062c3.37-0.994,6.411-2.687,8.967-4.964
		c4.838-4.311,7.945-10.52,7.945-17.51C138.269,207.396,134.849,200.931,129.597,196.615z"/>
	<path fill="#36464E" d="M233.036,381.596c-4.063-3.339-9.194-5.426-14.864-5.426c-1.342,0-2.635,0.179-3.916,0.395
		c-3.306,0.557-6.39,1.751-9.076,3.534c-6.349,4.215-10.544,11.415-10.544,19.607c0,10.52,6.949,19.322,16.472,22.337
		c2.243,0.71,4.585,1.199,7.064,1.199c1.681,0,3.315-0.191,4.895-0.525c3.254-0.689,6.227-2.082,8.832-3.963
		c5.919-4.275,9.808-11.188,9.808-19.047C241.708,392.376,238.288,385.912,233.036,381.596z"/>
	<path fill="#F4AA41" d="M385.003,144.809c-1.517-3.425-3.759-6.459-6.625-8.814c-4.063-3.339-9.194-5.426-14.864-5.426
		c-11.629,0-21.227,8.454-23.133,19.539c-0.224,1.305-0.403,2.627-0.403,3.996c0,2.095,0.345,4.093,0.861,6.02
		c2.077,7.748,7.984,13.903,15.611,16.317c2.243,0.71,4.585,1.198,7.064,1.198c12.764,0,23.096-10.177,23.467-22.851
		c0.007-0.233,0.069-0.45,0.069-0.684C387.05,150.775,386.266,147.662,385.003,144.809z"/>
	<circle fill="#FDE9B0" cx="243.279" cy="271.977" r="5.572"/>
	<circle fill="#FDE9B0" cx="232.625" cy="257.999" r="4.105"/>
	<circle fill="#FDE9B0" cx="237.903" cy="247.247" r="2.639"/>
	<circle fill="#FDE9B0" cx="267.033" cy="262.105" r="2.639"/>
	<circle fill="#FDE9B0" cx="251.854" cy="261.002" r="3.003"/>
	<circle fill="#FDE9B0" cx="257.957" cy="273.416" r="1.207"/>
	<circle fill="#FDE9B0" cx="241.75" cy="256.792" r="1.207"/>
	<path fill="#2B3A3F" d="M225.972,380.397c2.478,0,4.821,0.488,7.064,1.199c-4.063-3.339-9.194-5.426-14.864-5.426
		c-1.342,0-2.635,0.179-3.916,0.395c-3.306,0.557-6.39,1.751-9.076,3.534c-6.349,4.215-10.544,11.415-10.544,19.607
		c0,10.52,6.949,19.322,16.472,22.337c-5.252-4.317-8.672-10.781-8.672-18.11C202.437,390.934,212.974,380.397,225.972,380.397z"/>
	<path fill="#36464E" d="M241.708,399.705c0-7.329-3.42-13.794-8.672-18.11c-2.244-0.71-4.586-1.199-7.064-1.199
		c-12.998,0-23.535,10.537-23.535,23.535c0,7.329,3.42,13.793,8.672,18.11c2.243,0.71,4.585,1.199,7.064,1.199
		c1.681,0,3.315-0.191,4.895-0.525c3.254-0.69,6.227-2.082,8.832-3.963C237.819,414.477,241.708,407.564,241.708,399.705z"/>
	<g>
		<path fill="#FFD571" d="M122.533,195.416c2.478,0,4.821,0.488,7.064,1.199c-4.063-3.339-9.194-5.426-14.864-5.426
			c-4.775,0-9.203,1.443-12.913,3.886c-2.915,1.919-5.323,4.493-7.14,7.48c-2.166,3.56-3.483,7.697-3.483,12.17
			c0,10.52,6.949,19.322,16.472,22.337c-5.252-4.317-8.672-10.781-8.672-18.11C98.997,205.953,109.534,195.416,122.533,195.416z"/>
		<path fill="#FFE39B" d="M138.269,214.725c0-7.329-3.42-13.794-8.672-18.11c-2.244-0.71-4.586-1.199-7.064-1.199
			c-12.998,0-23.535,10.537-23.535,23.535c0,7.329,3.42,13.793,8.672,18.11c2.243,0.71,4.585,1.199,7.064,1.199
			c2.317,0,4.51-0.438,6.624-1.062c3.37-0.994,6.411-2.687,8.967-4.964C135.162,227.924,138.269,221.714,138.269,214.725z"/>
	</g>
	<g>
		<path fill="#F3972A" d="M340.84,160.125c2.077,7.748,7.984,13.903,15.61,16.317c-5.252-4.317-8.672-10.781-8.672-18.11
			c0-12.998,10.537-23.535,23.535-23.535c2.478,0,4.821,0.488,7.064,1.198c-4.063-3.339-9.194-5.426-14.864-5.426
			c-11.629,0-21.227,8.454-23.133,19.539c-0.224,1.305-0.403,2.627-0.403,3.996C339.979,156.2,340.324,158.198,340.84,160.125z"/>
		<path fill="#F4AA41" d="M347.779,158.332c0,7.329,3.42,13.793,8.672,18.11c2.243,0.71,4.585,1.198,7.064,1.198
			c12.764,0,23.096-10.177,23.467-22.851c0.007-0.233,0.069-0.45,0.069-0.684c0-3.33-0.784-6.443-2.047-9.296
			c-1.517-3.425-3.759-6.459-6.625-8.814c-2.244-0.71-4.586-1.198-7.064-1.198C358.316,134.797,347.779,145.334,347.779,158.332z"/>
	</g>
</g>
</svg>
