<?xml version="1.0" encoding="utf-8"?>
<!-- Generator: Adobe Illustrator 18.0.0, SVG Export Plug-In . SVG Version: 6.00 Build 0)  -->
<!DOCTYPE svg PUBLIC "-//W3C//DTD SVG 1.1//EN" "http://www.w3.org/Graphics/SVG/1.1/DTD/svg11.dtd">
<svg version="1.1" id="Warstwa_1" xmlns="http://www.w3.org/2000/svg" xmlns:xlink="http://www.w3.org/1999/xlink" x="0px" y="0px"
	 width="120px" height="120px" viewBox="0 0 120 120" enable-background="new 0 0 120 120" xml:space="preserve">
<g>
	<path fill="#36464E" d="M93.841,0H26.159C11.712,0,0,11.712,0,26.159v67.683C0,108.288,11.712,120,26.159,120h34.021h6.784h26.878
		C108.288,120,120,108.288,120,93.841V68.417v-6.549v-35.71C120,11.712,108.288,0,93.841,0z"/>
	<g>
		<path fill="#36464E" d="M93.841,0H26.159C11.712,0,0,11.712,0,26.159v67.683C0,108.288,11.712,120,26.159,120h34.021
			l-28.62-30.309v-0.456c-0.513-0.615-0.833-1.396-0.833-2.26l25.896-53.208h-23.75c-1.185,0-2.146-0.961-2.146-2.146
			c0-1.185,0.961-2.146,2.146-2.146h53.693c0.944,0,1.773,0.483,2.258,1.215L120,61.868v-35.71C120,11.712,108.288,0,93.841,0z"/>
		<path fill="#2D3A3F" d="M89.274,32.185c0,0.695-0.267,1.363-0.745,1.866L65.431,58.365c0,0,19.307,22.892,23.173,27.477
			c0.433,0.514,0.669,1.161,0.669,1.844v0.042c0,1.545-1.253,2.798-2.798,2.798l-52.202-0.001c-1.096,0-2.064-0.508-2.715-1.289
			v0.456L60.179,120h6.784h26.878C108.288,120,120,108.288,120,93.841V68.417v-6.549L88.822,30.691
			C89.107,31.119,89.274,31.633,89.274,32.185z"/>
		<path fill="#2D3A3F" d="M83.279,86.353L61.043,59.757c-0.694-0.83-0.667-2.046,0.064-2.844l21.19-23.146H61.119L36.104,86.334
			h39.085L83.279,86.353z"/>
		<path fill="#FFFFFF" d="M86.476,90.526c1.545,0,2.798-1.253,2.798-2.798v-0.042c0-0.683-0.236-1.33-0.669-1.844
			c-3.867-4.584-23.173-27.477-23.173-27.477l23.098-24.314c0.478-0.504,0.745-1.172,0.745-1.866c0-0.553-0.167-1.066-0.452-1.494
			c-0.485-0.732-1.314-1.215-2.258-1.215H32.872c-1.185,0-2.146,0.961-2.146,2.146c0,1.185,0.961,2.146,2.146,2.146h23.75
			L30.726,86.975c0,0.863,0.321,1.644,0.833,2.26c0.651,0.781,1.619,1.289,2.715,1.289L86.476,90.526z M61.119,33.768h21.178
			l-21.19,23.146c-0.731,0.798-0.758,2.014-0.064,2.844l22.236,26.596l-8.09-0.019H36.104L61.119,33.768z"/>
	</g>
</g>
</svg>
