<?xml version="1.0" encoding="utf-8"?>
<!-- Generator: Adobe Illustrator 18.0.0, SVG Export Plug-In . SVG Version: 6.00 Build 0)  -->
<!DOCTYPE svg PUBLIC "-//W3C//DTD SVG 1.1//EN" "http://www.w3.org/Graphics/SVG/1.1/DTD/svg11.dtd">
<svg version="1.1" id="Warstwa_1" xmlns="http://www.w3.org/2000/svg" xmlns:xlink="http://www.w3.org/1999/xlink" x="0px" y="0px"
	 width="80px" height="80px" viewBox="0 0 80 80" enable-background="new 0 0 80 80" xml:space="preserve">
<g>
	<path fill="#36464E" d="M62.561,0H17.439C7.808,0,0,7.808,0,17.439v45.122C0,72.192,7.808,80,17.439,80H40.12h4.522h17.919
		C72.192,80,80,72.192,80,62.561v-16.95v-4.366V17.439C80,7.808,72.192,0,62.561,0z"/>
	<g>
		<path fill="#36464E" d="M62.561,0H17.439C7.808,0,0,7.808,0,17.439v45.122C0,72.192,7.808,80,17.439,80H40.12L21.04,59.794V59.49
			c-0.342-0.41-0.556-0.931-0.556-1.507l17.264-35.472H21.915c-0.79,0-1.431-0.641-1.431-1.431c0-0.79,0.641-1.431,1.431-1.431
			H57.71c0.629,0,1.182,0.322,1.505,0.81L80,41.246V17.439C80,7.808,72.192,0,62.561,0z"/>
		<path fill="#2D3A3F" d="M59.516,21.457c0,0.463-0.178,0.908-0.497,1.244L43.621,38.91c0,0,12.871,15.262,15.449,18.318
			c0.289,0.343,0.446,0.774,0.446,1.229v0.028c0,1.03-0.835,1.865-1.865,1.865L22.85,60.35c-0.731,0-1.376-0.339-1.81-0.859v0.304
			L40.12,80h4.522h17.919C72.192,80,80,72.192,80,62.561v-16.95v-4.366L59.215,20.461C59.404,20.746,59.516,21.088,59.516,21.457z"
			/>
		<path fill="#2D3A3F" d="M55.519,57.569L40.695,39.838c-0.463-0.553-0.444-1.364,0.043-1.896l14.127-15.431H40.746L24.069,57.556
			h26.056L55.519,57.569z"/>
		<path fill="#FFFFFF" d="M57.651,60.35c1.03,0,1.865-0.835,1.865-1.865v-0.028c0-0.455-0.157-0.887-0.446-1.229
			C56.492,54.172,43.621,38.91,43.621,38.91l15.398-16.209c0.319-0.336,0.497-0.781,0.497-1.244c0-0.369-0.112-0.711-0.301-0.996
			c-0.323-0.488-0.876-0.81-1.505-0.81H21.915c-0.79,0-1.431,0.64-1.431,1.431c0,0.79,0.641,1.431,1.431,1.431h15.833L20.484,57.984
			c0,0.576,0.214,1.096,0.556,1.507c0.434,0.521,1.079,0.859,1.81,0.859L57.651,60.35z M40.746,22.512h14.119L40.738,37.942
			c-0.487,0.532-0.505,1.342-0.043,1.896l14.824,17.731l-5.393-0.013H24.069L40.746,22.512z"/>
	</g>
</g>
</svg>
