<?xml version="1.0" encoding="utf-8"?>
<!-- Generator: Adobe Illustrator 18.0.0, SVG Export Plug-In . SVG Version: 6.00 Build 0)  -->
<!DOCTYPE svg PUBLIC "-//W3C//DTD SVG 1.1//EN" "http://www.w3.org/Graphics/SVG/1.1/DTD/svg11.dtd">
<svg version="1.1" id="Warstwa_1" xmlns="http://www.w3.org/2000/svg" xmlns:xlink="http://www.w3.org/1999/xlink" x="0px" y="0px"
	 width="32px" height="32px" viewBox="0 0 32 32" enable-background="new 0 0 32 32" xml:space="preserve">
<g>
	<path fill="#36464E" d="M25.024,0H6.976C3.123,0,0,3.123,0,6.976v18.049C0,28.877,3.123,32,6.976,32h9.072h1.809h7.168
		C28.877,32,32,28.877,32,25.024v-6.78v-1.746V6.976C32,3.123,28.877,0,25.024,0z"/>
	<g>
		<path fill="#36464E" d="M25.024,0H6.976C3.123,0,0,3.123,0,6.976v18.049C0,28.877,3.123,32,6.976,32h9.072l-7.632-8.082v-0.122
			c-0.137-0.164-0.222-0.372-0.222-0.603l6.906-14.189H8.766c-0.316,0-0.572-0.256-0.572-0.572c0-0.316,0.256-0.572,0.572-0.572
			h14.318c0.252,0,0.473,0.129,0.602,0.324L32,16.498V6.976C32,3.123,28.877,0,25.024,0z"/>
		<path fill="#2D3A3F" d="M23.806,8.583c0,0.185-0.071,0.363-0.199,0.498l-6.159,6.484c0,0,5.148,6.105,6.18,7.327
			c0.116,0.137,0.178,0.309,0.178,0.492v0.011c0,0.412-0.334,0.746-0.746,0.746l-13.92,0c-0.292,0-0.551-0.135-0.724-0.344v0.122
			L16.048,32h1.809h7.168C28.877,32,32,28.877,32,25.024v-6.78v-1.746l-8.314-8.314C23.762,8.299,23.806,8.435,23.806,8.583z"/>
		<path fill="#2D3A3F" d="M22.208,23.027l-5.93-7.092c-0.185-0.221-0.178-0.545,0.017-0.758l5.651-6.172h-5.647L9.628,23.022H20.05
			L22.208,23.027z"/>
		<path fill="#FFFFFF" d="M23.06,24.14c0.412,0,0.746-0.334,0.746-0.746v-0.011c0-0.182-0.063-0.355-0.178-0.492
			c-1.031-1.222-6.18-7.327-6.18-7.327l6.159-6.484c0.128-0.134,0.199-0.312,0.199-0.498c0-0.147-0.045-0.284-0.12-0.399
			c-0.129-0.195-0.35-0.324-0.602-0.324H8.766c-0.316,0-0.572,0.256-0.572,0.572c0,0.316,0.256,0.572,0.572,0.572h6.333
			L8.194,23.193c0,0.23,0.086,0.438,0.222,0.603c0.174,0.208,0.432,0.344,0.724,0.344L23.06,24.14z M16.298,9.005h5.647
			l-5.651,6.172c-0.195,0.213-0.202,0.537-0.017,0.758l5.93,7.092l-2.157-0.005H9.628L16.298,9.005z"/>
	</g>
</g>
</svg>
