<?xml version="1.0" encoding="utf-8"?>
<!-- Generator: Adobe Illustrator 18.0.0, SVG Export Plug-In . SVG Version: 6.00 Build 0)  -->
<!DOCTYPE svg PUBLIC "-//W3C//DTD SVG 1.1//EN" "http://www.w3.org/Graphics/SVG/1.1/DTD/svg11.dtd">
<svg version="1.1" id="Warstwa_1" xmlns="http://www.w3.org/2000/svg" xmlns:xlink="http://www.w3.org/1999/xlink" x="0px" y="0px"
	 width="256px" height="256px" viewBox="0 0 256 256" enable-background="new 0 0 256 256" xml:space="preserve">
<g>
	<path fill="#36464E" d="M200.195,0H55.805C24.985,0,0,24.985,0,55.805v144.39C0,231.015,24.985,256,55.805,256h72.578h14.472h57.34
		c30.82,0,55.805-24.985,55.805-55.805v-54.238v-13.97V55.805C256,24.985,231.015,0,200.195,0z"/>
	<g>
		<path fill="#36464E" d="M200.195,0H55.805C24.985,0,0,24.985,0,55.805v144.39C0,231.015,24.985,256,55.805,256h72.578
			l-61.056-64.66v-0.972c-1.094-1.313-1.778-2.979-1.778-4.821l55.244-113.51H70.127c-2.528,0-4.578-2.05-4.578-4.578
			c0-2.529,2.05-4.578,4.578-4.578h114.544c2.013,0,3.782,1.031,4.817,2.592L256,131.986V55.805C256,24.985,231.015,0,200.195,0z"/>
		<path fill="#2D3A3F" d="M190.451,68.662c0,1.482-0.569,2.907-1.59,3.981l-49.275,51.869c0,0,41.188,48.837,49.437,58.617
			c0.925,1.096,1.428,2.476,1.428,3.933v0.09c0,3.297-2.672,5.969-5.969,5.969l-111.363-0.003c-2.339,0-4.404-1.084-5.793-2.75
			v0.972L128.383,256h14.472h57.34c30.82,0,55.805-24.985,55.805-55.805v-54.238v-13.97l-66.512-66.512
			C190.094,66.388,190.451,67.483,190.451,68.662z"/>
		<path fill="#2D3A3F" d="M177.661,184.22l-47.436-56.738c-1.481-1.771-1.422-4.364,0.136-6.066l45.206-49.378h-45.179
			L77.022,184.18h83.381L177.661,184.22z"/>
		<path fill="#FFFFFF" d="M184.482,193.121c3.297,0,5.969-2.673,5.969-5.969v-0.09c0-1.457-0.503-2.837-1.428-3.933
			c-8.249-9.78-49.437-58.617-49.437-58.617l49.275-51.869c1.021-1.074,1.59-2.5,1.59-3.981c0-1.179-0.357-2.274-0.963-3.188
			c-1.035-1.561-2.804-2.592-4.817-2.592H70.127c-2.528,0-4.578,2.05-4.578,4.578c0,2.528,2.05,4.578,4.578,4.578h50.666
			l-55.244,113.51c0,1.842,0.684,3.508,1.778,4.821c1.389,1.667,3.454,2.75,5.793,2.75L184.482,193.121z M130.388,72.038h45.179
			l-45.206,49.378c-1.559,1.703-1.617,4.295-0.136,6.066l47.436,56.738l-17.258-0.04H77.022L130.388,72.038z"/>
	</g>
</g>
</svg>
