<?xml version="1.0" encoding="utf-8"?>
<!-- Generator: Adobe Illustrator 18.0.0, SVG Export Plug-In . SVG Version: 6.00 Build 0)  -->
<!DOCTYPE svg PUBLIC "-//W3C//DTD SVG 1.1//EN" "http://www.w3.org/Graphics/SVG/1.1/DTD/svg11.dtd">
<svg version="1.1" id="Warstwa_1" xmlns="http://www.w3.org/2000/svg" xmlns:xlink="http://www.w3.org/1999/xlink" x="0px" y="0px"
	 width="40px" height="40px" viewBox="0 0 40 40" enable-background="new 0 0 40 40" xml:space="preserve">
<g>
	<path fill="#36464E" d="M31.28,0H8.72C3.904,0,0,3.904,0,8.72V31.28C0,36.096,3.904,40,8.72,40h11.34h2.261h8.959
		c4.816,0,8.72-3.904,8.72-8.72v-8.475v-2.183V8.72C40,3.904,36.096,0,31.28,0z"/>
	<g>
		<path fill="#36464E" d="M31.28,0H8.72C3.904,0,0,3.904,0,8.72V31.28C0,36.096,3.904,40,8.72,40h11.34l-9.54-10.103v-0.152
			c-0.171-0.205-0.278-0.465-0.278-0.753l8.632-17.736h-7.917c-0.395,0-0.715-0.32-0.715-0.715c0-0.395,0.32-0.715,0.715-0.715
			h17.898c0.315,0,0.591,0.161,0.753,0.405L40,20.623V8.72C40,3.904,36.096,0,31.28,0z"/>
		<path fill="#2D3A3F" d="M29.758,10.728c0,0.232-0.089,0.454-0.248,0.622l-7.699,8.105c0,0,6.436,7.631,7.724,9.159
			c0.144,0.171,0.223,0.387,0.223,0.615v0.014c0,0.515-0.418,0.933-0.933,0.933l-17.4,0c-0.365,0-0.688-0.169-0.905-0.43v0.152
			L20.06,40h2.261h8.959c4.816,0,8.72-3.904,8.72-8.72v-8.475v-2.183L29.607,10.23C29.702,10.373,29.758,10.544,29.758,10.728z"/>
		<path fill="#2D3A3F" d="M27.76,28.784l-7.412-8.865c-0.231-0.277-0.222-0.682,0.021-0.948l7.063-7.715h-7.059l-8.338,17.522
			h13.028L27.76,28.784z"/>
		<path fill="#FFFFFF" d="M28.825,30.175c0.515,0,0.933-0.418,0.933-0.933v-0.014c0-0.228-0.079-0.443-0.223-0.615
			c-1.289-1.528-7.724-9.159-7.724-9.159l7.699-8.105c0.159-0.168,0.248-0.391,0.248-0.622c0-0.184-0.056-0.355-0.151-0.498
			c-0.162-0.244-0.438-0.405-0.753-0.405H10.957c-0.395,0-0.715,0.32-0.715,0.715c0,0.395,0.32,0.715,0.715,0.715h7.917
			l-8.632,17.736c0,0.288,0.107,0.548,0.278,0.753c0.217,0.26,0.54,0.43,0.905,0.43L28.825,30.175z M20.373,11.256h7.059
			l-7.063,7.715c-0.244,0.266-0.253,0.671-0.021,0.948l7.412,8.865l-2.697-0.006H12.035L20.373,11.256z"/>
	</g>
</g>
</svg>
