<?xml version="1.0" encoding="utf-8"?>
<!-- Generator: Adobe Illustrator 18.0.0, SVG Export Plug-In . SVG Version: 6.00 Build 0)  -->
<!DOCTYPE svg PUBLIC "-//W3C//DTD SVG 1.1//EN" "http://www.w3.org/Graphics/SVG/1.1/DTD/svg11.dtd">
<svg version="1.1" id="Warstwa_1" xmlns="http://www.w3.org/2000/svg" xmlns:xlink="http://www.w3.org/1999/xlink" x="0px" y="0px"
	 width="512px" height="512px" viewBox="0 0 512 512" enable-background="new 0 0 512 512" xml:space="preserve">
<path fill="#36464E" d="M512,99.556C512,44.8,467.2,0,412.445,0H99.555C44.8,0,0,44.8,0,99.556v312.889C0,467.2,44.8,512,99.555,512
	h68.392h111.87l0,0h132.627C467.2,512,512,467.2,512,412.444v-8.2V284.878"/>
<g>
	<path fill="#FFFFFF" d="M413.325,171.783l10.633,10.633C420.644,177.297,416.65,173.927,413.325,171.783z"/>
	<path fill="#98899A" d="M425.813,185.578l2.199,5.21C427.373,188.907,426.631,187.174,425.813,185.578z"/>
	<path fill="#2D3A3F" d="M423.958,196.836l-10.633-10.633c-1.913-1.233-3.617-2.099-4.791-2.603
		c-28.376-12.238-52.629,1.311-59.583,7.568l0.029-0.03l-0.905,0.756c-1.917,1.562-4.317,3.554-7.113,6.798
		c-1.432-3.331-3.484-5.889-5.952-8.204l-0.493-0.469c-3.446-3.451-22.69-20.061-61.785-6.281
		c-5.953,2.095-10.917,5.018-15.205,8.495c-6.445-12.487-20.541-14.411-31.596-14.558c-27.524-0.331-41.659,10.563-48.674,19.763
		c-0.847,1.11-1.667,2.255-2.475,3.417c-0.113-4.193-1.234-8.084-3.399-11.387c-2.388-3.639-7.087-8.185-15.803-9.387
		c-4.543-0.75-11.65-0.75-18.427,1.51c-6.289,2.095-10.831,6.529-13.7,9.678c-2.62,2.872-5.736,7.615-9.786,14.911
		c-8.167,14.714-12.628,24.963-19.63,42.531c-8.396,21.076-12.439,37.544-12.439,50.938c0,2.913,0.189,5.676,0.569,8.312l0.06,0.428
		l0.093,0.424c0.051,0.234,0.122,0.459,0.178,0.692l3.781,8.96l8.805,8.805L279.817,512h132.627C467.2,512,512,467.2,512,412.444
		v-8.2V284.878L423.958,196.836z M425.813,199.998c0.818,1.595,1.56,3.329,2.199,5.21L425.813,199.998z"/>
	<path fill="none" d="M260.875,189.733c-1.161,0.796-2.276,1.63-3.348,2.499v0C258.599,191.363,259.714,190.528,260.875,189.733z"/>
	<path fill="none" d="M281.534,181.044c-2.814,0.726-5.747,1.617-8.801,2.694c-0.668,0.235-1.241,0.55-1.885,0.806
		c0.644-0.256,1.217-0.571,1.886-0.806C275.787,182.661,278.72,181.77,281.534,181.044z"/>
	<path fill="none" d="M225.931,177.674L225.931,177.674c-27.525-0.331-41.659,10.564-48.674,19.763
		c-0.847,1.11-1.667,2.254-2.475,3.416c0.808-1.162,1.628-2.306,2.475-3.416C184.272,188.237,198.407,177.343,225.931,177.674z"/>
	<path fill="none" d="M86.282,318.468l-3.783-8.966c-0.056-0.232-0.127-0.457-0.177-0.691l-0.093-0.424l-0.06-0.428
		c-0.38-2.636-0.569-5.399-0.569-8.312c0-13.393,4.044-29.861,12.439-50.938c7.003-17.568,11.464-27.817,19.631-42.531
		c4.05-7.297,7.165-12.039,9.786-14.911c2.869-3.149,7.411-7.582,13.7-9.678c5.082-1.694,10.35-2.118,14.583-1.908
		c-4.233-0.21-9.501,0.213-14.584,1.908c-6.289,2.096-10.831,6.529-13.7,9.678c-2.621,2.872-5.736,7.614-9.786,14.911
		c-8.167,14.714-12.628,24.963-19.63,42.531c-8.395,21.076-12.439,37.544-12.439,50.938c0,2.913,0.189,5.676,0.568,8.312
		l0.061,0.427l0.093,0.424c0.051,0.234,0.122,0.459,0.178,0.692c0.774,3.223,2.051,6.233,3.778,8.958
		C86.278,318.462,86.279,318.465,86.282,318.468c1.458,2.298,3.219,4.402,5.291,6.234c0.003,0.003,0.007,0.004,0.01,0.007
		c-0.003-0.003-0.006-0.005-0.009-0.007C89.501,322.87,87.74,320.766,86.282,318.468z"/>
	<path fill="none" d="M351,189.511c-0.785,0.586-1.483,1.148-2.048,1.656l-0.001,0.001C349.516,190.66,350.214,190.097,351,189.511z
		"/>
	<path fill="none" d="M348.076,191.894l0.903-0.754l0.001-0.002L348.076,191.894c-1.917,1.562-4.317,3.554-7.113,6.798v0
		C343.759,195.448,346.159,193.456,348.076,191.894z"/>
	<path fill="none" d="M300.498,235.053c5.594,3.98,16.879,2.352,21.563-1.901c-1.809,1.662,6.978-3.625,8.478-17.058
		c1.509-13.702-1.965-15.381-4.645-18.057c-3.708-3.717-18.863-13.957-48.914-3.366c-17.604,6.2-24.834,22.3-33.215,39.6
		c-3.338,6.896-11.589,30.605-13.545,42.649c-4.935,28.846,8.542,36.817,10.806,38.781c9.03,7.782,28.463,5.661,35.577,3.243
		c9.989-3.397,19.125-12.059,21.514-14.639c8.914-9.634,16.85-25.661,18.428-37.736c0.503-3.923,0.523-11.419-0.92-14.955
		c-4.074-10.012-20.518-8.746-25.802-7.382c-16.985,4.428-14.836,20.043-13.587,22.183c1.249,2.141,4.007,2.915,6.29,3.502
		c2.208,0.546,3.378-0.123,3.078,2.185c-2.149,16.057-21.06,25.239-24.931,13.879c-1.054-3.088,0.184-9.775,1.094-12.647
		c0.436-1.39,12.591-43.444,23.304-54.145c2.323-2.325,11.72-5.33,13.608-1.278C300.982,222.866,292.474,229.343,300.498,235.053z"
		/>
	<path fill="none" d="M403.773,194.228c-22.878-9.866-42.332,1.735-46.406,5.398c-4.704,4.204-16.395,9.755-33.206,67.101
		c-0.582,2.029-3.909,20.918-3.445,28.389c0.648,10.267,5.834,18.32,15.117,22.172c10.888,4.509,18.571,3.591,23.034,2.991
		c24.843-3.397,32.141-18.34,39.689-32.263c3.146-5.822,15.418-31.876,19.134-61.227
		C420.256,206.539,411.525,197.563,403.773,194.228z M387.136,230.92c-0.27,1.034-3.783,12.063-5.032,16.167
		c-1.249,4.104-6.591,18.921-10.453,28.557c-5.739,14.302-10.124,15.24-13.143,16.084c-3.909,0-6.493-2.816-6.745-6.785
		c-0.097-1.649,1.509-12.012,5.07-21.896c3.921-10.927,7.782-21.915,12.62-32.388c1.859-4.058,3.455-8.546,7.134-11.812
		C378.194,217.42,392.131,212.051,387.136,230.92z"/>
	<path fill="none" d="M161.879,205.329c1.873-6.472,0.218-12.717-7.995-13.775c-2.927-0.513-8.036-0.513-12.683,1.036
		c-3.232,1.076-6.097,3.675-8.457,6.267c-3.233,3.539-8.098,12.581-8.354,13.009c-7.711,13.898-11.93,23.658-18.715,40.68
		c-11.51,28.895-12.429,43.755-11.116,52.9c0.77,3.568,2.517,6.723,5.347,9.228c7.208,6.368,23.619,6.099,33.993,3.204
		c6.049-1.702,12.872-6.619,15.569-12.494c10.096-21.999-7.681-21.098-10.372-21.587c-2.693-0.488-9.796,1.873-10.532,0.402
		c-0.736-1.472,0.598-1.834,1.902-4.627C149.816,238.196,155.808,226.033,161.879,205.329z"/>
	<path fill="none" d="M218.229,237.889c-3.595-0.569-9.934,0.435-11.885,0.682c-1.06,0-1.965,0.082-2.855-0.358
		c1.114-5.875,4.763-14.164,6.853-15.212c2.09-1.05,19.104,2.511,29.349-3.412c-1.907,1.104,9.949-4.577,8.932-15.09
		c-0.978-10.041-5.575-14.963-22.724-15.188c-7.834-0.093-27.645,0.441-38.658,14.885c-18.82,24.679-27.822,65.941-29.077,73.256
		c-1.197,6.766-5.524,20.915,4.22,33.099c10.686,13.356,35.753,11.169,49.108,3.783c9.069-5.032,10.443-12.74,10.767-16.722
		c0.983-12.495-7.737-14.673-12.798-14.673c-13.98,0-21.679,4.046-22.231,2.499c-0.469-1.326,2.895-15.227,5.357-18.796
		c0.857-1.293,3.702,3.318,21.056,0.218c4.805-0.869,9.392-4.086,11.933-8.332C235.993,241.061,222.643,238.587,218.229,237.889z"/>
	<path fill="#36464E" d="M512,99.556C512,44.8,467.2,0,412.445,0H99.555C44.8,0,0,44.8,0,99.556v312.889
		C0,467.2,44.8,512,99.555,512h68.392h111.87L95.083,327.266c-0.002-0.001-0.002-0.002-0.004-0.003
		c-1.223-0.767-2.408-1.593-3.497-2.554c-0.003-0.003-0.007-0.004-0.01-0.007c-2.072-1.832-3.833-3.936-5.291-6.234
		c-0.002-0.003-0.003-0.006-0.005-0.008c-1.727-2.724-3.004-5.735-3.778-8.958c-0.056-0.232-0.127-0.458-0.178-0.692l-0.093-0.424
		l-0.061-0.427c-0.379-2.637-0.568-5.4-0.568-8.312c0-13.393,4.044-29.861,12.439-50.938c7.002-17.568,11.464-27.817,19.63-42.531
		c4.05-7.297,7.165-12.039,9.786-14.911c2.869-3.149,7.411-7.583,13.7-9.678c5.083-1.695,10.35-2.118,14.584-1.908
		c1.411,0.07,2.708,0.211,3.843,0.398c8.716,1.202,13.414,5.748,15.803,9.387c2.165,3.303,3.286,7.194,3.399,11.387
		c0.808-1.162,1.628-2.306,2.475-3.416c7.014-9.199,21.149-20.094,48.674-19.763h0c0,0,0,0,0,0
		c11.055,0.147,25.151,2.071,31.596,14.558c1.072-0.869,2.187-1.704,3.348-2.499c2.963-2.03,6.315-3.737,9.972-5.189
		c0.644-0.256,1.217-0.571,1.885-0.806c3.054-1.077,5.988-1.968,8.801-2.694s5.508-1.288,8.086-1.706
		c5.155-0.835,9.84-1.095,14.072-0.944c18.621,0.661,28.457,9.253,30.826,11.625l0.493,0.469c2.468,2.315,4.52,4.873,5.952,8.204
		c2.797-3.244,5.196-5.235,7.113-6.798l0.905-0.756l-0.001,0.002l0.002-0.002l-0.028,0.028c0.564-0.508,1.262-1.07,2.048-1.656
		c0.046-0.034,0.073-0.062,0.119-0.096c0.596-0.44,1.253-0.896,1.968-1.361c2.146-1.393,4.812-2.866,7.882-4.225
		c0.262-0.116,0.484-0.241,0.752-0.355c3.791-1.614,8.249-2.97,13.128-3.843c2.771-0.496,5.641-0.878,8.693-0.958
		c7.66-0.202,16.125,1.103,24.992,4.928c0.575,0.247,1.303,0.603,2.088,1.014c0.022,0.012,0.044,0.024,0.067,0.036
		c1.479,0.778,3.248,1.869,5.138,3.331c0.044,0.034,0.085,0.062,0.129,0.097c2.681,2.094,5.53,4.939,8.002,8.759L512,284.878V99.556
		z"/>
	<path fill="#FFFFFF" d="M376.588,218.847c-3.678,3.266-5.274,7.754-7.134,11.812c-4.839,10.474-8.7,21.462-12.62,32.388
		c-3.561,9.883-5.167,20.246-5.07,21.896c0.251,3.969,2.836,6.785,6.745,6.785c3.019-0.843,7.404-1.781,13.143-16.084
		c3.861-9.636,9.204-24.453,10.453-28.557c1.248-4.104,4.762-15.133,5.032-16.167C392.131,212.051,378.194,217.42,376.588,218.847z"
		/>
	<g>
		<path fill="none" d="M161.879,205.329c1.873-6.472,0.218-12.717-7.995-13.775c-2.927-0.513-8.036-0.513-12.683,1.036
			c-3.232,1.076-6.097,3.675-8.457,6.267c-3.233,3.539-8.098,12.581-8.354,13.009c-7.711,13.898-11.93,23.658-18.715,40.68
			c-11.51,28.895-12.429,43.755-11.116,52.9c0.77,3.568,2.517,6.723,5.347,9.228c7.208,6.368,23.619,6.099,33.993,3.204
			c6.049-1.702,12.872-6.619,15.569-12.494c10.096-21.999-7.681-21.098-10.372-21.587c-2.693-0.488-9.796,1.873-10.532,0.402
			c-0.736-1.472,0.598-1.834,1.902-4.627C149.816,238.196,155.808,226.033,161.879,205.329z"/>
		<path fill="none" d="M300.498,235.053c5.594,3.98,16.879,2.352,21.563-1.901c-1.809,1.662,6.978-3.625,8.478-17.058
			c1.509-13.702-1.965-15.381-4.645-18.057c-3.708-3.717-18.863-13.957-48.914-3.366c-17.604,6.2-24.834,22.3-33.215,39.6
			c-3.338,6.896-11.589,30.605-13.545,42.649c-4.935,28.846,8.542,36.817,10.806,38.781c9.03,7.782,28.463,5.661,35.577,3.243
			c9.989-3.397,19.125-12.059,21.514-14.639c8.914-9.634,16.85-25.661,18.428-37.736c0.503-3.923,0.523-11.419-0.92-14.955
			c-4.074-10.012-20.518-8.746-25.802-7.382c-16.985,4.428-14.836,20.043-13.587,22.183c1.249,2.141,4.007,2.915,6.29,3.502
			c2.208,0.546,3.378-0.123,3.078,2.185c-2.149,16.057-21.06,25.239-24.931,13.879c-1.054-3.088,0.184-9.775,1.094-12.647
			c0.436-1.39,12.591-43.444,23.304-54.145c2.323-2.325,11.72-5.33,13.608-1.278C300.982,222.866,292.474,229.343,300.498,235.053z"
			/>
		<path fill="none" d="M218.229,237.889c-3.595-0.569-9.934,0.435-11.885,0.682c-1.06,0-1.965,0.082-2.855-0.358
			c1.114-5.875,4.763-14.164,6.853-15.212c2.09-1.05,19.104,2.511,29.349-3.412c-1.907,1.104,9.949-4.577,8.932-15.09
			c-0.978-10.041-5.575-14.963-22.724-15.188c-7.834-0.093-27.645,0.441-38.658,14.885c-18.82,24.679-27.822,65.941-29.077,73.256
			c-1.197,6.766-5.524,20.915,4.22,33.099c10.686,13.356,35.753,11.169,49.108,3.783c9.069-5.032,10.443-12.74,10.767-16.722
			c0.983-12.495-7.737-14.673-12.798-14.673c-13.98,0-21.679,4.046-22.231,2.499c-0.469-1.326,2.895-15.227,5.357-18.796
			c0.857-1.293,3.702,3.318,21.056,0.218c4.805-0.869,9.392-4.086,11.933-8.332C235.993,241.061,222.643,238.587,218.229,237.889z"
			/>
		<path fill="none" d="M403.773,194.228c-22.878-9.866-42.332,1.735-46.406,5.398c-4.704,4.204-16.395,9.755-33.206,67.101
			c-0.582,2.029-3.909,20.918-3.445,28.389c0.648,10.267,5.834,18.32,15.117,22.172c10.888,4.509,18.571,3.591,23.034,2.991
			c24.843-3.397,32.141-18.34,39.689-32.263c3.146-5.822,15.418-31.876,19.134-61.227
			C420.256,206.539,411.525,197.563,403.773,194.228z"/>
		<path fill="#FFFFFF" d="M428.012,205.208l-2.198-5.21c-0.58-1.131-1.21-2.165-1.854-3.161c-2.473-3.82-5.322-6.665-8.002-8.759
			c-0.044-0.034-0.085-0.063-0.129-0.097c-1.89-1.463-3.658-2.554-5.138-3.331c-0.023-0.012-0.044-0.024-0.067-0.036
			c-0.786-0.411-1.513-0.767-2.088-1.014c-8.868-3.824-17.332-5.13-24.992-4.928c-3.052,0.081-5.922,0.463-8.693,0.958
			c-4.879,0.873-9.338,2.229-13.128,3.843c-0.268,0.114-0.49,0.239-0.752,0.355c-3.07,1.359-5.735,2.832-7.882,4.225
			c-0.715,0.465-1.373,0.92-1.968,1.361c-0.046,0.034-0.073,0.062-0.119,0.096c-0.786,0.587-1.484,1.149-2.049,1.658l0.001-0.001
			l0.028-0.028l-0.002,0.002l-0.903,0.754c-1.917,1.562-4.317,3.554-7.113,6.798v0c-1.432-3.331-3.484-5.889-5.952-8.204
			l-0.493-0.469c-2.369-2.372-12.205-10.964-30.826-11.625c-4.232-0.15-8.917,0.109-14.072,0.944
			c-2.577,0.418-5.272,0.979-8.086,1.706s-5.747,1.617-8.801,2.694c-0.668,0.235-1.242,0.55-1.886,0.806
			c-3.657,1.452-7.009,3.159-9.972,5.189c-1.161,0.796-2.276,1.63-3.348,2.5v0c-6.445-12.487-20.541-14.411-31.596-14.558
			c0,0,0,0,0,0c-27.523-0.331-41.659,10.564-48.673,19.763c-0.847,1.11-1.667,2.255-2.475,3.416
			c-0.113-4.193-1.234-8.084-3.399-11.387c-2.388-3.639-7.087-8.185-15.803-9.387c-1.136-0.188-2.432-0.328-3.843-0.398
			c-4.233-0.21-9.501,0.213-14.583,1.908c-6.288,2.096-10.831,6.529-13.7,9.678c-2.62,2.872-5.736,7.615-9.786,14.911
			c-8.167,14.714-12.628,24.962-19.631,42.531c-8.395,21.076-12.439,37.544-12.439,50.938c0,2.913,0.189,5.676,0.569,8.312
			l0.06,0.428l0.093,0.424c0.051,0.234,0.122,0.459,0.177,0.691l3.783,8.966c1.458,2.298,3.219,4.402,5.292,6.234
			c0.003,0.003,0.006,0.005,0.009,0.007c1.089,0.961,2.273,1.787,3.497,2.554c12.967,8.132,32.676,5.898,42.019,3.294
			c5.47-1.544,11.812-5.024,16.856-10.016c15.906,17.581,46.656,14.637,63.401,5.384c2.829-1.568,5.893-3.768,8.658-6.734
			c1.922,2.369,4.108,4.553,6.617,6.509l0.285,0.222c13.593,11.715,37.913,8.773,47.544,5.497
			c14.174-4.82,25.381-16.614,26.615-17.942c1.312-1.42,2.589-2.94,3.833-4.533c3.571,9.324,10.466,16.562,20.053,20.535
			c14.183,5.874,24.48,4.49,29.427,3.82c30.292-4.141,40.644-23.292,48.202-37.279l0.725-1.346
			c0.169-0.313,16.026-29.976,20.536-65.576C431.095,219.266,430.123,211.43,428.012,205.208z M128.565,284.199
			c0.736,1.47,7.839-0.891,10.532-0.402c2.691,0.489,20.468-0.412,10.372,21.587c-2.697,5.875-9.52,10.792-15.569,12.494
			c-10.373,2.895-26.784,3.164-33.993-3.204c-2.831-2.504-4.577-5.66-5.347-9.228c-1.313-9.145-0.394-24.005,11.116-52.9
			c6.784-17.022,11.003-26.782,18.715-40.68c0.256-0.428,5.121-9.47,8.354-13.009c2.359-2.592,5.224-5.191,8.457-6.267
			c4.646-1.549,9.755-1.549,12.683-1.036c8.213,1.057,9.868,7.303,7.995,13.775c-6.071,20.703-12.063,32.867-31.412,74.243
			C129.162,282.365,127.828,282.728,128.565,284.199z M225.576,258.528c-2.541,4.246-7.128,7.463-11.933,8.332
			c-17.354,3.1-20.199-1.511-21.056-0.218c-2.462,3.568-5.826,17.47-5.357,18.796c0.552,1.548,8.251-2.499,22.231-2.499
			c5.061,0,13.781,2.178,12.798,14.673c-0.324,3.982-1.698,11.691-10.767,16.722c-13.355,7.386-38.421,9.574-49.108-3.783
			c-9.744-12.184-5.418-26.333-4.22-33.099c1.255-7.314,10.257-48.577,29.077-73.256c11.013-14.444,30.824-14.979,38.658-14.885
			c17.149,0.225,21.746,5.147,22.724,15.188c1.017,10.513-10.839,16.194-8.932,15.09c-10.245,5.923-27.259,2.362-29.349,3.412
			c-2.09,1.048-5.739,9.337-6.853,15.212c0.891,0.44,1.795,0.358,2.855,0.358c1.951-0.247,8.289-1.251,11.885-0.682
			C222.643,238.587,235.993,241.061,225.576,258.528z M298.679,217.911c-1.888-4.053-11.284-1.048-13.608,1.278
			c-10.714,10.701-22.869,52.755-23.304,54.145c-0.91,2.872-2.149,9.559-1.094,12.647c3.871,11.36,22.782,2.178,24.931-13.879
			c0.299-2.308-0.871-1.638-3.078-2.185c-2.283-0.587-5.041-1.361-6.29-3.502c-1.249-2.14-3.398-17.755,13.587-22.183
			c5.284-1.364,21.728-2.63,25.802,7.382c1.443,3.535,1.423,11.032,0.92,14.955c-1.577,12.075-9.514,28.102-18.428,37.736
			c-2.389,2.58-11.525,11.242-21.514,14.639c-7.114,2.418-26.547,4.539-35.577-3.243c-2.264-1.963-15.741-9.934-10.806-38.781
			c1.956-12.044,10.207-35.753,13.545-42.649c8.381-17.301,15.611-33.401,33.215-39.6c30.051-10.591,45.206-0.351,48.914,3.366
			c2.681,2.676,6.154,4.355,4.645,18.057c-1.5,13.433-10.288,18.72-8.478,17.058c-4.684,4.253-15.969,5.881-21.563,1.901
			C292.474,229.343,300.982,222.866,298.679,217.911z M417.69,226.79c-3.715,29.351-15.988,55.405-19.134,61.227
			c-7.548,13.922-14.846,28.866-39.689,32.263c-4.463,0.6-12.146,1.518-23.034-2.991c-9.282-3.852-14.469-11.905-15.117-22.172
			c-0.465-7.471,2.863-26.36,3.445-28.389c16.811-57.346,28.502-62.898,33.206-67.101c4.074-3.663,23.528-15.264,46.406-5.398
			C411.525,197.563,420.256,206.539,417.69,226.79z"/>
	</g>
</g>
</svg>
