<?xml version="1.0" encoding="utf-8"?>
<!-- Generator: Adobe Illustrator 18.0.0, SVG Export Plug-In . SVG Version: 6.00 Build 0)  -->
<!DOCTYPE svg PUBLIC "-//W3C//DTD SVG 1.1//EN" "http://www.w3.org/Graphics/SVG/1.1/DTD/svg11.dtd">
<svg version="1.1" id="Warstwa_1" xmlns="http://www.w3.org/2000/svg" xmlns:xlink="http://www.w3.org/1999/xlink" x="0px" y="0px"
	 width="512px" height="512px" viewBox="0 0 512 512" enable-background="new 0 0 512 512" xml:space="preserve">
<g>
	<path fill="#36464E" d="M468.188,182.793c-1.152-0.867-2.324-1.727-3.515-2.579c-5.957-4.26-12.404-8.327-19.298-12.181
		c-1.379-0.771-2.776-1.533-4.19-2.286c-2.36-1.257-4.78-2.484-7.236-3.692c-1.184-0.582-2.38-1.158-3.585-1.728
		c-1.614-0.764-3.248-1.517-4.9-2.26c-4.358-1.958-8.846-3.842-13.46-5.646c-9.117-3.566-18.707-6.833-28.732-9.756
		c-1.787-0.521-3.587-1.031-5.401-1.531c-3.627-0.999-7.306-1.955-11.036-2.865c-1.865-0.455-3.742-0.9-5.631-1.333
		c-5.668-1.299-11.445-2.496-17.322-3.586c-3.918-0.727-7.88-1.407-11.885-2.038c-24.025-3.786-49.553-5.821-75.998-5.821
		s-51.973,2.035-75.998,5.821c-4.004,0.631-7.967,1.311-11.885,2.038c-5.877,1.09-11.654,2.287-17.322,3.586
		c-1.889,0.433-3.766,0.877-5.631,1.333c-3.729,0.911-7.409,1.866-11.036,2.865c-1.813,0.5-3.614,1.01-5.401,1.531
		c-10.026,2.923-19.616,6.19-28.732,9.756c-4.614,1.805-9.102,3.688-13.46,5.646c-1.653,0.743-3.286,1.496-4.9,2.26
		c-1.205,0.57-2.401,1.146-3.585,1.728c-2.456,1.208-4.876,2.435-7.236,3.692c-1.414,0.754-2.811,1.516-4.19,2.286
		c-6.894,3.854-13.341,7.921-19.298,12.181c-1.191,0.852-2.363,1.712-3.515,2.579C16.167,203.606,0,228.767,0,256
		c0,27.233,16.166,52.394,43.812,73.207c1.152,0.867,2.324,1.727,3.515,2.579c5.957,4.26,12.404,8.327,19.298,12.181
		c2.758,1.541,5.587,3.049,8.485,4.521c5.796,2.944,11.868,5.746,18.194,8.395c2.547,1.067,5.147,2.102,7.776,3.119
		c1.075,0.416,2.156,0.829,3.244,1.237C146.82,377.147,199.298,386.51,256,386.51s109.18-9.363,151.676-25.272
		c1.089-0.408,2.169-0.82,3.244-1.237c2.628-1.017,5.228-2.052,7.776-3.119c6.326-2.65,12.397-5.451,18.193-8.395
		c2.898-1.472,5.727-2.979,8.485-4.521c6.894-3.854,13.341-7.921,19.298-12.181c1.191-0.852,2.363-1.712,3.515-2.579
		C495.833,308.393,512,283.232,512,256C512,228.767,495.833,203.606,468.188,182.793z"/>
	<g>
		<path fill="#36464E" d="M256,125.49C114.961,125.49,0,183.38,0,256s114.961,130.51,256,130.51S512,328.62,512,256
			S397.039,125.49,256,125.49z"/>
		<g>
			<g>
				<g>
					<polygon fill="#FDE9B0" points="175.807,377.668 175.813,377.68 175.81,377.671 					"/>
				</g>
				<g>
					<g>
						<path fill-rule="evenodd" clip-rule="evenodd" fill="#FDE9B0" d="M256,127.687C114.686,127.687,2.198,185.674,2.198,256
							c0,70.326,112.489,128.313,253.802,128.313S509.802,326.326,509.802,256C509.802,185.674,397.314,127.687,256,127.687
							L256,127.687z M256,125.49c141.039,0,256,57.89,256,130.51S397.039,386.51,256,386.51S0,328.619,0,256
							S114.961,125.49,256,125.49L256,125.49z"/>
					</g>
				</g>
				<g>
					<g>
						<path fill-rule="evenodd" clip-rule="evenodd" fill="#FDE9B0" d="M486.274,256c0-45.773-86.035-104.783-230.274-104.783
							S25.726,210.227,25.726,256c0,45.774,86.035,104.784,230.274,104.784S486.274,301.773,486.274,256L486.274,256z M488.47,256
							c0,48.047-88.469,106.981-232.47,106.981S23.53,304.047,23.53,256c0-48.046,88.469-106.98,232.47-106.98
							S488.47,207.953,488.47,256L488.47,256z"/>
					</g>
				</g>
				<g>
					<path fill-rule="evenodd" clip-rule="evenodd" fill="#FDE9B0" d="M261.882,138.354c0,3.248-2.634,5.882-5.882,5.882
						c-3.249,0-5.882-2.634-5.882-5.882c0-3.25,2.633-5.883,5.882-5.883C259.249,132.471,261.882,135.104,261.882,138.354
						L261.882,138.354z"/>
				</g>
				<g>
					<path fill-rule="evenodd" clip-rule="evenodd" fill="#FDE9B0" d="M242.453,138.516c0.113,3.246-2.427,5.971-5.674,6.084
						c-3.246,0.114-5.971-2.427-6.084-5.673c-0.114-3.247,2.427-5.971,5.673-6.085C239.616,132.729,242.34,135.269,242.453,138.516
						L242.453,138.516z"/>
				</g>
				<g>
					<path fill-rule="evenodd" clip-rule="evenodd" fill="#FDE9B0" d="M223.045,139.427c0.227,3.24-2.216,6.052-5.457,6.278
						c-3.241,0.226-6.052-2.217-6.279-5.458c-0.227-3.24,2.217-6.051,5.458-6.278C220.007,133.742,222.818,136.186,223.045,139.427
						L223.045,139.427z"/>
				</g>
				<g>
					<path fill-rule="evenodd" clip-rule="evenodd" fill="#FDE9B0" d="M203.68,141.023c0.396,3.225-1.897,6.16-5.122,6.556
						c-3.224,0.396-6.159-1.897-6.555-5.122c-0.396-3.225,1.897-6.16,5.122-6.555C200.35,135.506,203.285,137.8,203.68,141.023
						L203.68,141.023z"/>
				</g>
				<g>
					<path fill-rule="evenodd" clip-rule="evenodd" fill="#FDE9B0" d="M184.416,143.548c0.508,3.209-1.681,6.222-4.89,6.73
						c-3.209,0.509-6.223-1.68-6.73-4.89c-0.508-3.209,1.681-6.222,4.89-6.73C180.895,138.15,183.907,140.34,184.416,143.548
						L184.416,143.548z"/>
				</g>
				<g>
					<path fill-rule="evenodd" clip-rule="evenodd" fill="#FDE9B0" d="M165.266,146.836c0.676,3.177-1.354,6.301-4.531,6.976
						c-3.178,0.676-6.301-1.354-6.976-4.53c-0.676-3.178,1.353-6.302,4.53-6.977C161.467,141.63,164.591,143.659,165.266,146.836
						L165.266,146.836z"/>
				</g>
				<g>
					<path fill-rule="evenodd" clip-rule="evenodd" fill="#FDE9B0" d="M146.298,151.051c0.841,3.138-1.022,6.363-4.16,7.204
						c-3.138,0.841-6.364-1.022-7.204-4.16c-0.841-3.138,1.022-6.364,4.16-7.204C142.232,146.051,145.458,147.913,146.298,151.051
						L146.298,151.051z"/>
				</g>
				<g>
					<path fill-rule="evenodd" clip-rule="evenodd" fill="#FDE9B0" d="M127.582,156.269c1.003,3.09-0.688,6.408-3.777,7.412
						c-3.089,1.004-6.408-0.687-7.412-3.776c-1.003-3.09,0.687-6.408,3.777-7.412C123.259,151.488,126.578,153.179,127.582,156.269
						L127.582,156.269z"/>
				</g>
				<g>
					<path fill-rule="evenodd" clip-rule="evenodd" fill="#FDE9B0" d="M109.21,162.585c1.164,3.033-0.35,6.435-3.383,7.6
						c-3.033,1.164-6.436-0.351-7.6-3.384c-1.164-3.032,0.351-6.435,3.383-7.599C104.644,158.037,108.046,159.552,109.21,162.585
						L109.21,162.585z"/>
				</g>
				<g>
					<path fill-rule="evenodd" clip-rule="evenodd" fill="#FDE9B0" d="M91.219,169.925c1.425,2.919,0.211,6.441-2.708,7.865
						c-2.92,1.424-6.442,0.211-7.866-2.708c-1.425-2.92-0.211-6.441,2.709-7.866C86.273,165.793,89.795,167.005,91.219,169.925
						L91.219,169.925z"/>
				</g>
				<g>
					<path fill-rule="evenodd" clip-rule="evenodd" fill="#FDE9B0" d="M73.854,178.649c1.674,2.786,0.772,6.399-2.012,8.072
						s-6.398,0.772-8.071-2.012c-1.673-2.785-0.772-6.398,2.012-8.071C68.567,174.963,72.18,175.864,73.854,178.649L73.854,178.649z
						"/>
				</g>
				<g>
					<path fill-rule="evenodd" clip-rule="evenodd" fill="#FDE9B0" d="M57.398,188.975c1.91,2.628,1.327,6.307-1.301,8.217
						c-2.628,1.909-6.307,1.326-8.216-1.302c-1.909-2.628-1.327-6.307,1.301-8.216C51.81,185.763,55.489,186.346,57.398,188.975
						L57.398,188.975z"/>
				</g>
				<g>
					<path fill-rule="evenodd" clip-rule="evenodd" fill="#FDE9B0" d="M42.029,200.874c2.297,2.297,2.297,6.021,0,8.318
						c-2.297,2.297-6.022,2.297-8.319,0c-2.297-2.298-2.297-6.022,0-8.318C36.007,198.576,39.731,198.576,42.029,200.874
						L42.029,200.874z"/>
				</g>
				<g>
					<path fill-rule="evenodd" clip-rule="evenodd" fill="#FDE9B0" d="M28.68,214.999c2.661,1.864,3.307,5.532,1.444,8.193
						c-1.864,2.662-5.531,3.308-8.193,1.445c-2.661-1.864-3.307-5.532-1.444-8.193C22.351,213.783,26.019,213.136,28.68,214.999
						L28.68,214.999z"/>
				</g>
				<g>
					<path fill-rule="evenodd" clip-rule="evenodd" fill="#FDE9B0" d="M18.218,231.41c3.071,1.058,4.704,4.406,3.646,7.478
						c-1.057,3.071-4.405,4.704-7.477,3.646c-3.072-1.057-4.704-4.405-3.647-7.476C11.798,231.986,15.145,230.353,18.218,231.41
						L18.218,231.41z"/>
				</g>
				<g>
					<path fill-rule="evenodd" clip-rule="evenodd" fill="#FDE9B0" d="M261.891,373.646c0,3.249-2.634,5.883-5.882,5.883
						c-3.249,0-5.882-2.634-5.882-5.883c0-3.249,2.633-5.882,5.882-5.882C259.257,367.764,261.891,370.398,261.891,373.646
						L261.891,373.646z"/>
				</g>
				<g>
					<path fill-rule="evenodd" clip-rule="evenodd" fill="#FDE9B0" d="M242.461,373.484c-0.113,3.247-2.837,5.787-6.084,5.673
						c-3.247-0.113-5.787-2.837-5.674-6.084c0.113-3.246,2.838-5.787,6.085-5.674C240.035,367.513,242.574,370.237,242.461,373.484
						L242.461,373.484z"/>
				</g>
				<g>
					<path fill-rule="evenodd" clip-rule="evenodd" fill="#FDE9B0" d="M223.052,372.573c-0.227,3.241-3.037,5.685-6.279,5.458
						c-3.24-0.226-5.684-3.037-5.458-6.279c0.227-3.241,3.038-5.684,6.279-5.458C220.835,366.521,223.278,369.332,223.052,372.573
						L223.052,372.573z"/>
				</g>
				<g>
					<path fill-rule="evenodd" clip-rule="evenodd" fill="#FDE9B0" d="M203.687,370.976c-0.396,3.225-3.331,5.518-6.556,5.122
						c-3.224-0.396-5.517-3.331-5.122-6.555c0.396-3.225,3.331-5.517,6.556-5.122C201.789,364.816,204.082,367.751,203.687,370.976
						L203.687,370.976z"/>
				</g>
				<g>
					<path fill-rule="evenodd" clip-rule="evenodd" fill="#FDE9B0" d="M184.421,368.45c-0.509,3.21-3.521,5.398-6.73,4.891
						c-3.208-0.509-5.397-3.521-4.89-6.73c0.508-3.208,3.521-5.398,6.73-4.89C182.739,362.229,184.929,365.243,184.421,368.45
						L184.421,368.45z"/>
				</g>
				<g>
					<path fill-rule="evenodd" clip-rule="evenodd" fill="#FDE9B0" d="M165.27,365.164c-0.676,3.178-3.799,5.206-6.977,4.53
						c-3.178-0.676-5.206-3.799-4.53-6.976c0.676-3.179,3.799-5.207,6.976-4.531C163.918,358.862,165.946,361.985,165.27,365.164
						L165.27,365.164z"/>
				</g>
				<g>
					<path fill-rule="evenodd" clip-rule="evenodd" fill="#FDE9B0" d="M146.302,360.948c-0.841,3.138-4.066,5.001-7.204,4.16
						c-3.138-0.841-5-4.066-4.16-7.204c0.841-3.138,4.066-5,7.204-4.16C145.28,354.584,147.142,357.81,146.302,360.948
						L146.302,360.948z"/>
				</g>
				<g>
					<path fill-rule="evenodd" clip-rule="evenodd" fill="#FDE9B0" d="M127.584,355.731c-1.003,3.089-4.322,4.781-7.412,3.776
						c-3.09-1.004-4.781-4.322-3.777-7.412c1.004-3.089,4.323-4.78,7.412-3.776C126.898,349.322,128.588,352.641,127.584,355.731
						L127.584,355.731z"/>
				</g>
				<g>
					<path fill-rule="evenodd" clip-rule="evenodd" fill="#FDE9B0" d="M109.211,349.414c-1.164,3.033-4.567,4.548-7.6,3.384
						c-3.033-1.164-4.549-4.567-3.384-7.601c1.164-3.032,4.567-4.547,7.6-3.382C108.86,342.978,110.375,346.381,109.211,349.414
						L109.211,349.414z"/>
				</g>
				<g>
					<path fill-rule="evenodd" clip-rule="evenodd" fill="#FDE9B0" d="M91.219,342.075c-1.424,2.92-4.946,4.132-7.866,2.708
						c-2.92-1.424-4.132-4.945-2.709-7.865c1.425-2.921,4.946-4.133,7.866-2.709C91.43,335.634,92.642,339.154,91.219,342.075
						L91.219,342.075z"/>
				</g>
				<g>
					<path fill-rule="evenodd" clip-rule="evenodd" fill="#FDE9B0" d="M73.853,333.35c-1.674,2.785-5.288,3.685-8.072,2.012
						c-2.785-1.673-3.686-5.287-2.012-8.071c1.673-2.785,5.287-3.686,8.071-2.013C74.625,326.952,75.526,330.566,73.853,333.35
						L73.853,333.35z"/>
				</g>
				<g>
					<path fill-rule="evenodd" clip-rule="evenodd" fill="#FDE9B0" d="M57.395,323.025c-1.909,2.629-5.588,3.212-8.217,1.302
						c-2.628-1.909-3.211-5.588-1.301-8.216c1.909-2.629,5.587-3.212,8.216-1.302C58.722,316.718,59.304,320.397,57.395,323.025
						L57.395,323.025z"/>
				</g>
				<g>
					<path fill-rule="evenodd" clip-rule="evenodd" fill="#FDE9B0" d="M42.024,311.126c-2.297,2.297-6.022,2.297-8.318,0
						c-2.298-2.297-2.298-6.021,0-8.318c2.297-2.298,6.021-2.298,8.318,0C44.321,305.105,44.321,308.83,42.024,311.126
						L42.024,311.126z"/>
				</g>
				<g>
					<path fill-rule="evenodd" clip-rule="evenodd" fill="#FDE9B0" d="M28.674,297.001c-2.661,1.864-6.329,1.216-8.192-1.444
						c-1.864-2.662-1.217-6.33,1.444-8.193c2.662-1.863,6.329-1.217,8.193,1.445C31.982,291.47,31.335,295.137,28.674,297.001
						L28.674,297.001z"/>
				</g>
				<g>
					<path fill-rule="evenodd" clip-rule="evenodd" fill="#FDE9B0" d="M18.21,280.59c-3.072,1.058-6.42-0.575-7.477-3.647
						c-1.058-3.072,0.575-6.419,3.647-7.477c3.072-1.058,6.419,0.575,7.477,3.647C22.914,276.184,21.282,279.532,18.21,280.59
						L18.21,280.59z"/>
				</g>
				<g>
					<path fill-rule="evenodd" clip-rule="evenodd" fill="#FDE9B0" d="M13.068,261.879c-3.246,0.113-5.971-2.427-6.084-5.674
						c-0.114-3.245,2.426-5.97,5.673-6.083c3.247-0.113,5.971,2.426,6.084,5.672C18.856,259.041,16.315,261.765,13.068,261.879
						L13.068,261.879z"/>
				</g>
				<g>
					<path fill-rule="evenodd" clip-rule="evenodd" fill="#FDE9B0" d="M499.351,250.121c3.246,0.113,5.786,2.838,5.672,6.083
						c-0.113,3.247-2.837,5.787-6.084,5.674c-3.246-0.113-5.786-2.838-5.673-6.085C493.38,252.548,496.104,250.008,499.351,250.121
						L499.351,250.121z"/>
				</g>
				<g>
					<path fill-rule="evenodd" clip-rule="evenodd" fill="#FDE9B0" d="M497.629,269.466c3.071,1.058,4.705,4.405,3.647,7.477
						s-4.406,4.704-7.477,3.647c-3.072-1.058-4.705-4.406-3.648-7.478C491.209,270.041,494.557,268.408,497.629,269.466
						L497.629,269.466z"/>
				</g>
				<g>
					<path fill-rule="evenodd" clip-rule="evenodd" fill="#FDE9B0" d="M490.082,287.364c2.662,1.863,3.308,5.531,1.445,8.193
						c-1.863,2.661-5.531,3.308-8.193,1.444c-2.661-1.864-3.308-5.531-1.444-8.192C483.753,286.146,487.421,285.501,490.082,287.364
						L490.082,287.364z"/>
				</g>
				<g>
					<path fill-rule="evenodd" clip-rule="evenodd" fill="#FDE9B0" d="M478.304,302.808c2.297,2.297,2.297,6.022,0,8.318
						c-2.297,2.297-6.022,2.297-8.319,0c-2.297-2.297-2.297-6.021,0-8.318C472.282,300.51,476.006,300.51,478.304,302.808
						L478.304,302.808z"/>
				</g>
				<g>
					<path fill-rule="evenodd" clip-rule="evenodd" fill="#FDE9B0" d="M464.131,316.111c1.909,2.628,1.327,6.307-1.301,8.216
						c-2.629,1.909-6.307,1.326-8.217-1.302c-1.909-2.628-1.326-6.307,1.301-8.216C458.543,312.899,462.222,313.482,464.131,316.111
						L464.131,316.111z"/>
				</g>
				<g>
					<path fill-rule="evenodd" clip-rule="evenodd" fill="#FDE9B0" d="M448.24,327.291c1.674,2.785,0.772,6.398-2.012,8.071
						c-2.785,1.673-6.398,0.773-8.071-2.012c-1.673-2.785-0.772-6.398,2.012-8.071C442.953,323.606,446.567,324.506,448.24,327.291
						L448.24,327.291z"/>
				</g>
				<g>
					<path fill-rule="evenodd" clip-rule="evenodd" fill="#FDE9B0" d="M431.363,336.918c1.424,2.92,0.212,6.441-2.708,7.865
						c-2.92,1.424-6.441,0.212-7.866-2.708c-1.424-2.921-0.211-6.441,2.709-7.866C426.418,332.785,429.94,333.997,431.363,336.918
						L431.363,336.918z"/>
				</g>
				<g>
					<path fill-rule="evenodd" clip-rule="evenodd" fill="#FDE9B0" d="M413.781,345.197c1.164,3.034-0.351,6.436-3.384,7.601
						c-3.032,1.164-6.435-0.351-7.599-3.384c-1.164-3.033,0.35-6.436,3.383-7.599C409.214,340.651,412.617,342.165,413.781,345.197
						L413.781,345.197z"/>
				</g>
				<g>
					<path fill-rule="evenodd" clip-rule="evenodd" fill="#FDE9B0" d="M395.613,352.095c1.004,3.09-0.686,6.408-3.776,7.412
						c-3.09,1.004-6.408-0.687-7.412-3.776c-1.004-3.089,0.687-6.408,3.776-7.412C391.291,347.315,394.61,349.005,395.613,352.095
						L395.613,352.095z"/>
				</g>
				<g>
					<path fill-rule="evenodd" clip-rule="evenodd" fill="#FDE9B0" d="M377.071,357.903c0.841,3.138-1.022,6.364-4.16,7.204
						c-3.138,0.841-6.363-1.022-7.204-4.16c-0.841-3.138,1.022-6.364,4.16-7.204C373.004,352.903,376.23,354.765,377.071,357.903
						L377.071,357.903z"/>
				</g>
				<g>
					<path fill-rule="evenodd" clip-rule="evenodd" fill="#FDE9B0" d="M358.246,362.718c0.676,3.178-1.353,6.301-4.53,6.976
						c-3.178,0.676-6.302-1.353-6.977-4.53c-0.676-3.179,1.354-6.302,4.531-6.977C354.447,357.511,357.571,359.539,358.246,362.718
						L358.246,362.718z"/>
				</g>
				<g>
					<path fill-rule="evenodd" clip-rule="evenodd" fill="#FDE9B0" d="M339.207,366.611c0.509,3.209-1.681,6.222-4.89,6.73
						c-3.208,0.508-6.222-1.681-6.73-4.891c-0.508-3.207,1.681-6.222,4.89-6.729C335.686,361.212,338.7,363.402,339.207,366.611
						L339.207,366.611z"/>
				</g>
				<g>
					<path fill-rule="evenodd" clip-rule="evenodd" fill="#FDE9B0" d="M319.999,369.542c0.396,3.224-1.897,6.159-5.122,6.555
						c-3.224,0.396-6.159-1.897-6.555-5.122c-0.396-3.225,1.897-6.16,5.122-6.555C316.669,364.025,319.604,366.317,319.999,369.542
						L319.999,369.542z"/>
				</g>
				<g>
					<path fill-rule="evenodd" clip-rule="evenodd" fill="#FDE9B0" d="M300.693,371.752c0.227,3.241-2.217,6.052-5.458,6.279
						c-3.241,0.227-6.052-2.216-6.278-5.458c-0.227-3.24,2.216-6.051,5.457-6.279C297.655,366.068,300.466,368.512,300.693,371.752
						L300.693,371.752z"/>
				</g>
				<g>
					<path fill-rule="evenodd" clip-rule="evenodd" fill="#FDE9B0" d="M281.305,373.073c0.113,3.247-2.426,5.971-5.673,6.084
						c-3.247,0.114-5.971-2.426-6.085-5.673c-0.113-3.246,2.427-5.971,5.674-6.085C278.469,367.286,281.192,369.827,281.305,373.073
						L281.305,373.073z"/>
				</g>
				<g>
					<path fill-rule="evenodd" clip-rule="evenodd" fill="#FDE9B0" d="M269.556,138.516c0.113-3.247,2.838-5.787,6.084-5.674
						c3.247,0.113,5.786,2.838,5.673,6.085c-0.113,3.246-2.837,5.787-6.084,5.673C271.982,144.487,269.442,141.762,269.556,138.516
						L269.556,138.516z"/>
				</g>
				<g>
					<path fill-rule="evenodd" clip-rule="evenodd" fill="#FDE9B0" d="M288.964,139.427c0.226-3.241,3.037-5.685,6.279-5.458
						c3.24,0.226,5.684,3.037,5.457,6.278c-0.226,3.241-3.037,5.684-6.278,5.458C291.181,145.479,288.737,142.668,288.964,139.427
						L288.964,139.427z"/>
				</g>
				<g>
					<path fill-rule="evenodd" clip-rule="evenodd" fill="#FDE9B0" d="M308.328,141.023c0.396-3.224,3.331-5.517,6.556-5.121
						c3.224,0.396,5.516,3.331,5.121,6.555c-0.396,3.225-3.33,5.517-6.555,5.122C310.225,147.183,307.933,144.248,308.328,141.023
						L308.328,141.023z"/>
				</g>
				<g>
					<path fill-rule="evenodd" clip-rule="evenodd" fill="#FDE9B0" d="M327.593,143.548c0.508-3.208,3.521-5.397,6.73-4.89
						c3.209,0.509,5.398,3.521,4.89,6.73c-0.508,3.209-3.521,5.398-6.73,4.89C329.274,149.77,327.085,146.757,327.593,143.548
						L327.593,143.548z"/>
				</g>
				<g>
					<path fill-rule="evenodd" clip-rule="evenodd" fill="#FDE9B0" d="M346.742,146.836c0.676-3.178,3.799-5.207,6.977-4.531
						c3.178,0.675,5.206,3.799,4.53,6.977c-0.676,3.177-3.799,5.206-6.976,4.53C348.096,153.137,346.067,150.013,346.742,146.836
						L346.742,146.836z"/>
				</g>
				<g>
					<path fill-rule="evenodd" clip-rule="evenodd" fill="#FDE9B0" d="M365.71,151.051c0.841-3.138,4.066-5,7.204-4.16
						c3.138,0.841,5.001,4.066,4.16,7.204c-0.841,3.138-4.066,5-7.204,4.16C366.732,157.414,364.869,154.189,365.71,151.051
						L365.71,151.051z"/>
				</g>
				<g>
					<path fill-rule="evenodd" clip-rule="evenodd" fill="#FDE9B0" d="M384.427,156.269c1.003-3.089,4.322-4.781,7.412-3.776
						c3.09,1.004,4.781,4.322,3.777,7.412c-1.004,3.089-4.322,4.781-7.412,3.776C385.113,162.677,383.423,159.359,384.427,156.269
						L384.427,156.269z"/>
				</g>
				<g>
					<path fill-rule="evenodd" clip-rule="evenodd" fill="#FDE9B0" d="M402.799,162.585c1.164-3.033,4.567-4.548,7.599-3.383
						c3.034,1.164,4.549,4.567,3.384,7.599c-1.164,3.033-4.567,4.549-7.6,3.384C403.15,169.021,401.634,165.618,402.799,162.585
						L402.799,162.585z"/>
				</g>
				<g>
					<path fill-rule="evenodd" clip-rule="evenodd" fill="#FDE9B0" d="M420.79,169.925c1.424-2.92,4.946-4.133,7.866-2.709
						c2.92,1.425,4.132,4.946,2.708,7.866c-1.424,2.919-4.945,4.132-7.865,2.708C420.577,176.366,419.365,172.844,420.79,169.925
						L420.79,169.925z"/>
				</g>
				<g>
					<path fill-rule="evenodd" clip-rule="evenodd" fill="#FDE9B0" d="M438.155,178.649c1.674-2.785,5.287-3.686,8.072-2.012
						c2.785,1.673,3.686,5.287,2.013,8.071c-1.674,2.785-5.288,3.686-8.072,2.012S436.482,181.434,438.155,178.649L438.155,178.649z
						"/>
				</g>
				<g>
					<path fill-rule="evenodd" clip-rule="evenodd" fill="#FDE9B0" d="M454.611,188.975c1.91-2.629,5.588-3.212,8.217-1.301
						c2.628,1.909,3.211,5.588,1.301,8.216c-1.909,2.628-5.587,3.212-8.216,1.302C453.283,195.281,452.701,191.602,454.611,188.975
						L454.611,188.975z"/>
				</g>
				<g>
					<path fill-rule="evenodd" clip-rule="evenodd" fill="#FDE9B0" d="M469.98,200.874c2.297-2.297,6.022-2.297,8.318,0
						c2.297,2.297,2.297,6.021,0,8.318c-2.297,2.297-6.022,2.297-8.318,0C467.683,206.895,467.683,203.17,469.98,200.874
						L469.98,200.874z"/>
				</g>
				<g>
					<path fill-rule="evenodd" clip-rule="evenodd" fill="#FDE9B0" d="M483.329,214.999c2.661-1.863,6.329-1.216,8.192,1.445
						c1.864,2.661,1.217,6.329-1.444,8.193c-2.661,1.863-6.329,1.216-8.193-1.445C480.021,220.531,480.667,216.863,483.329,214.999
						L483.329,214.999z"/>
				</g>
				<g>
					<path fill-rule="evenodd" clip-rule="evenodd" fill="#FDE9B0" d="M493.791,231.41c3.072-1.057,6.419,0.576,7.477,3.648
						c1.058,3.071-0.575,6.419-3.647,7.476c-3.071,1.058-6.42-0.575-7.477-3.646C489.086,235.816,490.719,232.468,493.791,231.41
						L493.791,231.41z"/>
				</g>
				<g>
					<g>
						<path fill-rule="evenodd" clip-rule="evenodd" fill="#FDE9B0" d="M243.35,189.217v2.999h-7.611v-2.999v-8.997v-2.999h7.611
							v2.999h7.269v-10.728h-18.308v3.807h-7.612l0.001-3.807v-7.613h48.239c7.549,0,13.669,6.12,13.669,13.669
							c0,3.451-1.278,6.602-3.387,9.008c2.524,2.587,4.079,6.125,4.079,10.025c0,7.932-6.43,14.362-14.362,14.362h-48.239
							l-0.001-7.614v-3.806h7.612v3.806h18.308v-12.111H243.35L243.35,189.217z M272.938,180.219c3.335,0,5.364-2.402,5.364-5.364
							c0-2.963-2.029-5.364-5.364-5.364h-12.285v10.728H272.938L272.938,180.219z M272.938,201.328c3.789,0,6.056-2.711,6.056-6.056
							c0-3.344-2.267-6.056-6.056-6.056h-12.285v12.111H272.938L272.938,201.328z"/>
					</g>
				</g>
				<g>
					<g>
						<path fill="#FDE9B0" d="M216.561,227.53c-11.372,0-21.187,9.46-21.187,20.903v33.148c0,11.443,9.816,20.91,21.187,20.91
							c14.414,0,20.883-8.213,20.883-20.91v-16.37l-16.985-0.002v7.558h7.827v8.814c0,6.798-5.057,11.262-11.917,10.659
							c-5.801-0.51-9.901-5.461-9.901-10.653v-33.154c0-5.684,4.042-10.607,9.901-11.123c6.796-0.597,11.603,4.168,11.903,10.495
							h9.167C237.228,235.466,230.738,227.53,216.561,227.53z"/>
						<path fill="#FDE9B0" d="M163.49,281.58c0,5.282-4.104,9.75-9.941,9.75s-9.939-4.469-9.939-9.749l-0.002-52.245h-11.093v52.245
							c0,11.461,9.681,20.903,21.034,20.903c11.355,0,21.035-9.441,21.035-20.903v-52.245H163.49V281.58z"/>
						<path fill="#FDE9B0" d="M272.108,229.336l-18.236,71.342h11.478l3.153-13.951h23.638l2.829,13.951h11.391l-16.413-71.342
							H272.108z M270.514,277.834l8.19-36.232l4.295,0.048l7.339,36.184H270.514z"/>
						<path fill="#FDE9B0" d="M104.884,264.943l-3.347-1.823l3.255-1.983c3.958-2.409,6.689-9.294,6.689-14.067
							c0-7.272-5.28-17.734-17.162-17.733H71.347v71.341h24.908c9.92,0,17.163-10.707,17.163-19.727
							C113.418,272.395,109.415,267.411,104.884,264.943z M82.441,236.901h8.006c5.306,0,9.94,4.058,9.94,11.165
							c0,6.439-3.504,11.166-9.94,11.166h-8.006V236.901z M92.383,293.113h-9.941v-26.318h9.941c5.834,0,9.94,6.686,9.94,13.159
							C102.323,285.767,99.286,293.113,92.383,293.113z"/>
						<rect x="429.557" y="229.336" fill="#FDE9B0" width="11.094" height="71.342"/>
						<polygon fill="#FDE9B0" points="371.168,238.893 386.656,238.893 386.656,300.819 397.749,300.819 397.749,238.893 
							413.237,238.893 413.237,229.336 371.168,229.336 						"/>
						<polygon fill="#FDE9B0" points="314.493,238.893 329.981,238.893 329.981,300.819 341.073,300.819 341.073,238.893 
							356.562,238.893 356.562,229.336 314.493,229.336 						"/>
					</g>
				</g>
			</g>
		</g>
	</g>
</g>
</svg>
