<?xml version="1.0" encoding="utf-8"?>
<!-- Generator: Adobe Illustrator 18.0.0, SVG Export Plug-In . SVG Version: 6.00 Build 0)  -->
<!DOCTYPE svg PUBLIC "-//W3C//DTD SVG 1.1//EN" "http://www.w3.org/Graphics/SVG/1.1/DTD/svg11.dtd">
<svg version="1.1" id="Warstwa_1" xmlns="http://www.w3.org/2000/svg" xmlns:xlink="http://www.w3.org/1999/xlink" x="0px" y="0px"
	 width="512px" height="512px" viewBox="0 0 512 512" enable-background="new 0 0 512 512" xml:space="preserve">
<g>
	<path fill="#AFBBC3" d="M256.348,0c-0.117,0-0.23,0.001-0.347,0.001c-0.116,0-0.23-0.001-0.347-0.001
		C187.453,0,139.021,8.403,58.958,26.688l21.745,286.641c3.954,82.039,81.05,150.239,174.95,198.671
		c0.116-0.06,0.231-0.121,0.347-0.18c0.116,0.06,0.231,0.121,0.347,0.181c93.898-48.433,170.995-116.633,174.949-198.672
		l21.745-286.641C372.98,8.402,324.547,0,256.348,0z"/>
	<g>
		<path fill="#AFBBC3" d="M256.347,0C188.146,0,139.714,8.402,59.652,26.688l21.745,286.641
			c3.954,82.038,81.05,150.238,174.95,198.672c93.898-48.433,170.995-116.633,174.949-198.672l21.745-286.641
			C372.98,8.402,324.547,0,256.347,0z"/>
		<g>
			<g>
				<path fill="#36464E" d="M255.654,0C187.453,0,139.021,8.403,58.958,26.688l21.745,286.641
					c3.954,82.039,81.05,150.239,174.95,198.671c93.898-48.433,170.996-116.633,174.949-198.671l21.745-286.641
					C372.287,8.403,323.854,0,255.654,0z M71.732,91.417C159.268,68.487,212.53,66.346,251.7,65.783v97.306h-70.178l0.039,8.289
					c-2.329-0.473-5.025-0.953-6.291-0.826c1.311-8.945,7.907-13.492,8.576-14.159c0.667-0.667,1.334-2.273-0.223-2.273
					c-12.454,1.111-18.36,14.381-19.249,17.717c-1.112,0.223-7.981,1.828-10.205,2.495c1.334-14.011,10.601-20.534,11.935-21.423
					c1.334-0.89,1.779-2.224,0-2.224c-15.221,0.296-23.574,23.351-24.464,27.132c-2.89,1.112-9.686,4.399-11.91,5.733
					c-1.088-17.742,13.64-29.826,14.53-30.715c0.89-0.889,1.557-2.446-0.445-2.001c-18.904,2.669-24.537,33.384-24.871,37.053
					c-0.445,3.448-3.558,2.113-4.311,1.735c-0.918-0.548-1.992-0.863-3.14-0.863c-3.387,0-6.133,2.746-6.133,6.133
					c0,0.579,0.081,0.973,0.231,1.504c-2.202,0.931-4.012,3.295-4.012,5.835c0,3.387,2.746,6.133,6.133,6.133
					c1.406,0,2.593-0.394,3.627-1.188c1.124,1.274,2.77,2.078,4.602,2.078c3.387,0,7.34-2.575,7.562-9.469
					c22.461-14.677,38.743-18.71,48.481-18.681c6.227,0.019,8.258,1.276,9.557,2.454l-0.022,29.278
					c-6.775,2.843-14.692,11.532-15.695,12.821c-1.167-0.334-5.035-0.457-6.703-0.291c0.983-6.709,5.931-13.578,6.431-14.078
					c0.5-0.5,1.002-1.705-0.167-1.705c-9.34,0.834-14.264,15.234-14.931,17.736c-0.834,0.167-4.997,0.877-6.665,1.378
					c1.001-10.508,5.973-16.389,6.974-17.057c1.002-0.667,1.334-1.668,0-1.668c-11.416,0.222-16.197,21.714-16.864,24.55
					c-2.168,0.834-5.783,3.546-7.451,4.547c-0.814-13.307,5.288-23.852,5.955-24.519c0.667-0.667,1.168-1.835-0.333-1.501
					c-13.807,3.91-13.46,29.732-13.711,32.485c-0.333,2.585-2.174,1.338-2.739,1.054c-0.688-0.411-1.494-0.648-2.354-0.648
					c-2.541,0-4.599,2.06-4.599,4.6c0,0.434,0.06,0.729,0.172,1.128c-1.65,0.698-3.007,2.471-3.007,4.376
					c0,2.54,2.059,4.599,4.599,4.599c1.054,0,1.944-0.296,2.72-0.891c0.843,0.956,2.077,1.558,3.451,1.558
					c2.541,0,5.505-1.931,5.672-7.101c12.052-14.764,32.763-21.665,40.067-21.671c12.348-0.009,16.488,3.408,19.174,5.524
					l0.007,33.327l-96.032,0.02L71.732,91.417z M110.125,380.255c-10.183-16.997-17.394-35.153-20.418-54.369l104.647-0.115
					c11.325,16.342,30.273,30.216,57.344,31.453v23.012L110.125,380.255z M157.299,436.05l94.4-0.215l0.001,64.674
					C220.136,483.826,186.104,462.129,157.299,436.05z M189.43,283.676v-112.68h66.224h66.223v112.68
					c0,30.641-25.699,65.729-66.223,65.729C215.128,349.405,189.43,314.317,189.43,283.676z M421.707,325.189
					c-11.86,78.085-92.911,138.873-162.1,175.444l0.002-143.41c11.597-0.53,21.702-3.378,30.356-7.748l-0.209,1.981
					c-2.32,6.803-2.191,9.664-2.325,11.132c-0.396,3.064-4.152,3.361-4.821,3.025c-0.816-0.487-1.771-0.767-2.79-0.767
					c-3.011,0-5.452,2.44-5.452,5.451c0,0.515,0.071,0.865,0.205,1.337c-1.957,0.827-2.824,2.434-2.824,4.693
					c0,3.011,1.947,5.451,4.958,5.451c1.249,0,2.057,0.144,2.977-0.562c0.999,1.133,2.461,1.847,4.09,1.847
					c3.011,0,4.547-0.806,4.744-6.934c20.139-10.663,50.78-18.818,64.346-18.088c15.341,0.824,26.49,16.21,27.676,17.198
					c1.186,0.988,2.174,0.988,1.976-0.593c-0.988-6.326-2.94-15.852-17.889-24.019c0.988-4.151,8.277-4.929,9.636-5.535
					c1.022-0.455,1.384-1.78,0-1.78c-10.008-1.321-17.148,3.163-18.533,4.942c-1.384-0.396-8.154-0.89-10.131-0.692
					c1.112-5.077,4.077-8.785,8.501-12.504c-0.642,0.54,1.186-1.581-0.198-1.581c-11.07,0.988-17.94,12.454-18.731,15.419
					c-0.989,0.198-12.998,2.174-14.974,2.768c1.803-11.651,15.024-19.571,16.21-20.361c1.187-0.791,1.581-1.978,0-1.978
					c-16.63,0.556-28.812,22.042-29.405,26.589c-2.569,0.988-6.524,2.372-8.5,3.559c-0.689-7.747-0.544-10.142,1.566-14.761
					l1.112-2.299c19.312-14.854,28.604-37.714,28.604-53.799v-9.579l95.442-0.294L421.707,325.189z M425.516,271.39l-95.902-0.294
					l0.17-54.422l100.01-0.281L425.516,271.39z M433.807,163.726l-104.022-0.005v-2.397h-70.177v-55.33l178.497,1.015
					L433.807,163.726z M255.654,57.329c-45.468,0-97.359,3.46-184.649,25.304l-3.644-49.026
					c34.1-8.401,107.243-25.698,188.293-25.698c81.05,0,154.193,17.297,188.293,25.698l-3.644,49.026
					C353.012,60.789,301.121,57.329,255.654,57.329z"/>
				<path fill="#36464E" d="M346.588,395.95c0.791-3.321,5.881-4.932,6.969-5.416c0.817-0.365,1.107-1.423,0-1.423
					c-8.006-1.057-14.214,3.025-15.321,4.447c-1.107-0.316-6.523-0.711-8.105-0.553c0.89-4.062,7.463-7.769,11.002-10.744
					c-0.514,0.432,0.949-1.265-0.158-1.265c-9.707-0.207-18.059,10.211-18.691,12.583c-0.791,0.158-8.668,1.739-10.25,2.214
					c1.443-9.321,13.008-15.41,13.957-16.042c0.948-0.632,1.264-1.582,0-1.582c-13.304,0.445-24.286,16.892-24.761,20.53
					c-2.056,0.79-6.701,2.392-8.283,3.341c-0.996-11.208,11.622-21.259,10.546-20.185c0.633-0.632,1.107-1.738-0.316-1.423
					c-13.442,1.898-18.849,21.489-19.086,24.098c-0.317,2.451-3.321,2.688-3.857,2.42c-0.653-0.39-1.416-0.614-2.233-0.614
					c-2.409,0-4.361,1.953-4.361,4.361c0,0.412,0.057,0.692,0.164,1.07c-1.565,0.662-2.259,1.947-2.259,3.754
					c0,2.409,1.556,4.361,3.965,4.361c1,0,1.646,0.115,2.382-0.45c0.799,0.906,1.969,1.478,3.273,1.478
					c2.408,0,3.636-0.645,3.795-5.547c16.112-8.53,39.636-14.312,50.489-13.729c12.274,0.659,21.439,9.509,22.388,10.3
					c0.949,0.79,1.74,0.79,1.582-0.475C358.627,406.398,355.237,401.051,346.588,395.95z"/>
				<path fill="#36464E" d="M320.071,434.042c0.542-2.272,2.541-3.621,3.284-3.952c0.56-0.25,0.757-0.974,0-0.974
					c-5.476-0.723-8.239,2.687-8.996,3.66c-0.757-0.216-3.35-0.116-4.432-0.008c0.609-2.779,3.87-6.056,6.289-8.09
					c-0.351,0.296,0.649-0.865-0.108-0.865c-6.64-0.142-13.218,8.713-13.65,10.336c-1.214,0.384-4.303,0.878-5.529,1.514
					c0.988-6.375,4.82-10.417,5.469-10.849c0.649-0.433,0.866-1.082,0-1.082c-9.099,0.304-12.163,11.802-12.488,14.289
					c-1.406,0.541-3.472,1.266-4.553,1.915c-1.411-8.121,4.243-14.665,3.507-13.93c0.433-0.432,0.757-1.189-0.216-0.973
					c-8.285,1.468-9.186,15.192-9.349,16.977c-0.215,1.676-2.271,1.839-2.637,1.655c-0.446-0.267-0.969-0.42-1.528-0.42
					c-1.647,0-2.982,1.336-2.982,2.983c0,0.282,0.039,0.473,0.112,0.732c-1.07,0.453-1.545,1.332-1.545,2.568
					c0,1.648,1.065,2.983,2.712,2.983c0.683,0,1.126,0.079,1.629-0.308c0.547,0.621,1.347,1.012,2.239,1.012
					c1.647,0,3.228-0.689,3.337-4.042c11.218-6.856,25.751-10.902,33.175-10.503c8.395,0.452,14.17,4.404,14.818,4.945
					c0.649,0.541,1.19,0.541,1.081-0.324C329.171,439.828,326.449,437.127,320.071,434.042z"/>
				<path fill="#36464E" d="M303.592,274.78c2.718,1.236,8.896,0.988,9.637-0.741c0.742-1.73,0.494-5.189,0-5.931
					c1.73-1.482,2.966-4.695,1.977-6.177c-0.989-1.482-1.483-3.46-0.989-5.436c-1.729-0.247-3.583-1.729-2.348-2.842
					c1.236-1.112,3.707-3.707,2.595-7.042c0.371-2.101,0.494-4.695-3.089-4.572c-0.124-1.359-1.235-5.807-6.795-1.73
					c-0.865,0.618-1.853-0.741-0.617-1.112c1.235-0.371,7.66-2.471,8.648-4.695c0.988-2.224,0.618-3.336,0.247-4.201
					c0.495-0.988,0.988-2.965,0.495-3.707c-0.495-0.742-2.472-0.618-3.831,2.718c-1.359,3.336-0.988,3.336-4.571,3.954
					c-3.583,0.618-6.301,0-8.649,3.953c-0.741,0.988-1.112,2.1-2.842,3.088c-1.73,0.989-2.718,2.595-2.966,3.954
					c-0.247,1.359,0.989,3.83,0.742,5.56c-0.248,1.73-1.235,5.436,3.336,9.39c2.224,2.471,5.56,5.683,3.089,8.155
					c-2.471,2.471-4.695-0.124-6.549-1.359c-1.853-1.236-7.907-3.089-11.861-2.842c-3.954,0.248-16.926-2.965-20.015-5.56
					c-3.088-2.594-1.2-3.909,0.371-4.695c1.111-0.494,1.853-0.988,2.47-2.223c0.619-1.236,1.607-1.482,2.719-1.482
					c1.112,0,2.224-0.248,3.212-2.595c0.988-2.348,1.977-1.483,3.089-1.73c1.112-0.247,1.853-2.594-0.123-3.336
					c-1.977-0.741-3.089-1.483-2.966-2.224c0.124-0.741,1.482-2.347,3.336-2.471c1.852-0.123,1.976-1.359,1.852-2.348
					c-0.123-0.988,0-1.606,1.236-2.224c1.235-0.618,1.111-2.1-0.99-2.718c-2.099-0.618-5.188-1.359-5.188-2.348
					c0-0.988,1.359-2.718,2.718-3.212c1.358-0.494,1.977-2.595-1.112-2.471c-3.088,0.123-4.818,0.494-5.436-1.482
					c-0.618-1.977-0.741-3.089,2.471-4.324c1.359-0.371,1.73-2.224-0.742-2.101c-2.471,0.123-5.312,1.359-6.177,0.494
					c-0.865-0.865-0.618-1.606-0.124-1.977c0.495-0.371,0.618-1.607-0.617-1.607c-0.609,0-2.09,0.45-3.583,0.743
					c-1.534,0.302-3.08,0.44-3.706-0.249c-1.236-1.359-3.212-2.1-4.819-1.112c-1.606,0.988-1.606,2.471-0.741,3.336
					c0.864,0.865-0.248,2.224-1.236,1.359c-0.988-0.865-0.618-1.482-0.618-1.853s-0.741-1.606-1.606-2.1
					c-0.865-0.494-0.865-1.853-0.617-2.718c0.247-0.865-0.742-1.73-2.224-0.865c-1.483,0.865-2.842,2.348-2.101,4.572
					c-1.606,0.123-5.683,1.112-5.806,2.348c-0.123,1.235,0.494,2.595,0.248,3.089c-0.248,0.494-1.607,0.494-2.349,0.988
					c-2.1,2.1-5.683,4.077-6.548,4.942c-0.865,0.865-1.483,1.73-2.595,3.089c-1.112,1.236-1.21,2.653-0.741,3.336
					c1.359,1.977,2.471,0.618,3.212,1.73c0.741,1.112,0.741,1.359,0.617,1.977c-0.123,0.618,1.359,1.977,3.583,0.124
					c2.224-1.854,3.83-3.831,5.56-1.73c1.73,2.1,0.123,3.336-0.617,4.695c-1.483,1.483-4.943,6.054-6.549,7.413
					c-1.606,1.359-2.842,4.572-3.459,7.537c-0.618,2.965-1.359,3.583-1.977,4.324c-2.965-1.112-6.301-2.471-8.155-3.953
					c-1.236-0.988-3.953-2.224-5.683,0.247c-0.865,0.988-5.313,7.042-6.425,9.636c-1.112,2.594-2.842,1.606-2.842,6.548
					c0,1.729-1.359,2.471-2.101,5.189c-0.124,0.741-2.101,5.312-0.124,6.177c1.977,0.865,4.324-0.247,4.818-1.482
					c0.495-1.235,0.619-5.066,0.742-6.425c0.618-1.853,2.595-4.076,2.842-5.189c0.248-1.112-0.123-1.977,0.618-3.089
					c0.742-1.112,2.842-3.212,3.583-3.953c0.74-0.742,3.335-1.853,4.695,1.112c1.359,2.966,3.706,9.514,8.401,11.49
					c-1.853,0.988-6.301,2.595-8.648,3.089c-2.347,0.494-4.201,0.864-3.212,6.672c0.988,5.807,1.236,8.278,0.865,10.131
					c-0.371,1.853-0.494,5.806,2.966,8.896l3.088,4.324c1.235,1.112,4.201,2.347,4.447-0.123c0.248-2.471,0.989-4.942-1.483-5.189
					c-0.865-0.123-3.212-2.101-2.965-4.324c0.247-2.224-0.371-4.077-1.359-5.931c-0.989-1.853-1.359-3.953-0.865-5.807
					c0.494-1.853,1.853-2.965,4.942-2.347c2.471,0.865,13.838,3.953,17.297,0.124c1.929,1.421,11.697,5.172,19.645,5.986
					c1.723,0.177,3.365,0.221,4.818,0.067c1.483,2.595,4.571,8.278,6.548,9.885c1.607,1.482,2.224,6.177-0.494,8.649
					c-1.606,1.235-5.807,5.559-9.266,6.547c-0.601,0.172-1.119,0.331-1.606,0.487c-2.314,0.745-3.491,1.398-4.819,2.726
					c-1.606,1.606-2.594,1.606-3.583,3.707c-0.988,2.1-3.212,5.806,0.371,5.806s4.571-1.729,4.819-2.718
					c0.247-0.988,0-3.088,1.359-3.459c0.401-0.109,1.066-0.218,1.853-0.391c1.882-0.415,4.545-1.247,6.548-3.686
					c2.842-3.46,8.525-5.313,10.749-5.683c2.223-0.371,2.471-2.595,2.223-3.707c-0.247-1.112-0.371-3.954,0.989-5.436
					c1.976,0.494,8.278,1.853,11.244,5.931c0.494,1.112,0.617,1.73,1.111,2.471c-0.865,1.483-2.595,2.842-3.212,4.324
					c-0.617,1.483-1.359,3.954-4.201,6.178c-2.842,2.224-5.313,3.583-6.671,5.56c-1.359,1.977-2.224,4.077-1.977,6.795
					c0.247,2.718,0.988,1.36,2.224,1.36c1.236,0,4.077-1.36,4.201-3.213c0.124-1.853-0.742-2.718,1.853-3.829
					c2.595-1.112,7.166-4.819,8.155-7.166s3.953-6.919,6.301-8.278c2.348-1.359,1.853-3.337,0.742-5.313
					c-1.112-1.977-4.943-7.289-4.201-10.749c0.741-3.459,4.818-5.56,6.054-10.872c1.236-5.313,0.494-7.784-0.247-9.637
					C299.638,273.051,300.874,273.545,303.592,274.78z"/>
				<path fill="#36464E" d="M107.22,153.756c1.249,1.417,3.077,2.309,5.113,2.309c3.764,0,8.155-2.86,8.402-10.521
					c24.957-16.309,51.892-23.228,66.223-23.228c14.332,0,25.699,9.143,27.182,10.378c1.483,1.236,2.718,1.236,2.471-0.741
					c-1.235-7.907-11.86-15.074-15.568-17.05c1.236-5.189,7.661-10.872,8.649-11.86c0.989-0.988,1.73-2.224,0-2.224
					c-10.625,0.741-18.038,8.896-19.768,11.119c-1.73-0.493-8.649-0.493-11.12-0.247c0-9.884,9.884-18.286,10.626-19.027
					c0.741-0.742,1.482-1.977-0.248-1.977c-13.838,1.235-21.498,19.273-22.487,22.98c-1.235,0.248-9.142,1.482-11.613,2.224
					c1.482-15.567,12.602-24.463,14.084-25.452c1.483-0.988,1.977-2.471,0-2.471c-18.285,0.494-26.44,26.934-27.182,32.618
					c-3.212,1.235-11.86,5.436-14.332,6.918c-1.977-22.239,14.332-35.336,15.321-36.324c0.988-0.988,1.73-2.718-0.494-2.224
					c-21.004,2.965-26.441,39.29-26.812,43.367c-0.493,3.83-3.953,2.347-4.789,1.929c-1.02-0.61-2.214-0.96-3.488-0.96
					c-3.764,0-6.814,3.051-6.814,6.815c0,0.643,0.089,1.08,0.255,1.671c-2.446,1.034-4.457,3.66-4.457,6.483
					c0,3.763,3.051,6.814,6.815,6.814C104.751,155.077,106.071,154.64,107.22,153.756z"/>
				<path fill="#36464E" d="M225.203,34.07c1.369-2.304,2.278-4.884,2.282-7.424c0.013-8.89-5.685-10.213-12.169-9.691l-35.418,2.36
					l0.933,34.111l8.499-0.401l-0.233-13.643l23.591-1.536c4.645-0.323,7.383,2.804,7.394,7.798l-0.005,5.016l8.539-0.412
					l0.011-5.709C228.658,39.164,226.989,35.46,225.203,34.07z M214.165,30.383l-25.301,1.414l-0.11-5.42l25.626-1.348
					c1.984,0.053,2.804,0.763,2.887,2.569C217.353,29.406,215.919,30.247,214.165,30.383z"/>
				<path fill="#36464E" d="M109.986,32.124l-35.213,7.907l2.471,34.347l8.525-1.977l-1.111-13.591l29.528-6.672
					c5.56-1.236,7.043-4.571,6.796-12.479C120.735,31.754,114.434,31.136,109.986,32.124z M108.751,45.467l-24.587,5.436
					l-0.248-5.066c0,0,21.251-4.818,23.723-5.313c2.471-0.494,3.364,0.746,3.459,1.606
					C111.221,43.244,110.851,44.973,108.751,45.467z"/>
				<path fill="#36464E" d="M174.727,30.147c0-6.424-7.784-8.771-11.244-8.154l-28.54,4.695c-8.771,1.359-8.648,6.054-8.648,9.266
					l0.37,15.568c0.248,8.896,7.907,9.637,12.602,8.771l26.44-4.2c9.267-1.36,9.514-5.931,9.39-9.39L174.727,30.147z
					 M162.001,48.804l-21.621,3.459c-2.966,0.494-4.942,0.618-5.189-3.212l-0.248-9.267c0-2.594-0.123-5.066,4.448-5.93
					l21.869-3.708c2.348-0.37,4.818,1.36,4.818,3.708l0.247,10.131C166.325,45.592,165.584,48.186,162.001,48.804z"/>
				<path fill="#36464E" d="M273.939,29.529l-18.285,0.003l-8.897,0.002c-1.64,0-2.97-1.33-2.97-2.97c0-1.641,1.33-2.97,2.97-2.97
					h8.897h25.945v-7.408h-25.945H242.68c-1.977,0-8.648,0.433-8.586,10.502c0.061,10.069,7.104,10.255,8.586,10.255l12.974-0.002
					l14.332-0.003c1.64,0,2.97,1.33,2.97,2.971c0,1.64-1.33,2.723-2.97,2.723h-14.332h-20.51v7.408h20.51h18.285
					c2.471,0,8.958,0.371,8.958-10.316C282.896,29.035,275.607,29.529,273.939,29.529z"/>
				<polygon fill="#36464E" points="378.711,39.908 350.047,34.472 350.788,21.622 342.634,20.387 340.533,55.475 348.688,56.588 
					349.677,41.514 378.341,46.951 377.352,61.282 385.507,62.765 387.607,27.799 379.577,26.317 				"/>
				<polygon fill="#36464E" points="393.166,63.877 431.839,72.155 432.457,65.113 401.815,58.565 402.186,51.522 432.951,58.07 
					433.445,51.028 402.68,44.479 402.928,38.055 433.939,44.603 434.433,37.561 395.144,29.283 				"/>
				<path fill="#36464E" d="M289.506,26.564c-0.494,10.131-0.741,14.703-0.741,14.703c-0.123,3.459,1.977,9.266,8.525,9.761
					l36.077,2.717l0.371-7.66l-30.146-2.224c-2.842-0.123-5.931-0.988-5.684-6.177l0.247-7.413c0.124-2.966,1.112-5.683,5.807-5.313
					l30.887,2.471l0.371-7.66l-36.2-2.842C295.931,16.68,290.001,16.433,289.506,26.564z"/>
				<path fill="#36464E" d="M201.845,195.756c-1.952,0-2.916-0.865-3.287-2.966h-2.916c0.099,1.655,0.297,2.472,0.865,3.385
					c1.013,1.731,2.767,2.595,5.239,2.595c1.779,0,2.916-0.37,3.929-1.285c1.211-1.088,1.853-2.595,1.853-4.3
					c0-2.422-0.914-3.559-3.015-4.523l-4.646-2.15c-0.667-0.321-1.038-0.791-1.038-1.359c0-1.211,1.063-2.076,2.546-2.076
					c1.655,0,2.471,0.815,2.767,2.793h2.965c-0.148-3.756-2.2-5.807-5.782-5.807c-3.262,0-5.412,2.174-5.412,5.461
					c0,2.199,0.89,3.559,2.866,4.472l4.523,2.101c0.939,0.445,1.31,0.89,1.31,1.557
					C204.613,194.891,203.477,195.756,201.845,195.756z"/>
				<polygon fill="#36464E" points="213.061,198.425 216.101,198.425 216.101,183.672 220.474,183.672 220.474,180.41 
					208.587,180.41 208.587,183.672 213.061,183.672 				"/>
				<path fill="#36464E" d="M228.529,198.771c4.745,0,5.955-3.138,5.955-7.241v-11.12h-3.039v11.046c0,2.966-0.79,4.053-2.965,4.053
					c-2.052,0-2.867-1.137-2.867-4.053V180.41h-3.04v11.12C222.573,195.682,223.809,198.771,228.529,198.771z"/>
				<polygon fill="#36464E" points="240.558,198.425 243.597,198.425 243.597,183.672 247.971,183.672 247.971,180.41 
					236.085,180.41 236.085,183.672 240.558,183.672 				"/>
				<path fill="#36464E" d="M267.69,198.771c1.852,0,3.262-0.815,4.423-2.62l0.296,2.274h2.101v-9.761h-6.129v3.09h3.337
					c-0.396,2.421-1.656,3.755-3.559,3.755c-2.496,0-4.127-2.397-4.127-6.079c0-3.756,1.582-6.104,4.127-6.104
					c1.656,0,2.644,0.865,3.236,2.817h3.114c-0.445-3.83-2.817-6.079-6.375-6.079c-4.374,0-7.241,3.781-7.241,9.514
					C260.893,194.966,263.711,198.771,267.69,198.771z"/>
				<path fill="#36464E" d="M280.438,194.644h5.363l1.013,3.781h3.312l-5.215-18.015h-3.435l-5.264,18.015h3.188L280.438,194.644z
					 M283.132,184.537l1.853,7.017h-3.708L283.132,184.537z"/>
				<path fill="#36464E" d="M294.864,191.308h2.793c2.817,0,2.446,1.631,2.521,4.275c0.025,1.607,0.074,1.853,0.371,2.841h3.361
					c-0.47-0.543-0.544-0.988-0.643-3.904c-0.124-3.485-0.297-3.979-1.73-4.745c1.582-1.038,2.1-2.101,2.1-4.177
					c0-1.779-0.543-3.213-1.531-4.151c-0.89-0.815-1.681-1.038-3.781-1.038h-6.499v18.015h3.039V191.308z M294.864,183.672h2.891
					c2.101,0,2.743,0.519,2.743,2.273c0,1.755-0.667,2.323-2.743,2.323h-2.891V183.672z"/>
				<polygon fill="#36464E" points="309.809,198.425 312.848,198.425 312.848,183.672 317.223,183.672 317.223,180.41 
					305.336,180.41 305.336,183.672 309.809,183.672 				"/>
				<polygon fill="#36464E" points="253.902,198.425 255.654,198.425 256.941,198.425 256.941,183.672 261.315,183.672 
					261.315,180.41 255.654,180.41 249.429,180.41 249.429,183.672 253.902,183.672 				"/>
			</g>
		</g>
	</g>
</g>
</svg>
