<?xml version="1.0" encoding="utf-8"?>
<!-- Generator: Adobe Illustrator 18.0.0, SVG Export Plug-In . SVG Version: 6.00 Build 0)  -->
<!DOCTYPE svg PUBLIC "-//W3C//DTD SVG 1.1//EN" "http://www.w3.org/Graphics/SVG/1.1/DTD/svg11.dtd">
<svg version="1.1" id="Warstwa_1" xmlns="http://www.w3.org/2000/svg" xmlns:xlink="http://www.w3.org/1999/xlink" x="0px" y="0px"
	 width="512px" height="512px" viewBox="0 0 512 512" enable-background="new 0 0 512 512" xml:space="preserve">
<path fill="#36464E" d="M258.501,0C118.498,0,5.002,114.615,5.002,256c0,20.129,2.373,39.688,6.723,58.478
	C4.282,330.505,0,348.315,0,367.157c0,68.724,55.362,124.632,123.414,124.632c9.839,0,19.364-1.293,28.543-3.5
	C184.356,503.47,220.433,512,258.501,512C398.505,512,512,397.385,512,256S398.505,0,258.501,0z"/>
<g>
	<path fill="#36464E" d="M258.501,0C118.498,0,5.002,114.615,5.002,256c0,20.129,2.373,39.688,6.724,58.478
		c17.853-38.441,54.483-66.249,97.965-71.134v-81.239c0-3.25,2.619-5.895,5.837-5.895h2.606c3.218,0,5.837,2.645,5.837,5.895v4.071
		h87.088v21.614v21.614v21.614h-87.088v11.536c67.794,0.308,122.857,56.069,122.857,124.603c0,58.788-40.559,108.073-94.871,121.132
		C184.356,503.47,220.434,512,258.501,512C398.505,512,512,397.385,512,256S398.505,0,258.501,0z M91.775,145.045l-4.844,8.945
		l-4.844-8.945l-8.858-4.892l8.858-4.892l4.844-8.945l4.844,8.945l8.858,4.892L91.775,145.045z M151.355,92.782l-3.371,6.223
		l-3.37-6.223l-6.162-3.403l6.162-3.404l3.37-6.223l3.371,6.223l6.162,3.404L151.355,92.782z M182.837,145.462l-2.338,4.318
		l-2.338-4.318l-4.276-2.361l4.276-2.361l2.338-4.318l2.338,4.318l4.276,2.361L182.837,145.462z M388.119,116.175l3.37-6.223
		l3.371,6.223l6.162,3.404l-6.162,3.403l-3.371,6.223l-3.37-6.223l-6.162-3.403L388.119,116.175z M388.119,156.06l3.37-6.223
		l3.371,6.223l6.162,3.403l-6.162,3.404l-3.371,6.223l-3.37-6.223l-6.162-3.404L388.119,156.06z M387.759,197.917l3.37-6.223
		l3.37,6.223l6.162,3.404l-6.162,3.403l-3.37,6.223l-3.37-6.223l-6.162-3.403L387.759,197.917z M354.05,116.175l3.37-6.223
		l3.371,6.223l6.162,3.404l-6.162,3.403l-3.371,6.223l-3.37-6.223l-6.162-3.403L354.05,116.175z M354.05,156.06l3.37-6.223
		l3.371,6.223l6.162,3.403l-6.162,3.404l-3.371,6.223l-3.37-6.223l-6.162-3.404L354.05,156.06z M304.349,294.445l2.338-4.318
		l2.339,4.318l4.276,2.362l-4.276,2.361l-2.339,4.318l-2.338-4.318l-4.276-2.361L304.349,294.445z M217.108,263.14l-1.585,2.926
		l-1.585-2.926l-2.898-1.6l2.898-1.6l1.585-2.926l1.585,2.926l2.897,1.6L217.108,263.14z M243.067,190.151l-2.338,4.318
		l-2.338-4.318l-4.276-2.361l4.276-2.361l2.338-4.318l2.338,4.318l4.276,2.361L243.067,190.151z M259.165,101.317l6.466-11.939
		l6.466,11.939l11.823,6.53l-11.823,6.53l-6.466,11.939l-6.466-11.939l-11.822-6.53L259.165,101.317z M260.086,305.087l-1.585,2.926
		l-1.585-2.926l-2.897-1.6l2.897-1.6l1.585-2.926l1.585,2.926l2.898,1.6L260.086,305.087z M278.534,467.977l-3.371,6.223
		l-3.37-6.223l-6.162-3.403l6.162-3.403l3.37-6.223l3.371,6.223l6.162,3.403L278.534,467.977z M286.371,360.336l8.858-4.892
		l4.844-8.945l4.844,8.945l8.858,4.892l-8.858,4.892l-4.844,8.945l-4.844-8.945L286.371,360.336z M310.058,419.977l-3.371,6.223
		l-3.37-6.223l-6.162-3.403l6.162-3.403l3.37-6.223l3.371,6.223l6.162,3.403L310.058,419.977z M357.06,210.947l-3.371-6.223
		l-6.162-3.403l6.162-3.404l3.371-6.223l3.37,6.223l6.162,3.404l-6.162,3.403L357.06,210.947z M382.632,393.313l-4.844,8.945
		l-4.844-8.945l-8.857-4.892l8.857-4.892l4.844-8.945l4.844,8.945l8.857,4.892L382.632,393.313z M410.937,282.459l-6.466,11.939
		l-6.466-11.939l-11.822-6.53l11.822-6.53l6.466-11.939l6.466,11.939l11.822,6.53L410.937,282.459z"/>
	<path fill="#FFFFFF" d="M123.971,252.659v25.656c0,1.654-0.687,3.14-1.778,4.211h0.111l-0.215,0.071
		c-1.043,0.983-2.42,1.613-3.955,1.613h-0.94l-94.837,31.243c-7.836,15.554-12.35,33.09-12.35,51.704
		c0,63.151,50.873,114.526,113.407,114.526s113.407-51.375,113.407-114.526C236.821,304.196,186.247,252.967,123.971,252.659z
		 M92.08,360.336c2.844,0,5.149,2.329,5.149,5.2c0,2.872-2.305,5.2-5.149,5.2c-2.844,0-5.149-2.328-5.149-5.2
		C86.931,362.665,89.236,360.336,92.08,360.336z M75.674,313.053c6.217,0,11.257,5.09,11.257,11.368
		c0,6.278-5.04,11.368-11.257,11.368c-6.217,0-11.257-5.09-11.257-11.368C64.416,318.142,69.457,313.053,75.674,313.053z
		 M53.159,388.421c-9.671,0-17.511-7.917-17.511-17.684c0-9.767,7.84-17.684,17.511-17.684c9.671,0,17.511,7.917,17.511,17.684
		C70.67,380.504,62.83,388.421,53.159,388.421z M98.605,454.947c-13.125,0-23.766-10.745-23.766-24c0-13.255,10.64-24,23.766-24
		s23.766,10.745,23.766,24C122.371,444.202,111.731,454.947,98.605,454.947z M135.178,396.604c-7.073,0-12.807-5.791-12.807-12.933
		c0-7.143,5.734-12.933,12.807-12.933c7.073,0,12.807,5.79,12.807,12.933C147.985,390.813,142.251,396.604,135.178,396.604z
		 M161.209,442.344c-2.844,0-5.149-2.329-5.149-5.2c0-2.872,2.305-5.2,5.149-5.2c2.844,0,5.149,2.328,5.149,5.2
		C166.359,440.015,164.053,442.344,161.209,442.344z M199.921,399.789c-6.217,0-11.257-5.09-11.257-11.368
		c0-6.279,5.04-11.368,11.257-11.368c6.217,0,11.257,5.09,11.257,11.368C211.179,394.699,206.139,399.789,199.921,399.789z"/>
	<path fill="#FFFFFF" d="M109.691,253.555c-26.719,3.275-50.558,15.95-68.241,34.668l68.241-12V253.555z"/>
	<path fill="#35464E" d="M246.828,367.157c0-68.534-55.063-124.295-122.857-124.603v-11.536v-21.614v-21.614v-21.614v-4.071
		c0-3.25-2.619-5.895-5.837-5.895h-2.606c-3.218,0-5.837,2.645-5.837,5.895v81.239c-43.481,4.885-80.111,32.693-97.965,71.134
		C4.282,330.505,0,348.315,0,367.157c0,68.724,55.362,124.632,123.414,124.632c9.839,0,19.364-1.293,28.543-3.5
		C206.269,475.23,246.828,425.945,246.828,367.157z M113.026,162.104c0-1.391,1.124-2.526,2.502-2.526h2.606
		c1.378,0,2.502,1.135,2.502,2.526v116.211c0,1.391-1.124,2.526-2.502,2.526h-2.606c-1.378,0-2.502-1.135-2.502-2.526V162.104z
		 M109.691,253.555v22.668l-68.241,12C59.133,269.505,82.972,256.83,109.691,253.555z M123.414,481.683
		c-62.534,0-113.407-51.375-113.407-114.526c0-18.614,4.515-36.15,12.35-51.704l94.837-31.243h0.94c1.535,0,2.912-0.63,3.955-1.613
		l0.215-0.071h-0.111c1.091-1.072,1.778-2.557,1.778-4.211v-25.656c62.277,0.308,112.85,51.537,112.85,114.498
		C236.821,430.308,185.948,481.683,123.414,481.683z"/>
	<rect x="123.971" y="166.176" fill="#F4AA41" width="87.088" height="21.614"/>
	<rect x="123.971" y="187.789" fill="#7C909A" width="87.088" height="21.614"/>
	<rect x="123.971" y="209.403" fill="#FDE9B0" width="87.088" height="21.614"/>
	<path fill="#FFFFFF" d="M115.528,280.841h2.606c1.378,0,2.502-1.135,2.502-2.526V162.104c0-1.391-1.124-2.526-2.502-2.526h-2.606
		c-1.378,0-2.502,1.135-2.502,2.526v116.211C113.026,279.706,114.15,280.841,115.528,280.841z"/>
	<ellipse fill="#AFBBC3" cx="98.605" cy="430.947" rx="23.766" ry="24"/>
	<ellipse fill="#AFBBC3" cx="53.159" cy="370.737" rx="17.511" ry="17.684"/>
	<ellipse fill="#AFBBC3" cx="75.674" cy="324.421" rx="11.257" ry="11.368"/>
	<ellipse fill="#AFBBC3" cx="199.921" cy="388.421" rx="11.257" ry="11.368"/>
	<ellipse fill="#AFBBC3" cx="135.178" cy="383.67" rx="12.807" ry="12.933"/>
	<ellipse fill="#AFBBC3" cx="161.209" cy="437.143" rx="5.149" ry="5.2"/>
	<ellipse fill="#AFBBC3" cx="92.08" cy="365.537" rx="5.149" ry="5.2"/>
	<polygon fill="#F4AA41" points="265.631,126.316 272.097,114.377 283.919,107.847 272.097,101.317 265.631,89.378 259.165,101.317 
		247.342,107.847 259.165,114.377 	"/>
	<polygon fill="#F4AA41" points="404.471,257.461 398.006,269.4 386.183,275.93 398.006,282.459 404.471,294.398 410.937,282.459 
		422.76,275.93 410.937,269.4 	"/>
	<polygon fill="#F4AA41" points="304.918,365.229 313.775,360.336 304.918,355.444 300.073,346.499 295.229,355.444 
		286.371,360.336 295.229,365.229 300.073,374.174 	"/>
	<polygon fill="#FFFFFF" points="86.931,126.316 82.086,135.261 73.229,140.153 82.086,145.045 86.931,153.99 91.775,145.045 
		100.633,140.153 91.775,135.261 	"/>
	<polygon fill="#FFFFFF" points="377.787,374.584 372.943,383.529 364.085,388.421 372.943,393.313 377.787,402.258 
		382.632,393.313 391.489,388.421 382.632,383.529 	"/>
	<polygon fill="#FFFFFF" points="147.985,79.751 144.615,85.975 138.452,89.378 144.615,92.782 147.985,99.005 151.355,92.782 
		157.517,89.378 151.355,85.975 	"/>
	<polygon fill="#FFFFFF" points="306.687,406.947 303.317,413.171 297.155,416.574 303.317,419.977 306.687,426.201 
		310.058,419.977 316.22,416.574 310.058,413.171 	"/>
	<polygon fill="#FFFFFF" points="357.42,129.206 360.79,122.982 366.953,119.579 360.79,116.175 357.42,109.952 354.05,116.175 
		347.887,119.579 354.05,122.982 	"/>
	<polygon fill="#FFFFFF" points="391.489,129.206 394.86,122.982 401.022,119.579 394.86,116.175 391.489,109.952 388.119,116.175 
		381.957,119.579 388.119,122.982 	"/>
	<polygon fill="#FFFFFF" points="357.42,169.09 360.79,162.868 366.953,159.464 360.79,156.06 357.42,149.837 354.05,156.06 
		347.887,159.464 354.05,162.868 	"/>
	<polygon fill="#FFFFFF" points="391.489,169.09 394.86,162.868 401.022,159.464 394.86,156.06 391.489,149.837 388.119,156.06 
		381.957,159.464 388.119,162.868 	"/>
	<polygon fill="#FFFFFF" points="360.43,197.917 357.06,191.694 353.69,197.917 347.527,201.321 353.69,204.724 357.06,210.947 
		360.43,204.724 366.593,201.321 	"/>
	<polygon fill="#FFFFFF" points="391.129,210.947 394.499,204.724 400.662,201.321 394.499,197.917 391.129,191.694 
		387.759,197.917 381.597,201.321 387.759,204.724 	"/>
	<polygon fill="#FFFFFF" points="275.163,454.947 271.793,461.171 265.631,464.574 271.793,467.977 275.163,474.201 
		278.534,467.977 284.696,464.574 278.534,461.171 	"/>
	<polygon fill="#FFFFFF" points="180.499,136.421 178.161,140.739 173.885,143.1 178.161,145.462 180.499,149.78 182.837,145.462 
		187.113,143.1 182.837,140.739 	"/>
	<polygon fill="#FFFFFF" points="240.728,181.11 238.39,185.428 234.114,187.789 238.39,190.151 240.728,194.469 243.067,190.151 
		247.342,187.789 243.067,185.428 	"/>
	<polygon fill="#FFFFFF" points="306.687,303.486 309.026,299.169 313.302,296.807 309.026,294.445 306.687,290.127 
		304.349,294.445 300.073,296.807 304.349,299.169 	"/>
	<polygon fill="#FFFFFF" points="215.524,257.013 213.939,259.94 211.041,261.54 213.939,263.14 215.524,266.066 217.108,263.14 
		220.006,261.54 217.108,259.94 	"/>
	<polygon fill="#FFFFFF" points="258.501,298.96 256.917,301.886 254.019,303.486 256.917,305.087 258.501,308.013 260.086,305.087 
		262.984,303.486 260.086,301.886 	"/>
</g>
</svg>
