<?xml version="1.0" encoding="utf-8"?>
<!-- Generator: Adobe Illustrator 18.0.0, SVG Export Plug-In . SVG Version: 6.00 Build 0)  -->
<!DOCTYPE svg PUBLIC "-//W3C//DTD SVG 1.1//EN" "http://www.w3.org/Graphics/SVG/1.1/DTD/svg11.dtd">
<svg version="1.1" id="Warstwa_1" xmlns="http://www.w3.org/2000/svg" xmlns:xlink="http://www.w3.org/1999/xlink" x="0px" y="0px"
	 width="512px" height="512px" viewBox="0 0 512 512" enable-background="new 0 0 512 512" xml:space="preserve">
<g>
	<path fill="#36464E" d="M412.444,0H289.439h-70.422H99.556C44.8,0,0,44.8,0,99.556v312.889C0,467.2,44.8,512,99.556,512h216.33
		h21.26h75.299C467.2,512,512,467.2,512,412.444V222.561v-1.61V99.556C512,44.8,467.2,0,412.444,0z"/>
	<g>
		<path fill="none" d="M83.836,301.706c-0.409-0.401-0.816-0.803-1.214-1.208C83.02,300.903,83.426,301.304,83.836,301.706z"/>
		<path fill="none" d="M428.336,210.465c0.383,0.377,0.766,0.754,1.14,1.133C429.101,211.219,428.719,210.842,428.336,210.465z"/>
		<path fill="none" d="M78.384,295.916c-0.169-0.196-0.353-0.388-0.52-0.585C78.032,295.528,78.215,295.72,78.384,295.916z"/>
		<path fill="none" d="M89.358,306.771c-0.392-0.334-0.761-0.676-1.145-1.013C88.597,306.095,88.966,306.437,89.358,306.771z"/>
		<path fill="#36464E" d="M412.444,0H99.555C44.8,0,0,44.8,0,99.555v312.889C0,467.2,44.8,512,99.555,512h195.388h0.845
			L95.437,311.649c-2.122-1.59-4.137-3.221-6.079-4.878c-0.392-0.334-0.76-0.676-1.145-1.013c-1.519-1.331-2.979-2.682-4.378-4.052
			c-0.409-0.401-0.816-0.803-1.214-1.208c-1.485-1.506-2.9-3.032-4.237-4.581c-0.169-0.196-0.353-0.388-0.52-0.585
			c-3.35-3.955-6.181-8.05-8.511-12.259c-0.297-0.537-0.615-1.069-0.896-1.61c-0.419-0.81-0.79-1.629-1.17-2.447
			c-0.321-0.69-0.645-1.379-0.938-2.075c-0.32-0.763-0.61-1.531-0.896-2.301c-0.289-0.777-0.565-1.558-0.819-2.342
			c-0.233-0.722-0.453-1.446-0.655-2.173c-0.243-0.87-0.453-1.744-0.652-2.622c-0.15-0.666-0.305-1.33-0.429-2
			c-0.189-1.017-0.327-2.041-0.456-3.067c-0.069-0.548-0.16-1.092-0.211-1.642c-0.148-1.589-0.237-3.186-0.237-4.795
			c0-29.236,24.588-55.322,63.664-73.354c34.479-15.91,80.238-25.55,130.339-25.55c3.985,0,7.932,0.08,11.859,0.201
			c1.157,0.035,2.303,0.087,3.454,0.133c2.886,0.115,5.753,0.26,8.603,0.438c1.149,0.072,2.299,0.139,3.442,0.222
			c3.566,0.256,7.107,0.551,10.609,0.904c0.261,0.026,0.527,0.044,0.787,0.071c3.79,0.39,7.529,0.849,11.236,1.349
			c0.983,0.133,1.951,0.281,2.928,0.421c2.8,0.402,5.574,0.834,8.321,1.298c1.016,0.172,2.031,0.341,3.04,0.521
			c3.229,0.576,6.424,1.188,9.573,1.847c0.337,0.071,0.683,0.132,1.019,0.204c3.546,0.754,7.029,1.568,10.465,2.424
			c0.72,0.179,1.425,0.371,2.14,0.555c2.731,0.702,5.424,1.435,8.079,2.2c0.82,0.236,1.638,0.472,2.45,0.715
			c2.951,0.879,5.857,1.792,8.706,2.748c0.284,0.095,0.577,0.183,0.86,0.279c3.24,1.099,6.404,2.249,9.503,3.443
			c0.415,0.16,0.815,0.328,1.227,0.489c2.624,1.028,5.191,2.09,7.707,3.184c0.605,0.263,1.207,0.527,1.805,0.794
			c2.618,1.167,5.179,2.365,7.67,3.601c0.217,0.108,0.443,0.211,0.66,0.319c2.826,1.416,5.566,2.876,8.219,4.379
			c0.153,0.087,0.297,0.177,0.449,0.264c2.389,1.363,4.693,2.765,6.932,4.195c0.432,0.276,0.86,0.553,1.286,0.832
			c2.152,1.405,4.237,2.837,6.241,4.302c0.194,0.142,0.397,0.279,0.589,0.422c4.582,3.388,8.737,6.936,12.476,10.616
			c0.384,0.377,0.766,0.754,1.14,1.133c1.858,1.889,3.643,3.801,5.266,5.758L512,294.615V99.555C512,44.8,467.2,0,412.444,0z"/>
		<path fill="#2D3A3F" d="M317.239,162.133c1.015,0.172,2.032,0.341,3.04,0.521C319.271,162.474,318.255,162.304,317.239,162.133z"
			/>
		<path fill="#2D3A3F" d="M362.711,173.345c0.284,0.095,0.577,0.183,0.86,0.279C363.289,173.529,362.995,173.441,362.711,173.345z"
			/>
		<path fill="#2D3A3F" d="M351.555,169.883c0.82,0.236,1.638,0.473,2.45,0.715C353.193,170.355,352.374,170.119,351.555,169.883z"/>
		<path fill="#2D3A3F" d="M341.336,167.128c0.72,0.179,1.425,0.372,2.14,0.555C342.761,167.499,342.056,167.307,341.336,167.128z"/>
		<path fill="#2D3A3F" d="M373.074,177.068c0.415,0.16,0.815,0.328,1.227,0.489C373.889,177.396,373.489,177.227,373.074,177.068z"
			/>
		<path fill="#2D3A3F" d="M400.361,189.834c0.153,0.086,0.297,0.177,0.449,0.264C400.659,190.011,400.514,189.921,400.361,189.834z"
			/>
		<path fill="#2D3A3F" d="M382.008,180.742c0.604,0.263,1.207,0.527,1.805,0.794C383.215,181.269,382.613,181.005,382.008,180.742z"
			/>
		<path fill="#2D3A3F" d="M407.743,194.293c0.432,0.276,0.86,0.554,1.286,0.832C408.603,194.846,408.176,194.569,407.743,194.293z"
			/>
		<path fill="#2D3A3F" d="M391.483,185.136c0.217,0.108,0.443,0.211,0.66,0.319C391.926,185.347,391.7,185.244,391.483,185.136z"/>
		<path fill="#2D3A3F" d="M415.271,199.427c0.194,0.142,0.397,0.279,0.589,0.422C415.668,199.707,415.464,199.569,415.271,199.427z"
			/>
		<path fill="#2D3A3F" d="M63.982,270.125c-0.242-0.87-0.454-1.744-0.652-2.622C63.528,268.381,63.739,269.255,63.982,270.125z"/>
		<path fill="#2D3A3F" d="M65.456,274.64c-0.289-0.778-0.566-1.558-0.819-2.342C64.891,273.082,65.166,273.862,65.456,274.64z"/>
		<path fill="#2D3A3F" d="M69.354,283.072c-0.297-0.537-0.616-1.069-0.896-1.61C68.739,282.003,69.057,282.535,69.354,283.072z"/>
		<path fill="#2D3A3F" d="M62.901,265.504c-0.188-1.017-0.328-2.041-0.456-3.067C62.573,263.463,62.712,264.487,62.901,265.504z"/>
		<path fill="#2D3A3F" d="M67.289,279.015c-0.32-0.69-0.646-1.379-0.938-2.075C66.644,277.637,66.968,278.326,67.289,279.015z"/>
		<path fill="#2D3A3F" d="M62.233,260.794c-0.147-1.589-0.237-3.186-0.237-4.795C61.996,257.609,62.085,259.206,62.233,260.794z"/>
		<path fill="#2D3A3F" d="M305.99,160.414c0.982,0.133,1.952,0.281,2.928,0.421C307.942,160.695,306.973,160.547,305.99,160.414z"/>
		<path fill="#2D3A3F" d="M279.916,157.868c1.149,0.072,2.3,0.14,3.442,0.222C282.215,158.007,281.065,157.94,279.916,157.868z"/>
		<path fill="#2D3A3F" d="M293.967,158.993c0.261,0.026,0.527,0.045,0.787,0.071C294.494,159.038,294.228,159.02,293.967,158.993z"
			/>
		<path fill="#2D3A3F" d="M267.859,157.297c1.156,0.035,2.303,0.087,3.454,0.133C270.162,157.384,269.015,157.332,267.859,157.297z"
			/>
		<path fill="#2D3A3F" d="M329.852,164.501c0.337,0.071,0.683,0.132,1.019,0.204C330.535,164.633,330.189,164.571,329.852,164.501z"
			/>
		<path fill="#2D3A3F" d="M139.539,274.153c0-4.906-3.112-9.972-7.533-9.972h-7.533v19.944h7.533
			C137.237,284.125,139.539,278.558,139.539,274.153z"/>
		<path fill="#2D3A3F" d="M138.072,249.987c0-5.386-3.512-8.461-7.532-8.461h-6.067v16.923h6.067
			C135.417,258.449,138.072,254.867,138.072,249.987z"/>
		<path fill="#2D3A3F" d="M255.999,335.408c109.308,0,174.507-44.72,174.507-79.408c0-34.688-65.199-79.407-174.507-79.407
			c-109.308,0-174.507,44.72-174.507,79.407C81.492,290.688,146.692,335.408,255.999,335.408z M387.525,235.793h8.407v54.065h-8.407
			V235.793z M343.276,235.793h31.881v7.243H363.42v46.929h-8.407v-46.929h-11.737V235.793z M300.327,235.793h31.881v7.243H320.47
			v46.929h-8.406v-46.929h-11.737V235.793z M294.165,289.857h-8.632l-2.144-10.573h-17.914l-2.389,10.573h-8.699l13.82-54.065h13.52
			L294.165,289.857z M232.278,211.684h5.769v2.884h13.874v-9.178h-5.508v2.273h-5.768v-2.273v-6.818v-2.273h5.768v2.273h5.508v-8.13
			h-13.874v2.885h-5.769l0.001-2.885v-5.77h36.556c5.721,0,10.359,4.638,10.359,10.359c0,2.615-0.968,5.003-2.567,6.827
			c1.913,1.961,3.091,4.641,3.091,7.597c0,6.011-4.873,10.883-10.884,10.883h-36.556l-0.001-5.77V211.684z M210.056,250.265
			c0-8.672,7.438-15.841,16.056-15.841c10.743,0,15.662,6.014,15.823,15.365h-6.947c-0.227-4.795-3.871-8.406-9.02-7.953
			c-4.44,0.39-7.504,4.122-7.504,8.429v25.125c0,3.934,3.108,7.686,7.504,8.073c5.199,0.456,9.031-2.926,9.031-8.078v-6.68h-5.932
			v-5.728l12.872,0.002v12.406c0,9.623-4.903,15.846-15.826,15.846c-8.617,0-16.056-7.174-16.056-15.846V250.265z M162.419,235.793
			h8.407l0.002,39.593c0,4.002,3.108,7.388,7.532,7.388c4.424,0,7.533-3.386,7.533-7.388v-39.593h8.408v39.593
			c0,8.686-7.336,15.84-15.941,15.84c-8.604,0-15.94-7.155-15.94-15.84V235.793z M116.065,235.794h17.408
			c9.005-0.001,13.006,7.928,13.006,13.439c0,3.616-2.07,8.834-5.069,10.66l-2.467,1.503l2.536,1.382
			c3.433,1.871,6.467,5.647,6.467,12.131c0,6.836-5.489,14.95-13.007,14.95h-18.875V235.794z"/>
		<path fill="#2D3A3F" d="M255.999,353.239c107.091,0,192.338-43.944,192.338-97.239c0-53.295-85.247-97.239-192.338-97.239
			S63.662,202.705,63.662,256C63.662,309.295,148.908,353.239,255.999,353.239z M93.843,297.776c-1.741,1.741-4.564,1.741-6.304,0
			c-1.741-1.74-1.741-4.563,0-6.304c1.74-1.741,4.563-1.741,6.304,0C95.584,293.213,95.584,296.036,93.843,297.776z
			 M105.492,306.793c-1.447,1.992-4.235,2.434-6.227,0.987c-1.991-1.447-2.433-4.235-0.985-6.226
			c1.447-1.992,4.234-2.434,6.226-0.987C106.498,302.013,106.939,304.802,105.492,306.793z M117.964,314.618
			c-1.269,2.111-4.007,2.793-6.118,1.525s-2.793-4.006-1.525-6.117c1.268-2.111,4.007-2.793,6.117-1.525
			C118.549,309.769,119.231,312.508,117.964,314.618z M131.124,321.23c-1.079,2.213-3.748,3.131-5.961,2.052
			c-2.213-1.079-3.131-3.747-2.052-5.96c1.079-2.214,3.748-3.132,5.961-2.053C131.284,316.348,132.203,319.016,131.124,321.23z
			 M136.435,323.596c0.882-2.298,3.461-3.446,5.76-2.563c2.298,0.882,3.446,3.46,2.565,5.759c-0.882,2.299-3.461,3.446-5.759,2.565
			C136.701,328.474,135.553,325.895,136.435,323.596z M158.683,331.578c-0.761,2.341-3.276,3.623-5.617,2.862
			c-2.342-0.761-3.623-3.276-2.863-5.617c0.761-2.341,3.276-3.622,5.618-2.862C158.162,326.722,159.444,329.237,158.683,331.578z
			 M172.867,335.532c-0.637,2.378-3.081,3.79-5.46,3.152c-2.378-0.637-3.789-3.081-3.152-5.46c0.637-2.378,3.081-3.789,5.46-3.152
			C172.093,330.71,173.504,333.154,172.867,335.532z M187.242,338.727c-0.512,2.408-2.878,3.945-5.287,3.433
			c-2.408-0.512-3.945-2.879-3.433-5.287c0.512-2.409,2.879-3.946,5.287-3.434C186.217,333.951,187.754,336.318,187.242,338.727z
			 M196.654,344.924c-2.431-0.385-4.09-2.669-3.705-5.1c0.385-2.431,2.669-4.091,5.1-3.706c2.431,0.385,4.09,2.669,3.706,5.1
			C201.369,343.65,199.086,345.309,196.654,344.924z M211.387,347.013c-2.443-0.3-4.181-2.525-3.881-4.968
			c0.301-2.444,2.525-4.181,4.969-3.881c2.443,0.3,4.181,2.524,3.881,4.968C216.055,345.575,213.831,347.313,211.387,347.013z
			 M226.272,348.478c-2.456-0.172-4.307-2.302-4.136-4.758c0.172-2.456,2.302-4.308,4.758-4.136
			c2.456,0.172,4.308,2.302,4.136,4.758C230.858,346.798,228.729,348.65,226.272,348.478z M241.129,349.332
			c-2.461-0.086-4.386-2.15-4.3-4.611c0.086-2.46,2.15-4.385,4.611-4.3c2.461,0.086,4.385,2.151,4.299,4.611
			C245.654,347.493,243.589,349.418,241.129,349.332z M256.006,349.614c-2.462,0-4.458-1.996-4.458-4.458s1.996-4.458,4.458-4.458
			c2.461,0,4.458,1.996,4.458,4.458S258.468,349.614,256.006,349.614z M270.877,349.332c-2.461,0.086-4.525-1.839-4.611-4.299
			c-0.086-2.46,1.839-4.525,4.3-4.611c2.461-0.086,4.525,1.84,4.61,4.3C275.262,347.182,273.337,349.246,270.877,349.332z
			 M285.733,348.478c-2.456,0.172-4.586-1.68-4.757-4.136c-0.172-2.456,1.679-4.586,4.135-4.758c2.457-0.172,4.587,1.68,4.758,4.136
			C290.041,346.176,288.189,348.306,285.733,348.478z M300.618,347.013c-2.443,0.301-4.667-1.437-4.968-3.881
			c-0.3-2.444,1.437-4.668,3.882-4.968c2.444-0.3,4.668,1.437,4.968,3.881C304.8,344.488,303.062,346.712,300.618,347.013z
			 M315.351,344.924c-2.431,0.385-4.715-1.274-5.1-3.706c-0.385-2.43,1.274-4.715,3.706-5.1c2.431-0.385,4.715,1.274,5.1,3.706
			C319.442,342.255,317.782,344.539,315.351,344.924z M330.05,342.16c-2.408,0.512-4.776-1.025-5.287-3.433
			c-0.512-2.409,1.026-4.776,3.434-5.288c2.408-0.512,4.776,1.025,5.287,3.434C333.995,339.282,332.459,341.648,330.05,342.16z
			 M344.597,338.685c-2.378,0.638-4.822-0.774-5.46-3.152c-0.637-2.378,0.774-4.823,3.152-5.46c2.378-0.637,4.823,0.774,5.46,3.152
			C348.387,335.603,346.976,338.047,344.597,338.685z M358.94,334.44c-2.342,0.761-4.856-0.521-5.617-2.862
			c-0.761-2.341,0.521-4.856,2.862-5.617c2.342-0.76,4.857,0.521,5.617,2.862C362.563,331.165,361.282,333.679,358.94,334.44z
			 M373.005,329.356c-2.298,0.882-4.876-0.266-5.759-2.565c-0.882-2.299,0.265-4.877,2.564-5.759
			c2.299-0.882,4.877,0.265,5.759,2.563C376.452,325.895,375.304,328.474,373.005,329.356z M386.842,323.282
			c-2.213,1.079-4.881,0.161-5.961-2.052c-1.079-2.214-0.16-4.881,2.053-5.961c2.213-1.079,4.882-0.161,5.96,2.053
			C389.974,319.534,389.055,322.203,386.842,323.282z M400.159,316.143c-2.11,1.268-4.849,0.586-6.117-1.525
			c-1.268-2.11-0.585-4.849,1.525-6.117c2.11-1.268,4.849-0.586,6.117,1.525C402.952,312.137,402.269,314.875,400.159,316.143z
			 M412.74,307.78c-1.992,1.447-4.779,1.005-6.227-0.987c-1.447-1.991-1.005-4.779,0.986-6.227c1.992-1.447,4.78-1.005,6.227,0.987
			C415.173,303.545,414.732,306.333,412.74,307.78z M424.467,297.776c-1.741,1.741-4.563,1.741-6.304,0
			c-1.741-1.74-1.741-4.563,0-6.304c1.741-1.741,4.563-1.741,6.304,0C426.208,293.213,426.208,296.036,424.467,297.776z
			 M434.488,285.977c-1.412,2.016-4.192,2.507-6.209,1.095c-2.017-1.413-2.507-4.192-1.095-6.208
			c1.412-2.018,4.192-2.507,6.208-1.095C435.41,281.18,435.9,283.96,434.488,285.977z M441.876,271.871
			c-0.802,2.328-3.339,3.565-5.666,2.764c-2.328-0.802-3.565-3.339-2.764-5.667c0.802-2.328,3.339-3.565,5.667-2.763
			C441.44,267.007,442.677,269.543,441.876,271.871z M444.716,256.155c-0.085,2.461-2.15,4.386-4.61,4.3
			c-2.46-0.086-4.385-2.15-4.299-4.611c0.086-2.46,2.15-4.384,4.611-4.299C442.877,251.631,444.802,253.695,444.716,256.155z
			 M441.869,240.13c0.802,2.327-0.435,4.864-2.764,5.666c-2.327,0.802-4.865-0.436-5.666-2.763
			c-0.802-2.328,0.436-4.865,2.764-5.667C438.531,236.564,441.068,237.802,441.869,240.13z M428.275,224.929
			c2.017-1.412,4.796-0.922,6.208,1.095c1.412,2.017,0.923,4.796-1.095,6.209c-2.016,1.412-4.796,0.922-6.209-1.095
			C425.768,229.121,426.258,226.341,428.275,224.929z M418.159,214.224c1.74-1.741,4.564-1.741,6.304,0
			c1.741,1.74,1.741,4.563,0,6.304c-1.74,1.741-4.564,1.741-6.304,0C416.418,218.787,416.418,215.964,418.159,214.224z
			 M406.511,205.207c1.448-1.992,4.235-2.434,6.227-0.986c1.991,1.447,2.433,4.235,0.986,6.226
			c-1.447,1.992-4.234,2.434-6.226,0.987C405.506,209.986,405.065,207.198,406.511,205.207z M394.041,197.381
			c1.269-2.11,4.007-2.793,6.117-1.525c2.11,1.268,2.793,4.006,1.525,6.117c-1.269,2.11-4.007,2.793-6.117,1.525
			C393.456,202.231,392.773,199.492,394.041,197.381z M380.881,190.77c1.079-2.213,3.748-3.132,5.961-2.053
			c2.213,1.079,3.131,3.748,2.052,5.961c-1.079,2.212-3.747,3.131-5.96,2.052C380.72,195.652,379.802,192.982,380.881,190.77z
			 M367.247,185.208c0.882-2.299,3.461-3.446,5.759-2.564c2.299,0.882,3.447,3.461,2.565,5.759
			c-0.882,2.299-3.461,3.447-5.759,2.565C367.513,190.085,366.365,187.507,367.247,185.208z M353.325,180.421
			c0.76-2.341,3.276-3.623,5.617-2.862c2.342,0.761,3.624,3.276,2.863,5.617c-0.761,2.341-3.276,3.623-5.618,2.862
			C353.845,185.277,352.563,182.763,353.325,180.421z M339.14,176.467c0.638-2.378,3.081-3.789,5.46-3.152
			c2.378,0.637,3.79,3.082,3.152,5.46c-0.637,2.378-3.081,3.789-5.46,3.152C339.915,181.289,338.503,178.845,339.14,176.467z
			 M324.766,173.273c0.512-2.408,2.879-3.946,5.288-3.434c2.408,0.512,3.945,2.879,3.433,5.287
			c-0.512,2.407-2.879,3.945-5.287,3.433C325.792,178.048,324.254,175.681,324.766,173.273z M315.354,167.076
			c2.432,0.385,4.091,2.668,3.706,5.1c-0.385,2.432-2.669,4.091-5.1,3.705c-2.432-0.385-4.091-2.669-3.705-5.1
			C310.639,168.35,312.923,166.691,315.354,167.076z M300.623,164.987c2.443,0.3,4.181,2.524,3.88,4.968
			c-0.3,2.444-2.524,4.181-4.968,3.881c-2.444-0.3-4.181-2.525-3.882-4.969C295.955,166.425,298.179,164.687,300.623,164.987z
			 M285.738,163.522c2.456,0.172,4.308,2.302,4.135,4.758c-0.172,2.456-2.302,4.307-4.758,4.136
			c-2.456-0.172-4.307-2.302-4.136-4.758C281.152,165.202,283.282,163.35,285.738,163.522z M270.883,162.668
			c2.461,0.086,4.385,2.15,4.299,4.611c-0.086,2.46-2.15,4.386-4.61,4.299c-2.461-0.086-4.385-2.15-4.299-4.61
			C266.358,164.507,268.423,162.582,270.883,162.668z M255.999,162.386c2.462,0,4.458,1.996,4.458,4.458
			c0,2.461-1.996,4.458-4.458,4.458c-2.462,0-4.458-1.996-4.458-4.458C251.542,164.382,253.537,162.386,255.999,162.386z
			 M241.122,162.668c2.461-0.085,4.525,1.839,4.611,4.3c0.086,2.46-1.839,4.525-4.3,4.61c-2.46,0.086-4.525-1.839-4.61-4.299
			C236.737,164.818,238.662,162.754,241.122,162.668z M226.267,163.522c2.456-0.172,4.586,1.68,4.758,4.136
			c0.172,2.456-1.68,4.586-4.135,4.758c-2.456,0.171-4.587-1.68-4.758-4.136C221.959,165.824,223.811,163.694,226.267,163.522z
			 M211.383,164.987c2.444-0.301,4.668,1.437,4.968,3.88c0.3,2.444-1.437,4.668-3.881,4.969c-2.443,0.3-4.668-1.438-4.968-3.881
			C207.201,167.511,208.938,165.287,211.383,164.987z M196.651,167.076c2.432-0.385,4.715,1.274,5.1,3.705
			c0.385,2.432-1.274,4.716-3.705,5.1c-2.432,0.385-4.716-1.274-5.1-3.705C192.56,169.744,194.22,167.461,196.651,167.076z
			 M181.952,169.839c2.408-0.512,4.776,1.025,5.287,3.434c0.512,2.408-1.026,4.775-3.434,5.287
			c-2.408,0.512-4.775-1.026-5.287-3.433C178.007,172.718,179.543,170.351,181.952,169.839z M167.405,173.315
			c2.378-0.637,4.823,0.774,5.46,3.152c0.637,2.378-0.774,4.822-3.152,5.46c-2.378,0.637-4.823-0.774-5.46-3.152
			C163.616,176.397,165.027,173.952,167.405,173.315z M153.064,177.559c2.341-0.761,4.856,0.521,5.618,2.862
			c0.76,2.342-0.522,4.856-2.863,5.617c-2.341,0.761-4.856-0.521-5.617-2.862C149.441,180.835,150.722,178.32,153.064,177.559z
			 M138.999,182.644c2.299-0.882,4.878,0.265,5.759,2.564c0.882,2.299-0.265,4.877-2.564,5.759c-2.299,0.882-4.877-0.266-5.76-2.565
			C135.553,186.105,136.701,183.526,138.999,182.644z M125.164,188.718c2.212-1.079,4.881-0.16,5.96,2.053
			c1.08,2.212,0.16,4.881-2.052,5.96c-2.213,1.079-4.882,0.16-5.961-2.052C122.031,192.466,122.951,189.797,125.164,188.718z
			 M111.848,195.857c2.11-1.269,4.849-0.586,6.117,1.525c1.269,2.111,0.585,4.849-1.525,6.117s-4.849,0.585-6.117-1.525
			C109.055,199.863,109.737,197.125,111.848,195.857z M99.267,204.22c1.992-1.447,4.779-1.006,6.226,0.986
			c1.448,1.991,1.006,4.779-0.986,6.227c-1.991,1.447-4.779,1.005-6.227-0.987C96.834,208.455,97.275,205.667,99.267,204.22z
			 M255.999,174.928c109.128,0,176.172,44.661,176.172,81.072c0,36.411-67.044,81.073-176.172,81.073S79.828,292.411,79.828,256
			C79.828,219.589,146.871,174.928,255.999,174.928z M87.542,214.224c1.741-1.741,4.563-1.741,6.304,0
			c1.741,1.74,1.741,4.563,0,6.304c-1.741,1.741-4.563,1.741-6.304,0C85.801,218.787,85.801,215.964,87.542,214.224z
			 M77.522,226.024c1.412-2.017,4.192-2.507,6.209-1.095c2.017,1.412,2.506,4.192,1.095,6.209c-1.413,2.017-4.192,2.507-6.209,1.095
			C76.6,230.82,76.11,228.04,77.522,226.024z M70.135,240.13c0.802-2.328,3.338-3.565,5.667-2.764
			c2.327,0.802,3.565,3.339,2.763,5.667c-0.801,2.327-3.338,3.565-5.666,2.763C70.571,244.994,69.334,242.457,70.135,240.13z
			 M67.289,256.155c-0.086-2.46,1.839-4.524,4.299-4.61c2.461-0.085,4.525,1.839,4.61,4.299c0.086,2.461-1.839,4.526-4.299,4.611
			C69.44,260.541,67.375,258.616,67.289,256.155z M70.13,271.871c-0.802-2.328,0.435-4.864,2.764-5.666
			c2.328-0.802,4.864,0.435,5.666,2.764c0.801,2.327-0.435,4.864-2.764,5.666C73.468,275.436,70.931,274.199,70.13,271.871z
			 M77.518,285.977c-1.412-2.017-0.922-4.797,1.095-6.209c2.017-1.412,4.796-0.923,6.209,1.095c1.412,2.016,0.922,4.796-1.095,6.208
			C81.709,288.484,78.93,287.993,77.518,285.977z"/>
		<path fill="#2D3A3F" d="M272.9,194.507c0-2.245-1.537-4.065-4.065-4.065h-9.31v8.13h9.31
			C271.363,198.572,272.9,196.751,272.9,194.507z"/>
		<path fill="#2D3A3F" d="M273.425,209.979c0-2.534-1.718-4.589-4.589-4.589h-9.31v9.178h9.31
			C271.707,214.568,273.425,212.514,273.425,209.979z"/>
		<polygon fill="#2D3A3F" points="282.022,272.546 276.46,245.125 273.205,245.089 266.998,272.546 		"/>
		<path fill="#2D3A3F" d="M450.003,256c0,55.033-87.121,98.904-194.003,98.904c-66.655,0-125.616-17.064-160.563-43.255L295.788,512
			h116.656C467.2,512,512,467.2,512,412.445V295.029v-0.414l-77.258-77.258C444.565,229.201,450.003,242.252,450.003,256z"/>
		<path fill="#FFFFFF" d="M450.003,256c0-13.748-5.438-26.798-15.261-38.643c-1.623-1.957-3.408-3.869-5.266-5.758
			c-0.374-0.38-0.757-0.757-1.14-1.133c-3.738-3.68-7.894-7.229-12.476-10.616c-0.192-0.142-0.396-0.28-0.589-0.422
			c-2.004-1.465-4.089-2.897-6.241-4.302c-0.426-0.278-0.854-0.556-1.286-0.832c-2.24-1.43-4.543-2.832-6.932-4.195
			c-0.152-0.087-0.297-0.177-0.449-0.264c-2.653-1.503-5.393-2.963-8.219-4.379c-0.216-0.109-0.442-0.212-0.66-0.319
			c-2.491-1.236-5.052-2.434-7.67-3.601c-0.598-0.267-1.2-0.531-1.805-0.794c-2.516-1.094-5.082-2.156-7.707-3.184
			c-0.412-0.161-0.813-0.33-1.227-0.489c-3.099-1.194-6.263-2.344-9.503-3.443c-0.283-0.096-0.577-0.184-0.86-0.279
			c-2.849-0.955-5.755-1.868-8.706-2.748c-0.812-0.242-1.63-0.478-2.45-0.715c-2.655-0.765-5.348-1.498-8.079-2.2
			c-0.715-0.184-1.42-0.376-2.14-0.555c-3.436-0.856-6.919-1.67-10.465-2.424c-0.336-0.072-0.682-0.133-1.019-0.204
			c-3.149-0.659-6.343-1.272-9.573-1.847c-1.008-0.18-2.025-0.35-3.04-0.521c-2.747-0.464-5.521-0.895-8.321-1.298
			c-0.976-0.14-1.946-0.288-2.928-0.421c-3.707-0.5-7.446-0.959-11.236-1.349c-0.26-0.026-0.526-0.045-0.787-0.071
			c-3.502-0.353-7.042-0.648-10.609-0.904c-1.143-0.082-2.294-0.15-3.442-0.222c-2.85-0.178-5.717-0.324-8.603-0.438
			c-1.151-0.046-2.298-0.097-3.454-0.133c-3.927-0.12-7.874-0.201-11.859-0.201c-50.101,0-95.86,9.639-130.339,25.55
			C86.584,200.678,61.996,226.763,61.996,256c0,1.609,0.09,3.206,0.237,4.795c0.051,0.551,0.143,1.095,0.211,1.642
			c0.128,1.026,0.268,2.05,0.456,3.067c0.124,0.67,0.28,1.334,0.429,2c0.198,0.877,0.41,1.752,0.652,2.622
			c0.202,0.727,0.423,1.451,0.655,2.173c0.253,0.784,0.53,1.564,0.819,2.342c0.286,0.77,0.576,1.538,0.896,2.301
			c0.292,0.696,0.618,1.384,0.938,2.075c0.38,0.818,0.75,1.637,1.17,2.447c0.28,0.541,0.599,1.073,0.896,1.61
			c2.33,4.209,5.16,8.305,8.511,12.259c0.167,0.197,0.35,0.389,0.52,0.585c1.337,1.55,2.752,3.076,4.237,4.581
			c0.399,0.404,0.805,0.806,1.214,1.208c1.399,1.371,2.859,2.721,4.378,4.052c0.384,0.337,0.753,0.679,1.145,1.013
			c1.942,1.656,3.957,3.287,6.079,4.878c34.947,26.191,93.908,43.255,160.563,43.255C362.882,354.904,450.003,311.033,450.003,256z
			 M255.999,158.761c107.091,0,192.338,43.944,192.338,97.239c0,53.295-85.247,97.239-192.338,97.239S63.662,309.295,63.662,256
			C63.662,202.705,148.908,158.761,255.999,158.761z"/>
		<path fill="#FFFFFF" d="M255.999,337.072c109.128,0,176.172-44.661,176.172-81.073c0-36.41-67.044-81.072-176.172-81.072
			S79.828,219.589,79.828,256C79.828,292.411,146.871,337.072,255.999,337.072z M255.999,176.592
			c109.308,0,174.507,44.72,174.507,79.407c0,34.688-65.199,79.408-174.507,79.408c-109.308,0-174.507-44.72-174.507-79.408
			C81.492,221.312,146.692,176.592,255.999,176.592z"/>
		<circle fill="#FFFFFF" cx="255.999" cy="166.844" r="4.458"/>
		<circle fill="#FFFFFF" cx="241.278" cy="167.123" r="4.458"/>
		<circle fill="#FFFFFF" cx="226.578" cy="167.969" r="4.458"/>
		<circle fill="#FFFFFF" cx="211.926" cy="169.412" r="4.458"/>
		<circle fill="#FFFFFF" cx="197.348" cy="171.479" r="4.458"/>
		<circle fill="#FFFFFF" cx="182.878" cy="174.2" r="4.458"/>
		<circle fill="#FFFFFF" cx="168.559" cy="177.621" r="4.458"/>
		<circle fill="#FFFFFF" cx="154.441" cy="181.799" r="4.458"/>
		<circle fill="#FFFFFF" cx="140.596" cy="186.806" r="4.458"/>
		<circle fill="#FFFFFF" cx="127.118" cy="192.724" r="4.458"/>
		<circle fill="#FFFFFF" cx="114.143" cy="199.678" r="4.458"/>
		<circle fill="#FFFFFF" cx="101.887" cy="207.827" r="4.458"/>
		<circle fill="#FFFFFF" cx="90.694" cy="217.376" r="4.458"/>
		<circle fill="#FFFFFF" cx="81.174" cy="228.581" r="4.458"/>
		<circle fill="#FFFFFF" cx="74.351" cy="241.58" r="4.458"/>
		<circle fill="#FFFFFF" cx="256.006" cy="345.156" r="4.458"/>
		<circle fill="#FFFFFF" cx="241.284" cy="344.876" r="4.458"/>
		<circle fill="#FFFFFF" cx="226.583" cy="344.031" r="4.458"/>
		<circle fill="#FFFFFF" cx="211.93" cy="342.588" r="4.458"/>
		<circle fill="#FFFFFF" cx="197.352" cy="340.521" r="4.458"/>
		<circle fill="#FFFFFF" cx="182.881" cy="337.8" r="4.458"/>
		<circle fill="#FFFFFF" cx="168.561" cy="334.379" r="4.458"/>
		<circle fill="#FFFFFF" cx="154.443" cy="330.201" r="4.458"/>
		<circle fill="#FFFFFF" cx="140.597" cy="325.194" r="4.458"/>
		<circle fill="#FFFFFF" cx="127.117" cy="319.275" r="4.458"/>
		<circle fill="#FFFFFF" cx="114.142" cy="312.322" r="4.458"/>
		<circle fill="#FFFFFF" cx="101.885" cy="304.173" r="4.457"/>
		<circle fill="#FFFFFF" cx="90.691" cy="294.624" r="4.457"/>
		<circle fill="#FFFFFF" cx="81.169" cy="283.42" r="4.458"/>
		<circle fill="#FFFFFF" cx="74.345" cy="270.42" r="4.458"/>
		<circle fill="#FFFFFF" cx="71.744" cy="255.999" r="4.458"/>
		<circle fill="#FFFFFF" cx="440.261" cy="255.999" r="4.458"/>
		<circle fill="#FFFFFF" cx="437.661" cy="270.42" r="4.458"/>
		<circle fill="#FFFFFF" cx="430.836" cy="283.42" r="4.458"/>
		<circle fill="#FFFFFF" cx="421.315" cy="294.624" r="4.458"/>
		<circle fill="#FFFFFF" cx="410.12" cy="304.173" r="4.458"/>
		<circle fill="#FFFFFF" cx="397.863" cy="312.322" r="4.458"/>
		<circle fill="#FFFFFF" cx="384.888" cy="319.275" r="4.458"/>
		<circle fill="#FFFFFF" cx="371.408" cy="325.194" r="4.458"/>
		<circle fill="#FFFFFF" cx="357.562" cy="330.201" r="4.458"/>
		<circle fill="#FFFFFF" cx="343.444" cy="334.379" r="4.458"/>
		<circle fill="#FFFFFF" cx="329.124" cy="337.8" r="4.458"/>
		<circle fill="#FFFFFF" cx="314.653" cy="340.521" r="4.458"/>
		<circle fill="#FFFFFF" cx="300.075" cy="342.588" r="4.458"/>
		<circle fill="#FFFFFF" cx="285.422" cy="344.031" r="4.458"/>
		<circle fill="#FFFFFF" cx="270.721" cy="344.876" r="4.458"/>
		<circle fill="#FFFFFF" cx="270.727" cy="167.123" r="4.458"/>
		<circle fill="#FFFFFF" cx="285.427" cy="167.969" r="4.458"/>
		<circle fill="#FFFFFF" cx="300.08" cy="169.412" r="4.458"/>
		<circle fill="#FFFFFF" cx="314.657" cy="171.479" r="4.458"/>
		<circle fill="#FFFFFF" cx="329.127" cy="174.2" r="4.458"/>
		<circle fill="#FFFFFF" cx="343.446" cy="177.621" r="4.458"/>
		<circle fill="#FFFFFF" cx="357.564" cy="181.799" r="4.458"/>
		<circle fill="#FFFFFF" cx="371.409" cy="186.806" r="4.458"/>
		<circle fill="#FFFFFF" cx="384.888" cy="192.724" r="4.458"/>
		<circle fill="#FFFFFF" cx="397.862" cy="199.678" r="4.458"/>
		<circle fill="#FFFFFF" cx="410.118" cy="207.827" r="4.457"/>
		<circle fill="#FFFFFF" cx="421.311" cy="217.376" r="4.458"/>
		<circle fill="#FFFFFF" cx="430.832" cy="228.581" r="4.458"/>
		<circle fill="#FFFFFF" cx="437.655" cy="241.581" r="4.458"/>
		<path fill="#FFFFFF" d="M268.835,220.338c6.011,0,10.884-4.873,10.884-10.883c0-2.956-1.179-5.637-3.091-7.597
			c1.598-1.823,2.567-4.211,2.567-6.827c0-5.721-4.637-10.359-10.359-10.359h-36.556v5.77l-0.001,2.885h5.769v-2.885h13.874v8.13
			h-5.508v-2.273h-5.768v2.273v6.818v2.273h5.768v-2.273h5.508v9.178h-13.874v-2.884h-5.769v2.884l0.001,5.77H268.835z
			 M259.526,190.442h9.31c2.527,0,4.065,1.82,4.065,4.065c0,2.244-1.537,4.065-4.065,4.065h-9.31V190.442z M259.526,205.39h9.31
			c2.871,0,4.589,2.055,4.589,4.589c0,2.535-1.718,4.589-4.589,4.589h-9.31V205.39z"/>
		<path fill="#FFFFFF" d="M226.112,291.232c10.923,0,15.826-6.224,15.826-15.846V262.98l-12.872-0.002v5.728h5.932v6.68
			c0,5.152-3.832,8.534-9.031,8.078c-4.396-0.387-7.504-4.138-7.504-8.073v-25.125c0-4.308,3.063-8.039,7.504-8.429
			c5.15-0.453,8.793,3.159,9.02,7.953h6.947c-0.161-9.351-5.079-15.365-15.823-15.365c-8.618,0-16.056,7.169-16.056,15.841v25.12
			C210.056,284.057,217.494,291.232,226.112,291.232z"/>
		<path fill="#FFFFFF" d="M178.36,291.226c8.605,0,15.941-7.155,15.941-15.84v-39.593h-8.408v39.593c0,4.003-3.11,7.388-7.533,7.388
			c-4.424,0-7.532-3.386-7.532-7.388l-0.002-39.593h-8.407v39.593C162.419,284.071,169.755,291.226,178.36,291.226z"/>
		<path fill="#FFFFFF" d="M254.387,289.857h8.699l2.389-10.573h17.914l2.144,10.573h8.632l-12.438-54.065h-13.52L254.387,289.857z
			 M276.46,245.125l5.562,27.421h-15.024l6.207-27.457L276.46,245.125z"/>
		<path fill="#FFFFFF" d="M147.947,274.908c0-6.483-3.034-10.26-6.467-12.131l-2.536-1.382l2.467-1.503
			c2.999-1.826,5.069-7.044,5.069-10.66c0-5.511-4.001-13.44-13.006-13.439h-17.408v54.064h18.875
			C142.458,289.857,147.947,281.744,147.947,274.908z M124.472,241.526h6.067c4.021,0,7.532,3.075,7.532,8.461
			c0,4.88-2.655,8.462-7.532,8.462h-6.067V241.526z M124.472,284.125v-19.944h7.533c4.421,0,7.533,5.067,7.533,9.972
			c0,4.405-2.302,9.972-7.533,9.972H124.472z"/>
		<rect x="387.525" y="235.793" fill="#FFFFFF" width="8.407" height="54.065"/>
		<polygon fill="#FFFFFF" points="355.013,289.965 363.42,289.965 363.42,243.036 375.158,243.036 375.158,235.793 343.276,235.793 
			343.276,243.036 355.013,243.036 		"/>
		<polygon fill="#FFFFFF" points="312.064,289.965 320.47,289.965 320.47,243.036 332.208,243.036 332.208,235.793 300.327,235.793 
			300.327,243.036 312.064,243.036 		"/>
	</g>
</g>
</svg>
