<?xml version="1.0" encoding="utf-8"?>
<!-- Generator: Adobe Illustrator 18.0.0, SVG Export Plug-In . SVG Version: 6.00 Build 0)  -->
<!DOCTYPE svg PUBLIC "-//W3C//DTD SVG 1.1//EN" "http://www.w3.org/Graphics/SVG/1.1/DTD/svg11.dtd">
<svg version="1.1" id="Warstwa_1" xmlns="http://www.w3.org/2000/svg" xmlns:xlink="http://www.w3.org/1999/xlink" x="0px" y="0px"
	 width="512px" height="512px" viewBox="0 0 512 512" enable-background="new 0 0 512 512" xml:space="preserve">
<path fill="#EBEFF0" d="M256,0C114.839,0,0,114.842,0,256s114.839,256,256,256s256-114.842,256-256S397.161,0,256,0z"/>
<g>
	<path fill="#EBEFF0" d="M256,9.91C120.303,9.91,9.91,120.306,9.91,256S120.303,502.09,256,502.09S502.09,391.694,502.09,256
		S391.697,9.91,256,9.91z M399.553,87.443l4.401-5.386l2.16,6.612l5.386,4.402l-6.612,2.16l-4.401,5.386l-2.16-6.612l-5.386-4.402
		L399.553,87.443z M386.538,138.806l6.403-11.708l6.404,11.708l11.708,6.404l-11.708,6.403l-6.404,11.708l-6.403-11.708
		l-11.708-6.403L386.538,138.806z M353.297,103.486l1.569-2.87l1.569,2.87l2.869,1.569l-2.869,1.569l-1.569,2.869l-1.569-2.869
		l-2.869-1.569L353.297,103.486z M315.913,77.259l4.798-8.772l4.798,8.772l8.772,4.798l-8.772,4.798l-4.798,8.772l-4.798-8.772
		l-8.772-4.798L315.913,77.259z M93.948,327.274l8.772-4.798l4.798-8.772l4.798,8.772l8.772,4.798l-8.772,4.797l-4.798,8.772
		l-4.798-8.772L93.948,327.274z M120.295,395.733l-3.337,6.103l-3.338-6.103l-6.102-3.337l6.102-3.338l3.338-6.103l3.337,6.103
		l6.103,3.338L120.295,395.733z M184.669,428.976l-4.798,8.772l-4.798-8.772l-8.772-4.798l8.772-4.798l4.798-8.772l4.798,8.772
		l8.772,4.798L184.669,428.976z M423.55,258.995c-13.196,15.3-40.807,39.023-92.315,52.802c1.75,3.522,2.847,7.435,3.074,11.603
		c1.613,29.732-20.832,67.242-21.787,68.823l-3.619,5.997l-4.445-5.413c-1.123-1.365-27.452-33.765-29.213-66.203
		c-0.098-1.808,0.01-3.592,0.232-5.35c-3.902,0.331-7.883,0.616-11.967,0.837c-6.796,0.369-13.316,0.508-19.683,0.531
		c0.457,1.82,0.771,3.7,0.876,5.641c1.613,29.729-20.826,67.239-21.787,68.819l-3.619,5.997l-4.445-5.413
		c-1.123-1.365-27.452-33.761-29.219-66.203c-0.256-4.716,0.72-9.181,2.481-13.246c-48.256-8.316-78.447-26.567-94.712-39.66
		c-11.717-5.804-17.705-10.411-18.362-10.939l-5.942-4.774l75.845-39.1c1.117-16.338,11.493-105.969,104.342-111.003
		c91.373-4.823,110.539,78.025,113.61,95.983l79.506,34.013l-4.981,5.168C436.857,248.489,432.496,252.882,423.55,258.995z"/>
	<path fill="#35464E" d="M256,0C114.839,0,0,114.842,0,256s114.839,256,256,256s256-114.842,256-256S397.161,0,256,0z M256,502.09
		C120.303,502.09,9.91,391.694,9.91,256S120.303,9.91,256,9.91S502.09,120.306,502.09,256S391.697,502.09,256,502.09z"/>
	<polygon fill="#F4AA41" points="392.941,163.321 399.344,151.613 411.052,145.209 399.344,138.806 392.941,127.098 
		386.538,138.806 374.829,145.209 386.538,151.613 	"/>
	<polygon fill="#F4AA41" points="112.315,332.071 121.087,327.274 112.315,322.477 107.517,313.704 102.72,322.477 93.948,327.274 
		102.72,332.071 107.517,340.844 	"/>
	<polygon fill="#FFFFFF" points="179.871,410.609 175.073,419.381 166.302,424.178 175.073,428.976 179.871,437.748 
		184.669,428.976 193.44,424.178 184.669,419.381 	"/>
	<polygon fill="#FFFFFF" points="320.71,95.626 325.508,86.854 334.279,82.056 325.508,77.259 320.71,68.487 315.913,77.259 
		307.141,82.056 315.913,86.854 	"/>
	<polygon fill="#FFFFFF" points="116.958,382.955 113.62,389.058 107.517,392.396 113.62,395.733 116.958,401.836 120.295,395.733 
		126.398,392.396 120.295,389.058 	"/>
	<polygon fill="#FFFFFF" points="354.867,109.494 356.436,106.625 359.305,105.055 356.436,103.486 354.867,100.616 
		353.297,103.486 350.428,105.055 353.297,106.625 	"/>
	<polygon fill="#FFFFFF" points="400.487,100.616 404.889,95.23 411.501,93.07 406.115,88.668 403.954,82.056 399.553,87.443 
		392.941,89.603 398.327,94.004 	"/>
	<path fill="#F4AA41" d="M231.056,322.45c0.092,18.71-14.006,42.098-14.006,42.098s-17.534-21.342-18.657-42.059
		c-0.05-0.915,0.027-1.805,0.125-2.687c-0.074-0.01-0.15-0.018-0.224-0.028c-1.95,3.25-2.985,7.093-2.765,11.152
		c1.174,21.577,15.174,44.065,22.529,54.49c6.135-11.687,17.826-36.774,16.748-56.619c-0.12-2.229-0.674-4.323-1.469-6.288
		C232.577,322.489,231.81,322.474,231.056,322.45z"/>
	<path fill="#FDE9B0" d="M217.05,364.548c0,0,14.098-23.389,14.006-42.098c-2.128-0.068-4.239-0.147-6.316-0.252
		c-1.467,10.51-8.254,21.785-8.254,21.785s-9.309-11.46-11.027-23.3c-2.365-0.262-4.653-0.572-6.942-0.881
		c-0.097,0.882-0.174,1.772-0.125,2.687C199.517,343.206,217.05,364.548,217.05,364.548z"/>
	<path fill="#F4AA41" d="M224.741,322.198c-6.675-0.336-13.124-0.833-19.281-1.516c1.718,11.841,11.027,23.3,11.027,23.3
		S223.274,332.708,224.741,322.198z"/>
	<path fill="#F4AA41" d="M320.443,314.469c0.066,0.466,0.191,0.911,0.217,1.39c1.028,18.961-14.001,43.83-14.001,43.83
		s-16.205-19.777-18.421-39.736c-0.8,0.096-1.638,0.17-2.446,0.262c-0.475,1.895-0.758,3.846-0.65,5.853
		c1.168,21.574,15.168,44.065,22.523,54.49c6.142-11.687,17.826-36.774,16.748-56.623c-0.192-3.573-1.385-6.844-3.218-9.649
		C320.939,314.345,320.7,314.411,320.443,314.469z"/>
	<path fill="#FDE9B0" d="M320.66,315.859c-0.026-0.479-0.151-0.924-0.217-1.39c-2.087,0.47-4.267,0.896-6.425,1.332
		c-0.579,11.134-8.423,24.252-8.423,24.252s-8.223-10.02-10.694-21.004c-2.208,0.309-4.39,0.631-6.663,0.904
		c2.217,19.959,18.421,39.736,18.421,39.736S321.688,334.82,320.66,315.859z"/>
	<path fill="#F4AA41" d="M314.018,315.801c-6.081,1.229-12.451,2.317-19.117,3.248c2.471,10.983,10.694,21.004,10.694,21.004
		S313.439,326.935,314.018,315.801z"/>
	<path fill="#F4AA41" d="M256.465,244.223c-0.235,0.015-0.477,0.016-0.712,0.03c-0.08,0.005-0.162,0.016-0.242,0.021
		c-0.324,0.021-0.665,0.011-0.99,0.03c-2.854,0.152-5.74,0.238-8.652,0.266c-0.999,0.014-1.967,0.091-2.971,0.091
		c-0.006,0-0.006,0-0.013,0c-39.253,0-81.512-10.163-91.972-12.844l-62.97,32.46c16.123,9.552,61.942,31.358,144.142,31.358
		c0.006,0,0.006,0,0.013,0c8.806,0,17.91-0.252,27.065-0.748c100.245-5.435,149.755-36.774,165.439-48.987l-65.206-27.894
		C348.845,222.255,299.129,241.474,256.465,244.223z M169.256,272.802c-6.189,0.335-11.477-4.409-11.813-10.598
		c-0.335-6.188,4.409-11.477,10.598-11.813c6.189-0.335,11.477,4.409,11.813,10.598C180.19,267.178,175.445,272.467,169.256,272.802
		z M221.064,275.732c-6.189,0.336-11.477-4.409-11.813-10.598c-0.336-6.188,4.409-11.477,10.598-11.813
		c6.189-0.335,11.477,4.409,11.813,10.598C231.998,270.107,227.253,275.396,221.064,275.732z M292.111,271.879
		c-6.189,0.335-11.477-4.409-11.813-10.598c-0.336-6.189,4.409-11.477,10.598-11.813c6.189-0.336,11.477,4.409,11.813,10.598
		C303.045,266.255,298.3,271.544,292.111,271.879z M344.252,263.313c-6.189,0.336-11.477-4.409-11.813-10.598
		c-0.336-6.189,4.409-11.477,10.598-11.813c6.189-0.336,11.477,4.409,11.813,10.598
		C355.185,257.689,350.441,262.977,344.252,263.313z"/>
	<path fill="#35464E" d="M362.894,208.722c-3.071-17.959-22.237-100.807-113.61-95.983
		c-92.849,5.035-103.225,94.665-104.342,111.003l-75.845,39.1l5.942,4.774c0.658,0.528,6.645,5.135,18.362,10.939
		c16.265,13.092,46.456,31.344,94.712,39.66c-1.76,4.066-2.737,8.531-2.481,13.246c1.768,32.442,28.097,64.839,29.219,66.203
		l4.445,5.413l3.619-5.997c0.961-1.581,23.4-39.09,21.787-68.819c-0.105-1.94-0.419-3.821-0.876-5.641
		c6.367-0.023,12.887-0.162,19.683-0.531c4.084-0.221,8.065-0.506,11.967-0.837c-0.222,1.759-0.33,3.543-0.232,5.35
		c1.761,32.439,28.09,64.839,29.213,66.203l4.445,5.413l3.619-5.997c0.955-1.581,23.4-39.09,21.787-68.823
		c-0.227-4.169-1.324-8.081-3.074-11.603c51.507-13.779,79.119-37.502,92.315-52.802c8.946-6.112,13.307-10.506,13.869-11.092
		l4.981-5.168L362.894,208.722z M249.826,122.635c82.587-4.494,100.239,69.142,103.206,86.9
		c-13.019,5.106-59.4,22.352-98.155,24.848c-3.929,0.255-7.929,0.368-11.987,0.368c0,0,0,0-0.006,0
		c-35.877,0-75.645-9.1-87.974-12.152C156.265,204.029,166.884,127.132,249.826,122.635z M218.058,385.416
		c-7.355-10.426-21.355-32.913-22.529-54.49c-0.22-4.059,0.815-7.903,2.765-11.152c0.074,0.01,0.15,0.018,0.224,0.028
		c2.29,0.308,4.578,0.618,6.942,0.881c6.157,0.683,12.606,1.179,19.281,1.516c2.077,0.105,4.188,0.184,6.316,0.252
		c0.754,0.024,1.52,0.04,2.281,0.059c0.795,1.965,1.349,4.059,1.469,6.288C235.884,348.642,224.194,373.729,218.058,385.416z
		 M307.665,380.558c-7.355-10.426-21.355-32.916-22.523-54.49c-0.108-2.007,0.174-3.958,0.65-5.853
		c0.808-0.092,1.646-0.166,2.446-0.262c2.274-0.273,4.456-0.595,6.663-0.904c6.666-0.932,13.036-2.019,19.117-3.248
		c2.158-0.436,4.338-0.862,6.425-1.332c0.257-0.058,0.496-0.124,0.752-0.183c1.833,2.805,3.025,6.076,3.218,9.649
		C325.49,343.784,313.806,368.871,307.665,380.558z M259.161,294.887c-9.155,0.497-18.258,0.748-27.065,0.748
		c-0.006,0-0.006,0-0.013,0c-82.2,0-128.019-21.806-144.142-31.358l62.97-32.46c10.46,2.681,52.719,12.844,91.972,12.844
		c0.006,0,0.006,0,0.013,0c1.004,0,1.972-0.077,2.971-0.091c2.913-0.028,5.798-0.113,8.652-0.266c0.325-0.019,0.666-0.01,0.99-0.03
		c0.08-0.005,0.162-0.016,0.242-0.021c0.235-0.014,0.478-0.015,0.712-0.03c42.665-2.748,92.381-21.968,102.929-26.216L424.6,245.9
		C408.916,258.113,359.406,289.452,259.161,294.887z"/>
	<path fill="#FDE9B0" d="M242.89,234.752c4.058,0,8.058-0.113,11.987-0.368c38.755-2.497,85.135-19.742,98.155-24.848
		c-2.968-17.758-20.619-91.394-103.206-86.9c-82.942,4.497-93.561,81.394-94.916,99.965c12.329,3.052,52.097,12.152,87.974,12.152
		C242.89,234.752,242.89,234.752,242.89,234.752z"/>
	<circle fill="#FFFFFF" cx="168.649" cy="261.597" r="11.222"/>
	<circle fill="#FFFFFF" cx="220.456" cy="264.526" r="11.222"/>
	<circle fill="#FFFFFF" cx="291.504" cy="260.674" r="11.222"/>
	<circle fill="#FFFFFF" cx="343.644" cy="252.108" r="11.222"/>
</g>
</svg>
