<svg width="512" height="512" xmlns="http://www.w3.org/2000/svg">

 <g>
  <title>background</title>
  <rect fill="none" id="canvas_background" height="514" width="514" y="-1" x="-1"/>
 </g>
 <g>
  <title>Layer 1</title>
  <polygon id="svg_1" fill="#FFFFFF" points="142.22000122070312,249.8550033569336 154.0500030517578,249.8550033569336 148.7899932861328,268.29100799560547 157.15200805664062,268.29100799560547 162.41400146484375,249.8550033569336 174.24400329589844,249.8550033569336 176.0679931640625,243.70899200439453 144.04400634765625,243.70899200439453 "/>
  <polygon id="svg_2" fill="none" stroke="#FFFFFF" stroke-width="3.138" points="142.22000122070312,249.8550033569336 154.0500030517578,249.8550033569336 148.7899932861328,268.29100799560547 157.15200805664062,268.29100799560547 162.41400146484375,249.8550033569336 174.24400329589844,249.8550033569336 176.0679931640625,243.70899200439453 144.04400634765625,243.70899200439453 "/>
  <path id="svg_3" fill="#FFFFFF" d="m337.378,261.0295c-0.574,1.982 -0.284,3.68 1.257,5.439c1.183,1.312 2.499,1.824 4.94,1.824l25.835,0l1.825,-6.149l-27.761,0l3.649,-12.29l27.76,0l1.779,-6.145l-24.749,-0.001l-0.487,0l-0.985,0.032c-1.344,0.032 -1.896,0.201 -2.783,0.457c-0.699,0.159 -1.367,0.447 -2.022,0.799c-2.971,1.6 -4.708,3.776 -5.856,7.745l-2.402,8.289z"/>
  <path id="svg_4" fill="none" stroke="#FFFFFF" stroke-width="3.138" d="m337.378,261.0295c-0.574,1.982 -0.284,3.68 1.257,5.439c1.183,1.312 2.499,1.824 4.94,1.824l25.835,0l1.825,-6.149l-27.761,0l3.649,-12.29l27.76,0l1.779,-6.145l-24.749,-0.001l-0.487,0l-0.985,0.032c-1.344,0.032 -1.896,0.201 -2.783,0.457c-0.699,0.159 -1.367,0.447 -2.022,0.799c-2.971,1.6 -4.708,3.776 -5.856,7.745l-2.402,8.289z"/>
  <path id="svg_5" fill="#FFFFFF" d="m173.073,260.460995c-0.604,2.085 -0.393,3.722 1.014,5.615c1.158,1.508 2.712,2.215 5.578,2.215l25.217,0l1.825,-6.146l-27.697,0l0.998,-3.42l27.547,0l1.593,-5.48l-27.609,0l1.057,-3.39l27.548,0l1.846,-6.146l-25.803,0c-2.47,0.097 -3.86,0.514 -5.616,1.637c-0.485,0.321 -0.925,0.61 -1.353,0.963c-1.684,1.316 -2.649,2.631 -3.337,4.556c-0.106,0.257 -0.171,0.482 -0.237,0.707l-2.571,8.889z"/>
  <path id="svg_6" fill="none" stroke="#FFFFFF" stroke-width="3.138" d="m173.073,260.460995c-0.604,2.085 -0.393,3.722 1.014,5.615c1.158,1.508 2.712,2.215 5.578,2.215l25.217,0l1.825,-6.146l-27.697,0l0.998,-3.42l27.547,0l1.593,-5.48l-27.609,0l1.057,-3.39l27.548,0l1.846,-6.146l-25.803,0c-2.47,0.097 -3.86,0.514 -5.616,1.637c-0.485,0.321 -0.925,0.61 -1.353,0.963c-1.684,1.316 -2.649,2.631 -3.337,4.556c-0.106,0.257 -0.171,0.482 -0.237,0.707l-2.571,8.889z"/>
  <polygon id="svg_7" fill="#FFFFFF" points="324.3869934082031,268.29100799560547 330.9570007324219,268.29100799560547 338.0419921875,243.70899200439453 331.4730224609375,243.70899200439453 "/>
  <polygon id="svg_8" fill="none" stroke="#FFFFFF" stroke-width="3.138" points="324.3869934082031,268.29100799560547 330.9570007324219,268.29100799560547 338.0419921875,243.70899200439453 331.4730224609375,243.70899200439453 "/>
  <path id="svg_9" fill="#FFFFFF" d="m285.679,268.202321l6.479,0l5.311,-18.336l11.038,16.544c1.938,2.527 4.761,3.008 7.756,1.664c2.579,-1.152 4.326,-3.136 5.234,-6.273l5.253,-18.184l-6.57,0l-5.281,18.602l-10.986,-16.609c-1.779,-2.401 -4.348,-2.976 -7.334,-1.888c-2.77,1.023 -4.662,2.943 -5.3,5.152l-5.6,19.328z"/>
  <path id="svg_10" fill="none" stroke="#FFFFFF" stroke-width="3.138" d="m285.679,268.202321l6.479,0l5.311,-18.336l11.038,16.544c1.938,2.527 4.761,3.008 7.756,1.664c2.579,-1.152 4.326,-3.136 5.234,-6.273l5.253,-18.184l-6.57,0l-5.281,18.602l-10.986,-16.609c-1.779,-2.401 -4.348,-2.976 -7.334,-1.888c-2.77,1.023 -4.662,2.943 -5.3,5.152l-5.6,19.328z"/>
  <polygon id="svg_11" fill="#FFFFFF" points="247.08299255371094,268.2890090942383 253.67300415039062,268.2890090942383 256.55499267578125,258.7529983520508 277.53399658203125,258.7529983520508 274.74200439453125,268.29300689697266 281.2200012207031,268.29300689697266 288.30499267578125,243.70699310302734 281.947998046875,243.70699310302734 279.0989990234375,253.24298858642578 258.031982421875,253.24298858642578 260.75799560546875,243.70699310302734 254.2779998779297,243.70699310302734 "/>
  <polygon id="svg_12" fill="none" stroke="#FFFFFF" stroke-width="3.138" points="247.08299255371094,268.2890090942383 253.67300415039062,268.2890090942383 256.55499267578125,258.7529983520508 277.53399658203125,258.7529983520508 274.74200439453125,268.29300689697266 281.2200012207031,268.29300689697266 288.30499267578125,243.70699310302734 281.947998046875,243.70699310302734 279.0989990234375,253.24298858642578 258.031982421875,253.24298858642578 260.75799560546875,243.70699310302734 254.2779998779297,243.70699310302734 "/>
  <path id="svg_13" fill="#FFFFFF" d="m210.882,261.029836c-0.575,1.982 -0.284,3.68 1.257,5.439c1.182,1.312 2.5,1.824 4.942,1.824l25.833,0l1.826,-6.149l-27.76,0l3.649,-12.29l27.759,0l1.779,-6.145l-24.748,-0.001c0,0 -0.899,-0.008 -1.473,0.031c-1.098,0.077 -1.895,0.202 -2.783,0.458c-0.698,0.159 -1.367,0.447 -2.022,0.799c-2.97,1.6 -4.707,3.776 -5.857,7.745l-2.402,8.289z"/>
  <path id="svg_14" fill="none" stroke="#FFFFFF" stroke-width="3.138" d="m210.882,261.029836c-0.575,1.982 -0.284,3.68 1.257,5.439c1.182,1.312 2.5,1.824 4.942,1.824l25.833,0l1.826,-6.149l-27.76,0l3.649,-12.29l27.759,0l1.779,-6.145l-24.748,-0.001c0,0 -0.899,-0.008 -1.473,0.031c-1.098,0.077 -1.895,0.202 -2.783,0.458c-0.698,0.159 -1.367,0.447 -2.022,0.799c-2.97,1.6 -4.707,3.776 -5.857,7.745l-2.402,8.289z"/>
  <path id="svg_15" d="m248.554,259.171773c0,0 -2.169,7.579 -2.779,9.689c-0.415,1.441 -2.085,2.376 -3.032,2.376c0,0 -16.466,0.005 -26.934,0.005c-0.789,0 -1.941,-0.18 -3.079,-0.636c-1,-0.399 -1.632,-0.751 -2.373,-1.41c-0.781,-0.701 -1.287,-1.366 -1.824,-2.419c-0.56,-1.1 -0.782,-1.806 -0.897,-3.035c-0.121,-1.286 0.352,-3.198 0.364,-3.293c0.012,-0.094 1.656,-5.536 2.463,-8.301c0.563,-1.935 1.22,-3.86 2.785,-5.84c2.442,-3.088 4.762,-4.462 8.618,-5.255c0.85,-0.175 1.339,-0.247 2.206,-0.284c0.315,-0.014 0.808,-0.01 0.808,-0.01l25.903,0c0.093,0 0.309,0.023 0.501,0.07c1.294,0.322 2.001,1.752 1.861,2.874c-0.013,0.093 -1.371,4.445 -1.894,6.692c-0.16,0.679 -0.795,2.43 -0.795,2.43l-27.681,-0.023l-1.91,6.357l27.689,0.013"/>
  <path id="svg_16" d="m143.88,240.759506l32.742,0c0.094,0 0.342,0.02 0.554,0.07c1.297,0.318 2.001,1.752 1.863,2.874c-0.012,0.093 -1.381,4.445 -1.932,6.692c-0.278,1.145 -1.878,2.409 -2.925,2.406l-9.655,0.014c0,0 -2.879,10.318 -4.52,16.044c-0.405,1.414 -1.873,2.381 -2.918,2.381l-8.925,0c-0.093,0 -0.272,-0.049 -0.442,-0.104c-1.178,-0.379 -1.879,-1.298 -1.909,-2.537c-0.007,-0.309 0.012,-0.491 0.098,-0.791c1.833,-6.359 4.337,-14.994 4.337,-14.994l-8.987,-0.015c-0.093,0.003 -0.275,-0.047 -0.444,-0.1c-1.188,-0.373 -1.854,-1.32 -1.901,-2.564c-0.014,-0.356 0.007,-0.566 0.112,-0.906c0.755,-2.432 1.914,-6.246 1.914,-6.246c0.357,-1.288 1.606,-2.215 2.938,-2.224"/>
  <path id="svg_17" d="m351.498,240.764005l25.973,0c0.094,0 0.484,0.059 0.77,0.174c1.146,0.458 1.671,1.675 1.535,2.769c-0.085,0.691 -0.101,0.421 -0.318,1.237c-0.491,1.85 -0.939,3.419 -1.575,5.455c-0.35,1.123 -1.878,2.41 -2.924,2.408l-25.551,0l-1.91,6.357l24.576,0c0.094,-0.001 0.217,0.014 0.352,0.039c1.353,0.251 2.345,1.652 1.96,2.932c-0.727,2.414 -1.511,5.104 -1.973,6.692c-0.326,1.124 -1.795,2.409 -3.128,2.409l-27.149,0c-0.14,0 -1.758,-0.3 -2.197,-0.439c-0.428,-0.132 -0.915,-0.286 -1.36,-0.511c-0.536,-0.271 -1.055,-0.666 -1.551,-1.085c-0.835,-0.712 -1.335,-1.575 -1.86,-2.421c-0.275,-0.442 -0.398,-0.983 -0.554,-1.461c-0.331,-1.018 -0.43,-2.147 -0.296,-3.222c0.012,-0.094 0.306,-1.552 0.316,-1.645c0.012,-0.094 1.579,-5.587 2.468,-8.339c0.608,-1.888 1.226,-3.833 2.78,-5.801c1.826,-2.313 3.318,-3.431 6.057,-4.521c1.457,-0.579 2.346,-0.796 3.905,-0.954l1.654,-0.073"/>
  <path id="svg_18" d="m331.617,240.764005l7.018,0c0.094,0 0.33,0.039 0.53,0.099c1.271,0.378 1.996,1.723 1.856,2.844c-0.013,0.093 -6.142,20.962 -7.214,25.12c-0.292,1.142 -1.879,2.409 -2.927,2.409l-7.129,0c-0.094,0 -0.303,-0.08 -0.444,-0.104c-1.098,-0.187 -2.019,-1.611 -1.9,-2.564l0.113,-0.907c0.012,-0.092 5.004,-17.391 7.112,-24.556c0.419,-1.419 1.915,-2.341 2.985,-2.341"/>
  <path id="svg_19" d="m300.921,240.317723c1.678,0.277 2.624,0.777 3.958,1.832c0.928,0.735 1.573,1.499 2.045,2.246c2.25,3.546 4.667,7.064 6.978,10.571c1.104,-3.872 2.233,-7.809 3.438,-11.944c0.407,-1.399 1.922,-2.345 2.907,-2.345l7.168,0c0.094,0 0.304,0.066 0.445,0.099c1.462,0.345 2.007,1.723 1.866,2.845c-0.012,0.093 -3.583,12.496 -5.372,18.728c-0.053,0.191 -0.177,0.408 -0.237,0.602c-0.341,1.073 -0.76,2.077 -1.517,3.255c-1.367,2.13 -2.525,3.204 -4.739,4.43c-0.261,0.145 -0.408,0.226 -0.68,0.351c-1.331,0.61 -2.218,0.655 -3.68,0.763c-0.346,0.024 -0.54,0.042 -0.885,0.038c-1.216,-0.016 -2.378,-0.399 -3.048,-0.653c-1.228,-0.455 -2.721,-1.511 -3.669,-2.942c-2.513,-3.803 -4.979,-7.515 -7.454,-11.244c0,0 -0.026,0.029 -0.055,0.063c-1.129,3.884 -2.343,7.795 -3.354,11.732c-0.29,1.141 -1.878,2.408 -2.925,2.408l-7.093,0c-0.093,0 -0.273,-0.048 -0.441,-0.103c-1.187,-0.382 -1.869,-1.319 -1.903,-2.565c-0.009,-0.325 0.103,-0.828 0.103,-0.828l5.685,-19.533c0.101,-0.208 0.188,-0.425 0.249,-0.616c0.555,-1.715 2.088,-4.19 4.528,-5.543c0.244,-0.136 0.388,-0.203 0.639,-0.323c1.693,-0.808 2.746,-1.198 4.613,-1.358c0.944,-0.085 1.494,-0.121 2.43,0.034"/>
  <path id="svg_20" d="m254.469,240.764005l6.905,0c1.313,0 2.668,1.392 2.376,2.945l-1.802,6.329l15,0c0.82,-2.396 1.509,-4.777 2.385,-7.421c0.408,-1.23 1.986,-1.853 2.759,-1.853l6.943,0c0.093,0 0.419,0.039 0.672,0.124c1.196,0.403 1.718,1.791 1.59,2.819c-0.01,0.093 -1.397,4.787 -2.08,7.179c-0.507,1.79 -1.039,3.625 -1.576,5.458c-1.211,4.14 -2.483,8.326 -3.559,12.484c-0.289,1.141 -1.878,2.408 -2.924,2.408l-7.056,0c-0.093,0 -0.275,-0.048 -0.443,-0.103c-1.185,-0.382 -1.868,-1.319 -1.902,-2.565c-0.009,-0.325 0.103,-0.828 0.103,-0.828l1.765,-6.031l-14.963,0c-0.732,2.336 -1.36,4.522 -2.124,7.119c-0.419,1.418 -1.88,2.408 -2.927,2.408l-7.204,0c-0.094,0 -0.275,-0.048 -0.445,-0.103c-1.186,-0.382 -1.853,-1.321 -1.9,-2.565c-0.015,-0.354 0.112,-0.906 0.112,-0.906c0.011,-0.092 1.093,-3.666 1.628,-5.492c0.493,-1.682 1.004,-3.369 1.487,-5.047c1.332,-4.593 2.691,-9.2 4.071,-13.792c0.021,-0.075 0.069,-0.138 0.115,-0.225c0.716,-1.298 1.928,-2.342 2.994,-2.342"/>
  <path id="svg_21" d="m186.341,240.759003l26.127,0c0.093,0 0.39,0.012 0.63,0.07c1.296,0.318 2.076,1.596 1.862,2.872c-0.015,0.093 -1.297,4.457 -1.931,6.694c-0.144,0.519 -0.487,1.057 -1.041,1.568c0.149,0.246 0.181,0.957 0.141,1.271c-0.012,0.093 -1.166,4.038 -1.702,6.057c-0.071,0.268 -0.262,0.656 -0.499,0.979c-0.107,0.149 -0.367,0.383 -0.379,0.477c-0.009,0.07 0.235,0.813 0.165,1.382c-0.056,0.449 -1.231,4.218 -1.974,6.73c-0.425,1.438 -1.948,2.354 -3.033,2.382l-26.612,0c-1.069,-0.131 -2.057,-0.206 -3.239,-0.736c-1.587,-0.71 -2.43,-1.418 -3.444,-2.831c-1.192,-1.661 -1.608,-2.938 -1.626,-4.981c-0.008,-0.825 0.103,-1.578 0.237,-2.097c0.848,-3.216 1.81,-6.435 2.78,-9.645c0.097,-0.332 0.22,-0.716 0.355,-1.049c0.499,-1.229 1.143,-2.507 2.24,-3.857c1.919,-2.36 3.521,-3.458 6.386,-4.48c0.64,-0.229 1.009,-0.341 1.672,-0.488c1.106,-0.247 2.147,-0.318 2.885,-0.318"/>
  <polyline id="svg_28" fill="#FFFFFF" points="142.22000122070312,249.8550033569336 154.0500030517578,249.8550033569336 148.7899932861328,268.29100799560547 157.15200805664062,268.29100799560547 162.41400146484375,249.8550033569336 174.24400329589844,249.8550033569336 176.0679931640625,243.70899200439453 144.04400634765625,243.70899200439453 142.22000122070312,249.8550033569336 "/>
  <path id="svg_29" fill="#FFFFFF" d="m337.378,261.0295c-0.574,1.982 -0.284,3.68 1.257,5.439c1.183,1.312 2.499,1.824 4.94,1.824l25.835,0l1.825,-6.149l-27.761,0l3.649,-12.29l27.76,0l1.779,-6.145l-24.749,-0.001l-0.487,0l-0.985,0.032c-1.344,0.032 -1.896,0.201 -2.783,0.457c-0.699,0.159 -1.367,0.447 -2.022,0.799c-2.971,1.6 -4.708,3.776 -5.856,7.745l-2.402,8.289"/>
  <path id="svg_30" fill="#FFFFFF" d="m173.073,260.460995c-0.604,2.085 -0.393,3.722 1.014,5.615c1.158,1.508 2.712,2.215 5.578,2.215l25.217,0l1.825,-6.146l-27.697,0l0.998,-3.42l27.547,0l1.593,-5.48l-27.609,0l1.057,-3.39l27.548,0l1.846,-6.146l-25.803,0c-2.47,0.097 -3.86,0.514 -5.616,1.637c-0.485,0.321 -0.925,0.61 -1.353,0.963c-1.684,1.316 -2.649,2.631 -3.337,4.556c-0.106,0.257 -0.171,0.482 -0.237,0.707l-2.571,8.889"/>
  <polyline id="svg_31" fill="#FFFFFF" points="324.3869934082031,268.29100799560547 330.9570007324219,268.29100799560547 338.0419921875,243.70899200439453 331.4730224609375,243.70899200439453 324.3869934082031,268.29100799560547 "/>
  <path id="svg_32" fill="#FFFFFF" d="m285.679,268.202321l6.479,0l5.311,-18.336l11.038,16.544c1.938,2.527 4.761,3.008 7.756,1.664c2.579,-1.152 4.326,-3.136 5.234,-6.273l5.253,-18.184l-6.57,0l-5.281,18.602l-10.986,-16.609c-1.779,-2.401 -4.348,-2.976 -7.334,-1.888c-2.77,1.023 -4.662,2.943 -5.3,5.152l-5.6,19.328"/>
  <polyline id="svg_33" fill="#FFFFFF" points="247.08299255371094,268.2890090942383 253.67300415039062,268.2890090942383 256.55499267578125,258.7529983520508 277.53399658203125,258.7529983520508 274.74200439453125,268.29300689697266 281.2200012207031,268.29300689697266 288.30499267578125,243.70699310302734 281.947998046875,243.70699310302734 279.0989990234375,253.24298858642578 258.031982421875,253.24298858642578 260.75799560546875,243.70699310302734 254.2779998779297,243.70699310302734 247.08299255371094,268.2890090942383 "/>
  <path id="svg_34" fill="#FFFFFF" d="m210.882,261.029836c-0.575,1.982 -0.284,3.68 1.257,5.439c1.182,1.312 2.5,1.824 4.942,1.824l25.833,0l1.826,-6.149l-27.76,0l3.649,-12.29l27.759,0l1.779,-6.145l-24.748,-0.001c0,0 -0.899,-0.008 -1.473,0.031c-1.098,0.077 -1.895,0.202 -2.783,0.458c-0.698,0.159 -1.367,0.447 -2.022,0.799c-2.97,1.6 -4.707,3.776 -5.857,7.745l-2.402,8.289"/>
 </g>
</svg>