<?xml version="1.0" encoding="utf-8"?>
<!-- Generator: Adobe Illustrator 18.0.0, SVG Export Plug-In . SVG Version: 6.00 Build 0)  -->
<!DOCTYPE svg PUBLIC "-//W3C//DTD SVG 1.1//EN" "http://www.w3.org/Graphics/SVG/1.1/DTD/svg11.dtd">
<svg version="1.1" id="Warstwa_1" xmlns="http://www.w3.org/2000/svg" xmlns:xlink="http://www.w3.org/1999/xlink" x="0px" y="0px"
	 width="180px" height="180px" viewBox="0 0 180 180" enable-background="new 0 0 180 180" xml:space="preserve">
<g>
	<path fill="#36464E" d="M140.762,0H39.238C17.567,0,0,17.567,0,39.238v101.524C0,162.433,17.567,180,39.238,180h51.031h10.175
		h40.318C162.433,180,180,162.433,180,140.762v-38.136v-9.823V39.238C180,17.567,162.433,0,140.762,0z"/>
	<g>
		<path fill="#36464E" d="M140.762,0H39.238C17.567,0,0,17.567,0,39.238v101.524C0,162.433,17.567,180,39.238,180h51.031
			l-42.93-45.464v-0.684c-0.769-0.923-1.25-2.094-1.25-3.39l38.844-79.812H49.308c-1.778,0-3.219-1.441-3.219-3.219
			c0-1.778,1.441-3.219,3.219-3.219h80.539c1.415,0,2.659,0.725,3.387,1.823L180,92.803V39.238C180,17.567,162.433,0,140.762,0z"/>
		<path fill="#2D3A3F" d="M133.911,48.278c0,1.042-0.4,2.044-1.118,2.799L98.147,87.548c0,0,28.96,34.339,34.76,41.215
			c0.65,0.771,1.004,1.741,1.004,2.765v0.063c0,2.318-1.879,4.197-4.197,4.197l-78.302-0.002c-1.645,0-3.097-0.762-4.073-1.934
			v0.684L90.269,180h10.175h40.318C162.433,180,180,162.433,180,140.762v-38.136v-9.823l-46.766-46.766
			C133.66,46.679,133.911,47.449,133.911,48.278z"/>
		<path fill="#2D3A3F" d="M124.918,129.53L91.564,89.636c-1.041-1.245-1-3.068,0.096-4.265l31.785-34.719H91.679l-37.523,78.85
			h58.627L124.918,129.53z"/>
		<path fill="#FFFFFF" d="M129.714,135.788c2.318,0,4.197-1.879,4.197-4.197v-0.063c0-1.024-0.354-1.995-1.004-2.765
			c-5.8-6.876-34.76-41.215-34.76-41.215l34.646-36.471c0.718-0.755,1.118-1.758,1.118-2.799c0-0.829-0.251-1.599-0.677-2.242
			c-0.728-1.097-1.971-1.823-3.387-1.823H49.308c-1.778,0-3.219,1.441-3.219,3.219c0,1.778,1.441,3.219,3.219,3.219h35.625
			l-38.844,79.812c0,1.295,0.481,2.467,1.25,3.39c0.976,1.172,2.428,1.934,4.073,1.934L129.714,135.788z M91.679,50.652h31.767
			L91.66,85.37c-1.096,1.197-1.137,3.02-0.096,4.265l33.354,39.894l-12.135-0.028H54.156L91.679,50.652z"/>
	</g>
</g>
</svg>
