<?xml version="1.0" encoding="utf-8"?>
<!-- Generator: Adobe Illustrator 18.0.0, SVG Export Plug-In . SVG Version: 6.00 Build 0)  -->
<!DOCTYPE svg PUBLIC "-//W3C//DTD SVG 1.1//EN" "http://www.w3.org/Graphics/SVG/1.1/DTD/svg11.dtd">
<svg version="1.1" id="Warstwa_1" xmlns="http://www.w3.org/2000/svg" xmlns:xlink="http://www.w3.org/1999/xlink" x="0px" y="0px"
	 width="64px" height="64px" viewBox="0 0 64 64" enable-background="new 0 0 64 64" xml:space="preserve">
<g>
	<path fill="#36464E" d="M50.049,0H13.951C6.246,0,0,6.246,0,13.951v36.097C0,57.754,6.246,64,13.951,64h18.144h3.618h14.335
		C57.754,64,64,57.754,64,50.049v-13.56v-3.493V13.951C64,6.246,57.754,0,50.049,0z"/>
	<g>
		<path fill="#36464E" d="M50.049,0H13.951C6.246,0,0,6.246,0,13.951v36.097C0,57.754,6.246,64,13.951,64h18.144L16.832,47.835
			v-0.243c-0.273-0.328-0.444-0.745-0.444-1.205l13.811-28.377H17.532c-0.632,0-1.145-0.512-1.145-1.145
			c0-0.632,0.512-1.145,1.145-1.145h28.636c0.503,0,0.945,0.258,1.204,0.648L64,32.996V13.951C64,6.246,57.754,0,50.049,0z"/>
		<path fill="#2D3A3F" d="M47.613,17.166c0,0.37-0.142,0.727-0.397,0.995L34.897,31.128c0,0,10.297,12.209,12.359,14.654
			c0.231,0.274,0.357,0.619,0.357,0.983v0.022c0,0.824-0.668,1.492-1.492,1.492L18.28,48.28c-0.585,0-1.101-0.271-1.448-0.688v0.243
			L32.096,64h3.618h14.335C57.754,64,64,57.754,64,50.049v-13.56v-3.493L47.372,16.368C47.524,16.597,47.613,16.871,47.613,17.166z"
			/>
		<path fill="#2D3A3F" d="M44.415,46.055L32.556,31.87c-0.37-0.443-0.356-1.091,0.034-1.517l11.301-12.344H32.597L19.255,46.045
			h20.845L44.415,46.055z"/>
		<path fill="#FFFFFF" d="M46.121,48.28c0.824,0,1.492-0.668,1.492-1.492v-0.022c0-0.364-0.126-0.709-0.357-0.983
			c-2.062-2.445-12.359-14.654-12.359-14.654l12.319-12.967c0.255-0.269,0.397-0.625,0.397-0.995c0-0.295-0.089-0.568-0.241-0.797
			c-0.259-0.39-0.701-0.648-1.204-0.648H17.532c-0.632,0-1.145,0.512-1.145,1.145c0,0.632,0.512,1.145,1.145,1.145h12.667
			L16.387,46.387c0,0.461,0.171,0.877,0.444,1.205c0.347,0.417,0.863,0.687,1.448,0.688L46.121,48.28z M32.597,18.009h11.295
			L32.59,30.354c-0.39,0.426-0.404,1.074-0.034,1.517l11.859,14.185l-4.315-0.01H19.255L32.597,18.009z"/>
	</g>
</g>
</svg>
